SplineFontDB: 3.0
FontName: Garuda
FullName: Garuda
FamilyName: Garuda
Weight: Regular
Copyright: Generated by NECTEC for Public Domain\n\nModified under GNU General Public License by TLWG
Version: 003.011
ItalicAngle: 0
UnderlinePosition: -27
UnderlineWidth: 10
Ascent: 840
Descent: 160
InvalidEm: 0
LayerCount: 3
Layer: 0 0 "Back" 1
Layer: 1 0 "Fore" 0
Layer: 2 1 "Quad" 0
FSType: 0
OS2Version: 4
OS2_WeightWidthSlopeOnly: 0
OS2_UseTypoMetrics: 0
CreationTime: 1153661488
ModificationTime: 1537412964
PfmFamily: 33
TTFWeight: 400
TTFWidth: 5
LineGap: 0
VLineGap: 0
Panose: 2 11 6 4 2 2 2 2 2 4
OS2TypoAscent: 0
OS2TypoAOffset: 1
OS2TypoDescent: 0
OS2TypoDOffset: 1
OS2TypoLinegap: 0
OS2WinAscent: 1284
OS2WinAOffset: 0
OS2WinDescent: 591
OS2WinDOffset: 0
HheadAscent: 1284
HheadAOffset: 0
HheadDescent: -591
HheadDOffset: 0
OS2Vendor: 'PfEd'
Lookup: 6 0 0 "'ccmp' Thai Tone Tilde Reordering" { "'ccmp' Thai Tone Tilde Reordering"  } ['ccmp' ('DFLT' <'dflt' > 'latn' <'dflt' > 'thai' <'KUY ' 'MLY ' 'PAL ' 'SAN ' 'THA ' 'dflt' > ) ]
Lookup: 6 0 0 "'ccmp' Thai Tone Macron Reordering" { "'ccmp' Thai Tone Macron Reordering"  } ['ccmp' ('DFLT' <'dflt' > 'latn' <'dflt' > 'thai' <'KUY ' 'MLY ' 'PAL ' 'SAN ' 'THA ' 'dflt' > ) ]
Lookup: 6 0 0 "'ccmp' Thai Below Vowel Macron Reordering" { "'ccmp' Thai Below Vowel Macron Reordering"  } ['ccmp' ('DFLT' <'dflt' > 'latn' <'dflt' > 'thai' <'KUY ' 'MLY ' 'PAL ' 'SAN ' 'THA ' 'dflt' > ) ]
Lookup: 4 0 0 "'ccmp' Patani Malay Ligatures" { "'ccmp' Patani Malay Ligatures"  } ['ccmp' ('DFLT' <'dflt' > 'thai' <'KUY ' 'MLY ' 'PAL ' 'SAN ' 'THA ' 'dflt' > ) ]
Lookup: 6 0 0 "'ccmp' Thai Conditional Descender Removal" { "'ccmp' Thai Conditional Descender Removal"  } ['ccmp' ('DFLT' <'dflt' > 'thai' <'KUY ' 'MLY ' 'THA ' 'dflt' > ) ]
Lookup: 1 0 0 "'ccmp' Pali-Sanskrit Descender Removal" { "'ccmp' Pali-Sanskrit Descender Removal"  } ['ccmp' ('thai' <'PAL ' 'SAN ' > ) ]

StartChar: .notdef
Encoding: 65536 -1 0
Width: 766
VWidth: 2048
Flags: W
HStem: 0 95<192 575> 1193 95<192 575>
VStem: 95 97<95 1193> 575 96<95 1193>
LayerCount: 3
Fore
SplineSet
95 0 m 1
 95 1288 l 1
 671 1288 l 1
 671 0 l 1
 95 0 l 1
192 95 m 1
 575 95 l 1
 575 1193 l 1
 192 1193 l 1
 192 95 l 1
EndSplineSet
Validated: 1
Layer: 2
SplineSet
95 0 m 1,0,-1
 95 1288 l 1,1,-1
 671 1288 l 1,2,-1
 671 0 l 1,3,-1
 95 0 l 1,0,-1
192 95 m 1,4,-1
 575 95 l 1,5,-1
 575 1193 l 1,6,-1
 192 1193 l 1,7,-1
 192 95 l 1,4,-1
EndSplineSet
EndChar

StartChar: exclam
Encoding: 33 33 2
Width: 277
VWidth: 2048
Flags: W
HStem: 0 100<90 192> 696 20G<86 195>
VStem: 86 109<0 100 459.481 716>
LayerCount: 3
Fore
SplineSet
113 178 m 1
 86 558 l 1
 86 716 l 1
 195 716 l 1
 195 558 l 1
 170 178 l 1
 113 178 l 1
90 0 m 1
 90 100 l 1
 192 100 l 1
 192 0 l 1
 90 0 l 1
EndSplineSet
Validated: 1
Layer: 2
SplineSet
113 178 m 1,0,-1
 86 558 l 1,1,-1
 86 716 l 1,2,-1
 195 716 l 1,3,-1
 195 558 l 1,4,-1
 170 178 l 1,5,-1
 113 178 l 1,0,-1
90 0 m 1,6,-1
 90 100 l 1,7,-1
 192 100 l 1,8,-1
 192 0 l 1,9,-1
 90 0 l 1,6,-1
EndSplineSet
EndChar

StartChar: quotedbl
Encoding: 34 34 3
Width: 354
VWidth: 2048
Flags: W
HStem: 463 253<71 124 231 285>
VStem: 46 100<560.92 716> 71 53<463 501.08> 208 100<557.609 716> 231 54<463 504.391>
LayerCount: 3
Fore
SplineSet
71 463 m 1xa0
 46 599 l 1
 46 716 l 1
 146 716 l 1
 146 599 l 1xc0
 124 463 l 1
 71 463 l 1xa0
231 463 m 1x88
 208 599 l 1
 208 716 l 1
 308 716 l 1
 308 599 l 1x90
 285 463 l 1
 231 463 l 1x88
EndSplineSet
Validated: 1
Layer: 2
SplineSet
71 463 m 1,0,-1
 46 599 l 1,1,-1
 46 716 l 1,2,-1
 146 716 l 1,3,-1
 146 599 l 1,4,-1
 124 463 l 1,5,-1
 71 463 l 1,0,-1
231 463 m 1,6,-1
 208 599 l 1,7,-1
 208 716 l 1,8,-1
 308 716 l 1,9,-1
 308 599 l 1,10,-1
 285 463 l 1,11,-1
 231 463 l 1,6,-1
EndSplineSet
EndChar

StartChar: numbersign
Encoding: 35 35 4
Width: 556
VWidth: 2048
Flags: W
HStem: -12 21G<51 128.038 277 355.135> 196 72<11 94 181 319 408 544> 446 72<11 144 231 371 460 544> 708 20G<197 274 423.905 501>
DStem2: 51 -12 124 -12 0.198662 0.980068<14.5024 212.397 300.245 467.347 555.195 755.05> 277 -12 351 -12 0.199934 0.979809<14.7951 212.198 300.538 467.546 555.887 755.249>
LayerCount: 3
Fore
SplineSet
51 -12 m 1
 94 196 l 1
 11 196 l 1
 11 268 l 1
 107 268 l 1
 144 446 l 1
 11 446 l 1
 11 518 l 1
 159 518 l 1
 201 728 l 1
 274 728 l 1
 231 518 l 1
 385 518 l 1
 428 728 l 1
 501 728 l 1
 460 518 l 1
 544 518 l 1
 544 446 l 1
 445 446 l 1
 408 268 l 1
 544 268 l 1
 544 196 l 1
 394 196 l 1
 351 -12 l 1
 277 -12 l 1
 319 196 l 1
 166 196 l 1
 124 -12 l 1
 51 -12 l 1
181 268 m 1
 334 268 l 1
 371 446 l 1
 218 446 l 1
 181 268 l 1
EndSplineSet
Validated: 1
Layer: 2
SplineSet
51 -12 m 1,0,-1
 94 196 l 1,1,-1
 11 196 l 1,2,-1
 11 268 l 1,3,-1
 107 268 l 1,4,-1
 144 446 l 1,5,-1
 11 446 l 1,6,-1
 11 518 l 1,7,-1
 159 518 l 1,8,-1
 201 728 l 1,9,-1
 274 728 l 1,10,-1
 231 518 l 1,11,-1
 385 518 l 1,12,-1
 428 728 l 1,13,-1
 501 728 l 1,14,-1
 460 518 l 1,15,-1
 544 518 l 1,16,-1
 544 446 l 1,17,-1
 445 446 l 1,18,-1
 408 268 l 1,19,-1
 544 268 l 1,20,-1
 544 196 l 1,21,-1
 394 196 l 1,22,-1
 351 -12 l 1,23,-1
 277 -12 l 1,24,-1
 319 196 l 1,25,-1
 166 196 l 1,26,-1
 124 -12 l 1,27,-1
 51 -12 l 1,0,-1
181 268 m 1,28,-1
 334 268 l 1,29,-1
 371 446 l 1,30,-1
 218 446 l 1,31,-1
 181 268 l 1,28,-1
EndSplineSet
EndChar

StartChar: dollar
Encoding: 36 36 5
Width: 556
VWidth: 2048
Flags: W
HStem: -15 75<191.399 250 300 358.558> 667 73<191.951 250 300 349.714>
VStem: 35 89<139.254 200.337> 51 87<480.151 613.052> 250 50<-103 -14 60 326 423 667 737.956 782> 402 90<562.911 610.303> 418 92<120.01 265.741>
LayerCount: 3
Fore
SplineSet
510 204 m 0xca
 510 73 419 -8 300 -14 c 1
 300 -103 l 1
 250 -103 l 1
 250 -15 l 1
 115 2 44 74 35 199 c 1
 124 216 l 1xea
 136 121 178 69 250 60 c 1
 250 339 l 1
 116 368 51 435 51 541 c 0
 51 662 130 728 250 740 c 1
 250 782 l 1
 300 782 l 1
 300 740 l 1
 414 730 477 670 492 564 c 1
 402 550 l 1xdc
 391 616 357 655 300 667 c 1
 300 412 l 1
 440 383 510 314 510 204 c 0xca
250 667 m 1
 169 656 138 593 138 547 c 0xd8
 138 487 175 446 250 423 c 1
 250 667 l 1
300 60 m 1
 370 68 418 120 418 198 c 0xca
 418 259 380 302 300 326 c 1
 300 60 l 1
EndSplineSet
Validated: 1
Layer: 2
SplineSet
510 204 m 0,0,1
 510 108 510 108 451 49.5 c 128,-1,2
 392 -9 392 -9 300 -14 c 1,3,-1
 300 -103 l 1,4,-1
 250 -103 l 1,5,-1
 250 -15 l 1,6,7
 49 10 49 10 35 199 c 1,8,-1
 124 216 l 1,9,10
 142 73.5 142 73.5 250 60 c 1,11,-1
 250 339 l 1,12,13
 51 382 51 382 51 541 c 0,14,15
 51 629 51 629 104 680 c 128,-1,16
 157 731 157 731 250 740 c 1,17,-1
 250 782 l 1,18,-1
 300 782 l 1,19,-1
 300 740 l 1,20,21
 469 725 469 725 492 564 c 1,22,-1
 402 550 l 1,23,24
 385.5 649 385.5 649 300 667 c 1,25,-1
 300 412 l 1,26,27
 510 369 510 369 510 204 c 0,0,1
250 667 m 1,28,29
 194 659 194 659 166 623 c 128,-1,30
 138 587 138 587 138 547 c 0,31,32
 138 457 138 457 250 423 c 1,33,-1
 250 667 l 1,28,29
300 60 m 1,34,35
 353 66 353 66 385.5 103 c 128,-1,36
 418 140 418 140 418 198 c 0,37,38
 418 291 418 291 300 326 c 1,39,-1
 300 60 l 1,34,35
EndSplineSet
EndChar

StartChar: percent
Encoding: 37 37 6
Width: 889
VWidth: 2048
Flags: W
HStem: -26 60<626.103 721.941> 291 62<625.893 723.968> 349 62<161.194 259.222> 668 60<162.917 259.529>
VStem: 58 77<439.329 638.264> 288 77<440.637 639.971> 521 77<62.1767 261.383> 751 77<64.564 263.406>
DStem2: 212 -26 285 -26 0.461279 0.887255<33.6733 849.812>
LayerCount: 3
Fore
SplineSet
365 540 m 0xbf
 365 436 310 349 210 349 c 0
 109 349 58 431 58 544 c 0
 58 659 118 728 208 728 c 0
 304 728 365 658 365 540 c 0xbf
212 668 m 0
 159 668 135 624 135 535 c 0
 135 452 159 411 212 411 c 0
 262 411 288 454 288 543 c 0
 288 625 262 668 212 668 c 0
212 -26 m 1
 604 728 l 1
 674 728 l 1
 285 -26 l 1
 212 -26 l 1
673 -26 m 0
 577 -26 521 49 521 169 c 0
 521 288 589 353 671 353 c 0xdf
 773 353 828 272 828 162 c 0
 828 53 772 -26 673 -26 c 0
674 291 m 0
 624 291 598 248 598 159 c 0
 598 77 624 34 674 34 c 0
 725 34 751 78 751 166 c 0
 751 250 727 291 674 291 c 0
EndSplineSet
Validated: 1
Layer: 2
SplineSet
365 540 m 0,0,1
 365 458 365 458 323.5 403.5 c 128,-1,2
 282 349 282 349 210 349 c 0,3,4
 137 349 137 349 97.5 402.5 c 128,-1,5
 58 456 58 456 58 544 c 0,6,7
 58 629 58 629 99 678.5 c 128,-1,8
 140 728 140 728 208 728 c 0,9,10
 280 728 280 728 322.5 678 c 128,-1,11
 365 628 365 628 365 540 c 0,0,1
212 668 m 0,12,13
 135 668 135 668 135 535 c 0,14,15
 135 411 135 411 212 411 c 0,16,17
 288 411 288 411 288 543 c 0,18,19
 288 668 288 668 212 668 c 0,12,13
212 -26 m 1,20,-1
 604 728 l 1,21,-1
 674 728 l 1,22,-1
 285 -26 l 1,23,-1
 212 -26 l 1,20,-1
673 -26 m 0,24,25
 601 -26 601 -26 561 26 c 128,-1,26
 521 78 521 78 521 169 c 0,27,28
 521 255 521 255 564 304 c 128,-1,29
 607 353 607 353 671 353 c 0,30,31
 745 353 745 353 786.5 300 c 128,-1,32
 828 247 828 247 828 162 c 0,33,34
 828 78 828 78 787 26 c 128,-1,35
 746 -26 746 -26 673 -26 c 0,24,25
674 291 m 0,36,37
 598 291 598 291 598 159 c 0,38,39
 598 34 598 34 674 34 c 0,40,41
 751 34 751 34 751 166 c 0,42,43
 751 291 751 291 674 291 c 0,36,37
EndSplineSet
EndChar

StartChar: ampersand
Encoding: 38 38 7
Width: 666
VWidth: 2048
Flags: W
HStem: -12 76<201.444 351.564> 656 72<248.233 362.978>
VStem: 43 95<126.793 268.362> 133 91<519.179 632.518> 388 90<516.264 631.321> 504 92<261.801 318.522>
DStem2: 296 458 213 412 0.625017 -0.780611<-135.639 -15.9683 72.465 281.112>
LayerCount: 3
Fore
SplineSet
311 728 m 0xdc
 422 728 478 652 478 575 c 0
 478 507 432 449 342 402 c 1
 471 238 l 1
 486 267 497 299 504 337 c 1
 596 317 l 1
 581 254 559 204 533 162 c 1
 566 120 602 83 644 54 c 1
 586 -17 l 1
 550 6 513 40 475 84 c 1
 417 20 349 -12 270 -12 c 0
 111 -12 43 109 43 198 c 0xec
 43 287 100 357 213 412 c 1
 159 474 133 526 133 569 c 0
 133 661 210 728 311 728 c 0xdc
307 656 m 0
 276 656 224 640 224 576 c 0xdc
 224 536 257 504 296 458 c 1
 357 494 388 532 388 573 c 0
 388 625 351 656 307 656 c 0
138 202 m 0xec
 138 122 201 64 271 64 c 0
 333 64 382 95 420 155 c 1
 259 354 l 1
 178 305 138 256 138 202 c 0xec
EndSplineSet
Validated: 1
Layer: 2
SplineSet
311 728 m 0,0,1
 390 728 390 728 434 682.5 c 128,-1,2
 478 637 478 637 478 575 c 0,3,4
 478 473 478 473 342 402 c 1,5,-1
 471 238 l 1,6,7
 494 282 494 282 504 337 c 1,8,-1
 596 317 l 1,9,10
 575 230 575 230 533 162 c 1,11,12
 587 93 587 93 644 54 c 1,13,-1
 586 -17 l 1,14,15
 533 17 533 17 475 84 c 1,16,17
 388 -12 388 -12 270 -12 c 0,18,19
 161 -12 161 -12 102 54 c 128,-1,20
 43 120 43 120 43 198 c 0,21,22
 43 329 43 329 213 412 c 1,23,24
 133 504 133 504 133 569 c 0,25,26
 133 638 133 638 184 683 c 128,-1,27
 235 728 235 728 311 728 c 0,0,1
307 656 m 0,28,29
 276 656 276 656 250 637.5 c 128,-1,30
 224 619 224 619 224 576 c 0,31,32
 224 566 224 566 227 556 c 128,-1,33
 230 546 230 546 233.5 538.5 c 128,-1,34
 237 531 237 531 246 518.5 c 128,-1,35
 255 506 255 506 259.5 501 c 128,-1,36
 264 496 264 496 278 479.5 c 128,-1,37
 292 463 292 463 296 458 c 1,38,39
 388 512 388 512 388 573 c 0,40,41
 388 611 388 611 364.5 633.5 c 128,-1,42
 341 656 341 656 307 656 c 0,28,29
138 202 m 0,43,44
 138 143 138 143 177.5 103.5 c 128,-1,45
 217 64 217 64 271 64 c 0,46,47
 362 64 362 64 420 155 c 1,48,-1
 259 354 l 1,49,50
 138 281 138 281 138 202 c 0,43,44
EndSplineSet
EndChar

StartChar: quotesingle
Encoding: 39 39 8
Width: 190
VWidth: 2048
Flags: W
HStem: 463 253<66 121>
VStem: 44 100<555.522 716> 66 55<463 503.478>
LayerCount: 3
Fore
SplineSet
66 463 m 1xa0
 44 596 l 1
 44 716 l 1
 144 716 l 1
 144 596 l 1xc0
 121 463 l 1
 66 463 l 1xa0
EndSplineSet
Validated: 1
Layer: 2
SplineSet
66 463 m 1,0,-1
 44 596 l 1,1,-1
 44 716 l 1,2,-1
 144 716 l 1,3,-1
 144 596 l 1,4,-1
 121 463 l 1,5,-1
 66 463 l 1,0,-1
EndSplineSet
EndChar

StartChar: parenleft
Encoding: 40 40 9
Width: 332
VWidth: 2048
Flags: W
HStem: -210 21G<176.5 297> 708 20G<176.5 297>
VStem: 61 91<90.579 423.794>
LayerCount: 3
Fore
SplineSet
235 -210 m 1
 118 -64 61 92 61 259 c 0
 61 418 118 575 235 728 c 1
 297 728 l 1
 199 569 152 412 152 259 c 0
 152 103 199 -54 297 -210 c 1
 235 -210 l 1
EndSplineSet
Validated: 1
Layer: 2
SplineSet
235 -210 m 1,0,1
 61 7 61 7 61 259 c 0,2,3
 61 500 61 500 235 728 c 1,4,-1
 297 728 l 1,5,6
 152 493 152 493 152 259 c 0,7,8
 152 21 152 21 297 -210 c 1,9,-1
 235 -210 l 1,0,1
EndSplineSet
EndChar

StartChar: parenright
Encoding: 41 41 10
Width: 332
VWidth: 2048
Flags: W
HStem: -210 21G<61 181.5> 708 20G<61 181.5>
VStem: 207 90<91.0231 424.828>
LayerCount: 3
Fore
SplineSet
207 259 m 0
 207 461 147 580 61 728 c 1
 124 728 l 1
 239 575 297 418 297 259 c 0
 297 94 239 -64 124 -210 c 1
 61 -210 l 1
 158 -54 207 103 207 259 c 0
EndSplineSet
Validated: 1
Layer: 2
SplineSet
207 259 m 0,0,1
 207 397 207 397 172 497 c 128,-1,2
 137 597 137 597 61 728 c 1,3,-1
 124 728 l 1,4,5
 297 498 297 498 297 259 c 0,6,7
 297 10 297 10 124 -210 c 1,8,-1
 61 -210 l 1,9,10
 207 25 207 25 207 259 c 0,0,1
EndSplineSet
EndChar

StartChar: asterisk
Encoding: 42 42 11
Width: 387
VWidth: 2048
Flags: W
HStem: 423 305
VStem: 158 69<609.707 728>
LayerCount: 3
Fore
SplineSet
32 584 m 1
 54 655 l 1
 106 636 144 621 167 607 c 1
 161 665 158 707 158 728 c 1
 227 728 l 1
 227 696 222 656 216 607 c 1
 250 624 288 639 331 655 c 1
 354 584 l 1
 313 572 273 563 233 558 c 1
 253 540 281 509 317 464 c 1
 258 423 l 1
 239 449 216 484 192 529 c 1
 167 483 146 448 127 423 c 1
 69 464 l 1
 107 512 135 543 152 558 c 1
 109 566 69 575 32 584 c 1
EndSplineSet
Validated: 1
Layer: 2
SplineSet
32 584 m 1,0,-1
 54 655 l 1,1,2
 139 624 139 624 167 607 c 1,3,4
 158 694 158 694 158 728 c 1,5,-1
 227 728 l 1,6,7
 227 697 227 697 216 607 c 1,8,9
 257 627 257 627 331 655 c 1,10,-1
 354 584 l 1,11,12
 289 565 289 565 233 558 c 1,13,14
 264 530 264 530 317 464 c 1,15,-1
 258 423 l 1,16,17
 223 471 223 471 192 529 c 1,18,19
 153 457 153 457 127 423 c 1,20,-1
 69 464 l 1,21,22
 124 533 124 533 152 558 c 1,23,24
 96 568 96 568 32 584 c 1,0,-1
EndSplineSet
EndChar

StartChar: plus
Encoding: 43 43 12
Width: 583
VWidth: 2048
Flags: W
HStem: 313 81<55 251 334 529> 569 20G<251 334>
VStem: 251 83<116 313 394 589>
LayerCount: 3
Fore
SplineSet
251 116 m 1
 251 313 l 1
 55 313 l 1
 55 394 l 1
 251 394 l 1
 251 589 l 1
 334 589 l 1
 334 394 l 1
 529 394 l 1
 529 313 l 1
 334 313 l 1
 334 116 l 1
 251 116 l 1
EndSplineSet
Validated: 1
Layer: 2
SplineSet
251 116 m 1,0,-1
 251 313 l 1,1,-1
 55 313 l 1,2,-1
 55 394 l 1,3,-1
 251 394 l 1,4,-1
 251 589 l 1,5,-1
 334 589 l 1,6,-1
 334 394 l 1,7,-1
 529 394 l 1,8,-1
 529 313 l 1,9,-1
 334 313 l 1,10,-1
 334 116 l 1,11,-1
 251 116 l 1,0,-1
EndSplineSet
EndChar

StartChar: comma
Encoding: 44 44 13
Width: 277
VWidth: 2048
Flags: W
HStem: 0 100<89 138>
VStem: 89 101<0 100> 138 52<-77.0449 0>
LayerCount: 3
Fore
SplineSet
89 0 m 1xc0
 89 100 l 1
 190 100 l 1
 190 0 l 2xc0
 190 -71 162 -118 107 -141 c 1
 83 -104 l 1
 118 -89 136 -54 138 0 c 1xa0
 89 0 l 1xc0
EndSplineSet
Validated: 1
Layer: 2
SplineSet
89 0 m 1,0,-1
 89 100 l 1,1,-1
 190 100 l 1,2,-1
 190 0 l 2,3,4
 190 -106 190 -106 107 -141 c 1,5,-1
 83 -104 l 1,6,7
 135 -82 135 -82 138 0 c 1,8,-1
 89 0 l 1,0,-1
EndSplineSet
EndChar

StartChar: hyphen
Encoding: 45 45 14
AltUni2: 002010.ffffffff.0
Width: 332
VWidth: 2048
Flags: W
HStem: 215 88<32 302>
VStem: 32 270<215 303>
LayerCount: 3
Fore
SplineSet
32 215 m 1
 32 303 l 1
 302 303 l 1
 302 215 l 1
 32 215 l 1
EndSplineSet
Validated: 1
Layer: 2
SplineSet
32 215 m 1,0,-1
 32 303 l 1,1,-1
 302 303 l 1,2,-1
 302 215 l 1,3,-1
 32 215 l 1,0,-1
EndSplineSet
EndChar

StartChar: period
Encoding: 46 46 15
Width: 277
VWidth: 2048
Flags: W
HStem: 0 100<90 192>
VStem: 90 102<0 100>
LayerCount: 3
Fore
SplineSet
90 0 m 1
 90 100 l 1
 192 100 l 1
 192 0 l 1
 90 0 l 1
EndSplineSet
Validated: 1
Layer: 2
SplineSet
90 0 m 1,0,-1
 90 100 l 1,1,-1
 192 100 l 1,2,-1
 192 0 l 1,3,-1
 90 0 l 1,0,-1
EndSplineSet
EndChar

StartChar: slash
Encoding: 47 47 16
Width: 277
VWidth: 2048
Flags: W
HStem: -12 21G<0 76.5676> 708 20G<201.405 277>
VStem: 0 277
DStem2: 0 -12 71 -12 0.269389 0.963032<19.1266 768.407>
LayerCount: 3
Fore
SplineSet
0 -12 m 1
 207 728 l 1
 277 728 l 1
 71 -12 l 1
 0 -12 l 1
EndSplineSet
Validated: 1
Layer: 2
SplineSet
0 -12 m 1,0,-1
 207 728 l 1,1,-1
 277 728 l 1,2,-1
 71 -12 l 1,3,-1
 0 -12 l 1,0,-1
EndSplineSet
EndChar

StartChar: zero
Encoding: 48 48 17
Width: 556
VWidth: 2048
Flags: W
HStem: -12 72<208.702 339.365> 658 72<208.306 338.969>
VStem: 41 89<179.379 537.786> 420 89<179.379 537.786>
LayerCount: 3
Fore
SplineSet
41 358 m 0
 41 603 120 730 276 730 c 0
 431 730 509 603 509 358 c 0
 509 115 431 -12 276 -12 c 0
 120 -12 41 115 41 358 c 0
130 358 m 0
 130 163 179 60 276 60 c 0
 371 60 420 163 420 358 c 0
 420 554 371 658 274 658 c 0
 179 658 130 554 130 358 c 0
EndSplineSet
Validated: 1
Layer: 2
SplineSet
41 358 m 0,0,1
 41 730 41 730 276 730 c 0,2,3
 509 730 509 730 509 358 c 0,4,5
 509 -12 509 -12 276 -12 c 0,6,7
 41 -12 41 -12 41 358 c 0,0,1
130 358 m 0,8,9
 130 60 130 60 276 60 c 0,10,11
 420 60 420 60 420 358 c 0,12,13
 420 658 420 658 274 658 c 0,14,15
 130 658 130 658 130 358 c 0,8,9
EndSplineSet
EndChar

StartChar: one
Encoding: 49 49 18
Width: 556
VWidth: 2048
Flags: W
HStem: 0 21G<285 374> 696 20G<298.5 374>
VStem: 285 89<0 558> 316 58<679.944 716>
LayerCount: 3
Back
SplineSet
372 0 m 1
 285 0 l 1
 285 561 l 1
 238 515 179 480 109 454 c 1
 109 540 l 1
 212 587 281 647 316 719 c 1
 372 719 l 1
 372 0 l 1
EndSplineSet
Fore
SplineSet
374 0 m 1xe0
 285 0 l 1
 285 558 l 1xe0
 238 512 179 477 109 451 c 1
 109 537 l 1
 212 584 281 644 316 716 c 1
 374 716 l 1xd0
 374 0 l 1xe0
EndSplineSet
Validated: 1
Layer: 2
SplineSet
374 0 m 1,0,-1
 285 0 l 1,1,-1
 285 558 l 1,2,3
 216 491 216 491 109 451 c 1,4,-1
 109 537 l 1,5,6
 263 607 263 607 316 716 c 1,7,-1
 374 716 l 1,8,-1
 374 0 l 1,0,-1
EndSplineSet
EndChar

StartChar: two
Encoding: 50 50 19
Width: 556
VWidth: 2048
Flags: W
HStem: 0 72<139 501> 658 72<193.082 353.172>
VStem: 44 91<522.308 598.553> 412 89<462.282 601.805>
LayerCount: 3
Back
SplineSet
501 520 m 0
 501 330 228 213 150 84 c 1
 501 84 l 1
 501 0 l 1
 28 0 l 1
 28 145 247 285 307 348 c 0
 359 402 412 465 412 523 c 0
 412 598 351 647 276 647 c 0
 189 647 135 593 135 503 c 1
 44 512 l 1
 57 650 135 719 277 719 c 0
 408 719 501 643 501 520 c 0
EndSplineSet
Fore
SplineSet
501 531 m 0
 501 341 217 201 139 72 c 1
 501 72 l 1
 501 0 l 1
 28 0 l 1
 28 145 247 290 307 353 c 0
 359 407 412 476 412 534 c 0
 412 609 351 658 276 658 c 0
 189 658 135 604 135 514 c 1
 44 523 l 1
 57 661 135 730 277 730 c 0
 408 730 501 654 501 531 c 0
EndSplineSet
Validated: 1
Layer: 2
SplineSet
501 531 m 0,0,1
 501 478 501 478 471.5 424 c 128,-1,2
 442 370 442 370 395.5 323.5 c 128,-1,3
 349 277 349 277 301 235.5 c 128,-1,4
 253 194 253 194 206 150 c 128,-1,5
 159 106 159 106 139 72 c 1,6,-1
 501 72 l 1,7,-1
 501 0 l 1,8,-1
 28 0 l 1,9,10
 28 41 28 41 50.5 85.5 c 128,-1,11
 73 130 73 130 110 170 c 128,-1,12
 147 210 147 210 182.5 242.5 c 128,-1,13
 218 275 218 275 256 307 c 128,-1,14
 294 339 294 339 307 353 c 0,15,16
 412 462 412 462 412 534 c 0,17,18
 412 589 412 589 373 623.5 c 128,-1,19
 334 658 334 658 276 658 c 0,20,21
 211 658 211 658 173 619.5 c 128,-1,22
 135 581 135 581 135 514 c 1,23,-1
 44 523 l 1,24,25
 64 730 64 730 277 730 c 0,26,27
 377 730 377 730 439 676 c 128,-1,28
 501 622 501 622 501 531 c 0,0,1
EndSplineSet
EndChar

StartChar: three
Encoding: 51 51 20
Width: 556
VWidth: 2048
Flags: W
HStem: -12 72<198.136 345.908> 344 76<225 276.247> 354 66<225 326.793> 526 21G<51 145> 658 72<195.377 338.232>
VStem: 41 89<140.839 193.865> 385 89<474.608 612.312> 417 89<130.121 291.284>
LayerCount: 3
Back
SplineSet
506 212 m 0xdd
 506 68 399 -12 270 -12 c 0
 130 -12 55 74 41 190 c 1
 130 201 l 1
 149 107 196 60 270 60 c 0
 359 60 417 126 417 210 c 0
 417 293 361 349 277 349 c 0xbd
 261 349 241 345 216 339 c 1
 225 415 l 1
 247 415 l 2
 323 415 385 461 385 535 c 0
 385 606 333 647 268 647 c 0
 195 647 152 604 138 518 c 1
 51 533 l 1
 74 658 146 719 267 719 c 0
 394 719 474 641 474 533 c 0xde
 474 466 440 418 374 388 c 1
 463 368 506 308 506 212 c 0xdd
EndSplineSet
Fore
SplineSet
506 215 m 0xdd
 506 71 399 -12 270 -12 c 0
 130 -12 55 77 41 193 c 1
 130 204 l 1
 149 110 196 60 270 60 c 0
 359 60 417 129 417 213 c 0
 417 296 361 354 277 354 c 0xbd
 261 354 241 350 216 344 c 1
 225 420 l 1
 247 420 l 2
 323 420 385 469 385 543 c 0
 385 614 333 658 268 658 c 0
 195 658 152 612 138 526 c 1
 51 541 l 1
 74 666 146 730 267 730 c 0
 394 730 474 649 474 541 c 0xde
 474 474 440 423 374 393 c 1
 463 373 506 311 506 215 c 0xdd
EndSplineSet
Validated: 1
Layer: 2
SplineSet
506 215 m 0,0,1
 506 110 506 110 438.5 49 c 128,-1,2
 371 -12 371 -12 270 -12 c 128,-1,3
 169 -12 169 -12 110.5 44.5 c 128,-1,4
 52 101 52 101 41 193 c 1,5,-1
 130 204 l 1,6,7
 159 60 159 60 270 60 c 0,8,9
 335 60 335 60 376 104 c 128,-1,10
 417 148 417 148 417 213 c 0,11,12
 417 276 417 276 378.5 315 c 128,-1,13
 340 354 340 354 277 354 c 0,14,15
 258 354 258 354 216 344 c 1,16,-1
 225 420 l 1,17,-1
 247 420 l 2,18,19
 305 420 305 420 345 454.5 c 128,-1,20
 385 489 385 489 385 543 c 0,21,22
 385 595 385 595 351.5 626.5 c 128,-1,23
 318 658 318 658 268 658 c 0,24,25
 159 658 159 658 138 526 c 1,26,-1
 51 541 l 1,27,28
 86 730 86 730 267 730 c 0,29,30
 361 730 361 730 417.5 676.5 c 128,-1,31
 474 623 474 623 474 541 c 0,32,33
 474 438 474 438 374 393 c 1,34,35
 506 363 506 363 506 215 c 0,0,1
EndSplineSet
EndChar

StartChar: four
Encoding: 52 52 21
Width: 556
VWidth: 2048
Flags: W
HStem: 0 21G<323 412> 181 72<100 323 412 509> 696 20G<325.832 412>
VStem: 323 89<0 181 253 575>
DStem2: 12 253 100 253 0.578066 0.81599<50.8698 442.527>
LayerCount: 3
Back
SplineSet
323 0 m 1
 323 172 l 1
 12 172 l 1
 12 253 l 1
 340 716 l 1
 412 716 l 1
 412 253 l 1
 509 253 l 1
 509 172 l 1
 412 172 l 1
 412 0 l 1
 323 0 l 1
323 253 m 1
 323 575 l 1
 100 253 l 1
 323 253 l 1
EndSplineSet
Fore
SplineSet
323 0 m 1
 323 181 l 1
 12 181 l 1
 12 253 l 1
 340 716 l 1
 412 716 l 1
 412 253 l 1
 509 253 l 1
 509 181 l 1
 412 181 l 1
 412 0 l 1
 323 0 l 1
323 253 m 1
 323 575 l 1
 100 253 l 1
 323 253 l 1
EndSplineSet
Validated: 1
Layer: 2
SplineSet
323 0 m 1,0,-1
 323 181 l 1,1,-1
 12 181 l 1,2,-1
 12 253 l 1,3,-1
 340 716 l 1,4,-1
 412 716 l 1,5,-1
 412 253 l 1,6,-1
 509 253 l 1,7,-1
 509 181 l 1,8,-1
 412 181 l 1,9,-1
 412 0 l 1,10,-1
 323 0 l 1,0,-1
323 253 m 1,11,-1
 323 575 l 1,12,-1
 100 253 l 1,13,-1
 323 253 l 1,11,-1
EndSplineSet
EndChar

StartChar: five
Encoding: 53 53 22
Width: 556
VWidth: 2048
Flags: W
HStem: -12 72<193.67 345.171> 404 72<195.242 353.55> 644 72<198 483>
VStem: 41 92<128.319 189.457> 423 89<142.159 330.259>
DStem2: 57 343 159 433 0.184448 0.982842<4.31344 43.0221 107.269 321.843>
LayerCount: 3
Back
SplineSet
423 235 m 0
 423 303 392 397 270 397 c 0
 213 397 170 374 139 328 c 1
 57 339 l 1
 127 707 l 1
 483 707 l 1
 483 622 l 1
 196 622 l 1
 159 429 l 1
 202 460 247 475 293 475 c 0
 434 475 517 374 517 242 c 0
 517 100 423 -12 271 -12 c 0
 143 -12 55 62 41 189 c 1
 133 195 l 1
 147 106 193 60 271 60 c 0
 355 60 423 126 423 235 c 0
EndSplineSet
Fore
SplineSet
423 237 m 0
 423 305 392 404 270 404 c 0
 213 404 170 378 139 332 c 1
 57 343 l 1
 127 716 l 1
 483 716 l 1
 483 644 l 1
 198 644 l 1
 159 433 l 1
 202 464 247 476 293 476 c 0
 434 476 512 376 512 244 c 0
 512 102 423 -12 271 -12 c 0
 143 -12 55 62 41 189 c 1
 133 195 l 1
 147 106 193 60 271 60 c 0
 355 60 423 128 423 237 c 0
EndSplineSet
Validated: 1
Layer: 2
SplineSet
423 237 m 0,0,1
 423 265 423 265 416 292 c 128,-1,2
 409 319 409 319 393 345.5 c 128,-1,3
 377 372 377 372 345 388 c 128,-1,4
 313 404 313 404 270 404 c 0,5,6
 188 404 188 404 139 332 c 1,7,-1
 57 343 l 1,8,-1
 127 716 l 1,9,-1
 483 716 l 1,10,-1
 483 644 l 1,11,-1
 198 644 l 1,12,-1
 159 433 l 1,13,14
 219 476 219 476 293 476 c 0,15,16
 396 476 396 476 454 411 c 128,-1,17
 512 346 512 346 512 244 c 0,18,19
 512 134 512 134 447 61 c 128,-1,20
 382 -12 382 -12 271 -12 c 0,21,22
 174 -12 174 -12 112.5 41 c 128,-1,23
 51 94 51 94 41 189 c 1,24,-1
 133 195 l 1,25,26
 154 60 154 60 271 60 c 0,27,28
 336 60 336 60 379.5 108.5 c 128,-1,29
 423 157 423 157 423 237 c 0,0,1
EndSplineSet
EndChar

StartChar: six
Encoding: 54 54 23
Width: 556
VWidth: 2048
Flags: W
HStem: -12 72<213.556 352.845> 394 72<204.848 354.995> 658 72<218.25 356.584>
VStem: 37 89<374 527.589> 411 87<548.517 597.66> 420 89<135.271 327.288>
LayerCount: 3
Back
SplineSet
509 233 m 0xf4
 509 88 422 -12 287 -12 c 0
 121 -12 37 104 37 336 c 0
 37 592 123 719 294 719 c 0
 457 719 489 598 498 541 c 1
 411 535 l 1xf8
 394 609 354 647 288 647 c 0
 169 647 126 519 126 369 c 1
 167 434 225 464 299 464 c 4
 426 464 509 364 509 233 c 0xf4
282 386 m 0
 167 386 138 286 138 231 c 0
 138 134 197 60 285 60 c 0
 369 60 420 132 420 227 c 0xf4
 420 353 342 386 282 386 c 0
EndSplineSet
Fore
SplineSet
509 236 m 0xf4
 509 91 422 -12 287 -12 c 0
 121 -12 37 109 37 341 c 0
 37 597 123 730 294 730 c 0
 457 730 489 606 498 549 c 1
 411 543 l 1xf8
 394 617 354 658 288 658 c 0
 169 658 126 524 126 374 c 1
 167 439 225 466 299 466 c 0
 426 466 509 367 509 236 c 0xf4
282 394 m 0
 167 394 138 289 138 234 c 0
 138 137 197 60 285 60 c 0
 369 60 420 135 420 230 c 0xf4
 420 356 342 394 282 394 c 0
EndSplineSet
Validated: 1
Layer: 2
SplineSet
509 236 m 0,0,1
 509 126 509 126 448 57 c 128,-1,2
 387 -12 387 -12 287 -12 c 0,3,4
 37 -12 37 -12 37 341 c 0,5,6
 37 730 37 730 294 730 c 0,7,8
 469 730 469 730 498 549 c 1,9,-1
 411 543 l 1,10,11
 385 658 385 658 288 658 c 0,12,13
 231 658 231 658 193.5 617 c 128,-1,14
 156 576 156 576 141 515 c 128,-1,15
 126 454 126 454 126 374 c 1,16,17
 184 466 184 466 299 466 c 0,18,19
 393 466 393 466 451 401 c 128,-1,20
 509 336 509 336 509 236 c 0,0,1
282 394 m 0,21,22
 241 394 241 394 211 377 c 128,-1,23
 181 360 181 360 166.5 334 c 128,-1,24
 152 308 152 308 145 283 c 128,-1,25
 138 258 138 258 138 234 c 0,26,27
 138 160 138 160 179 110 c 128,-1,28
 220 60 220 60 285 60 c 0,29,30
 347 60 347 60 383.5 108.5 c 128,-1,31
 420 157 420 157 420 230 c 0,32,33
 420 316 420 316 378 355 c 128,-1,34
 336 394 336 394 282 394 c 0,21,22
EndSplineSet
EndChar

StartChar: seven
Encoding: 55 55 24
Width: 556
VWidth: 2048
Flags: W
HStem: 0 21G<147 246.5> 644 72<48 399>
VStem: 147 91<0 148.008>
LayerCount: 3
Back
SplineSet
48 622 m 1
 48 707 l 1
 510 707 l 1
 510 639 l 1
 435 558 372 458 322 343 c 0
 273 227 245 112 238 0 c 1
 147 0 l 1
 150 106 175 216 222 331 c 0
 268 443 326 541 399 622 c 1
 48 622 l 1
EndSplineSet
Fore
SplineSet
147 0 m 1
 154 240 277 509 399 644 c 1
 48 644 l 1
 48 716 l 1
 510 716 l 1
 510 661 l 1
 386 528 255 265 238 0 c 1
 147 0 l 1
EndSplineSet
Validated: 1
Layer: 2
SplineSet
147 0 m 1,0,1
 152 172 152 172 227 354 c 128,-1,2
 302 536 302 536 399 644 c 1,3,-1
 48 644 l 1,4,-1
 48 716 l 1,5,-1
 510 716 l 1,6,-1
 510 661 l 1,7,8
 409 553 409 553 329.5 370.5 c 128,-1,9
 250 188 250 188 238 0 c 1,10,-1
 147 0 l 1,0,1
EndSplineSet
EndChar

StartChar: eight
Encoding: 56 56 25
Width: 556
VWidth: 2048
Flags: W
HStem: -12 72<198.757 356.472> 356 72<206.589 348.525> 658 72<208.781 343.925>
VStem: 41 89<129.899 286.502> 70 89<474.62 611.828> 393 89<472.14 610.296> 423 89<126.537 286.315>
LayerCount: 3
Back
SplineSet
276 -12 m 0xe2
 138 -12 41 76 41 207 c 0xf2
 41 303 86 365 176 388 c 1
 106 415 70 463 70 535 c 0
 70 627 136 719 276 719 c 0
 404 719 482 640 482 532 c 0xec
 482 463 448 415 379 388 c 1
 468 359 512 297 512 205 c 0
 512 69 407 -12 276 -12 c 0xe2
276 647 m 0
 225 647 159 614 159 538 c 0
 159 468 207 422 277 422 c 0
 346 422 393 466 393 533 c 0xec
 393 605 339 647 276 647 c 0
274 351 m 0
 187 351 130 282 130 207 c 0
 130 111 201 60 277 60 c 0
 364 60 423 120 423 204 c 0xf2
 423 292 358 351 274 351 c 0
EndSplineSet
Fore
SplineSet
276 -12 m 0xe2
 138 -12 41 79 41 210 c 0xf2
 41 306 86 370 176 393 c 1
 106 420 70 471 70 543 c 0
 70 635 136 730 276 730 c 0
 404 730 482 648 482 540 c 0xec
 482 471 448 420 379 393 c 1
 468 364 512 300 512 208 c 0
 512 72 407 -12 276 -12 c 0xe2
276 658 m 0
 225 658 159 622 159 546 c 0
 159 476 207 428 277 428 c 0
 346 428 393 474 393 541 c 0xec
 393 613 339 658 276 658 c 0
274 356 m 0
 187 356 130 285 130 210 c 0
 130 114 201 60 277 60 c 0
 364 60 423 123 423 207 c 0xf2
 423 295 358 356 274 356 c 0
EndSplineSet
Validated: 1
Layer: 2
SplineSet
276 -12 m 0,0,1
 172 -12 172 -12 106.5 50 c 128,-1,2
 41 112 41 112 41 210 c 0,3,4
 41 358 41 358 176 393 c 1,5,6
 70 434 70 434 70 543 c 0,7,8
 70 619 70 619 123.5 674.5 c 128,-1,9
 177 730 177 730 276 730 c 0,10,11
 370 730 370 730 426 676.5 c 128,-1,12
 482 623 482 623 482 540 c 0,13,14
 482 433 482 433 379 393 c 1,15,16
 512 350 512 350 512 208 c 0,17,18
 512 108 512 108 444.5 48 c 128,-1,19
 377 -12 377 -12 276 -12 c 0,0,1
276 658 m 0,20,21
 232 658 232 658 195.5 628.5 c 128,-1,22
 159 599 159 599 159 546 c 0,23,24
 159 494 159 494 191.5 461 c 128,-1,25
 224 428 224 428 277 428 c 0,26,27
 329 428 329 428 361 459.5 c 128,-1,28
 393 491 393 491 393 541 c 0,29,30
 393 593 393 593 359 625.5 c 128,-1,31
 325 658 325 658 276 658 c 0,20,21
274 356 m 0,32,33
 211 356 211 356 170.5 312.5 c 128,-1,34
 130 269 130 269 130 210 c 0,35,36
 130 141 130 141 173.5 100.5 c 128,-1,37
 217 60 217 60 277 60 c 0,38,39
 342 60 342 60 382.5 101.5 c 128,-1,40
 423 143 423 143 423 207 c 0,41,42
 423 272 423 272 380.5 314 c 128,-1,43
 338 356 338 356 274 356 c 0,32,33
EndSplineSet
EndChar

StartChar: nine
Encoding: 57 57 26
Width: 556
VWidth: 2048
Flags: W
HStem: -12 72<188.399 329.82> 250 72<202.977 348.144> 658 72<204.679 346.027>
VStem: 41 89<397.328 574.94> 55 84<114.839 169.583> 423 89<190.411 342>
LayerCount: 3
Back
SplineSet
254 242 m 0xec
 129 242 41 341 41 478 c 0xf4
 41 614 123 719 267 719 c 0
 416 719 512 628 512 372 c 0
 512 116 428 -12 256 -12 c 0
 144 -12 69 53 55 166 c 1
 139 173 l 1
 153 98 192 60 258 60 c 0
 397 60 423 232 423 290 c 2
 423 337 l 1
 383 274 328 242 254 242 c 0xec
276 320 m 0
 365 320 415 392 415 481 c 0
 415 572 363 647 277 647 c 0
 192 647 130 572 130 475 c 0
 130 375 200 320 276 320 c 0
EndSplineSet
Fore
SplineSet
254 250 m 0xec
 129 250 41 349 41 486 c 0xf4
 41 622 123 730 267 730 c 0
 416 730 512 633 512 377 c 0
 512 121 428 -12 256 -12 c 0
 144 -12 69 56 55 169 c 1
 139 176 l 1
 153 101 192 60 258 60 c 0
 397 60 423 237 423 295 c 2
 423 342 l 1
 383 279 328 250 254 250 c 0xec
276 322 m 0
 365 322 415 400 415 489 c 0
 415 580 363 658 277 658 c 0
 192 658 130 580 130 483 c 0
 130 383 200 322 276 322 c 0
EndSplineSet
Validated: 1
Layer: 2
SplineSet
254 250 m 0,0,1
 160 250 160 250 100.5 316.5 c 128,-1,2
 41 383 41 383 41 486 c 0,3,4
 41 592 41 592 101.5 661 c 128,-1,5
 162 730 162 730 267 730 c 0,6,7
 512 730 512 730 512 377 c 0,8,9
 512 -12 512 -12 256 -12 c 0,10,11
 172 -12 172 -12 119 36 c 128,-1,12
 66 84 66 84 55 169 c 1,13,-1
 139 176 l 1,14,15
 161 60 161 60 258 60 c 0,16,17
 307 60 307 60 342 87.5 c 128,-1,18
 377 115 377 115 393 156.5 c 128,-1,19
 409 198 409 198 416 232.5 c 128,-1,20
 423 267 423 267 423 295 c 2,21,-1
 423 342 l 1,22,23
 365 250 365 250 254 250 c 0,0,1
276 322 m 0,24,25
 340 322 340 322 377.5 370.5 c 128,-1,26
 415 419 415 419 415 489 c 0,27,28
 415 560 415 560 377.5 609 c 128,-1,29
 340 658 340 658 277 658 c 256,30,31
 214 658 214 658 172 607 c 128,-1,32
 130 556 130 556 130 483 c 0,33,34
 130 411 130 411 173 366.5 c 128,-1,35
 216 322 216 322 276 322 c 0,24,25
EndSplineSet
EndChar

StartChar: colon
Encoding: 58 58 27
Width: 277
VWidth: 2048
Flags: W
HStem: 0 100<90 192> 418 100<90 192>
VStem: 90 102<0 100 418 518>
LayerCount: 3
Fore
SplineSet
90 418 m 1
 90 518 l 1
 192 518 l 1
 192 418 l 1
 90 418 l 1
90 0 m 1
 90 100 l 1
 192 100 l 1
 192 0 l 1
 90 0 l 1
EndSplineSet
Validated: 1
Layer: 2
SplineSet
90 418 m 1,0,-1
 90 518 l 1,1,-1
 192 518 l 1,2,-1
 192 418 l 1,3,-1
 90 418 l 1,0,-1
90 0 m 1,4,-1
 90 100 l 1,5,-1
 192 100 l 1,6,-1
 192 0 l 1,7,-1
 90 0 l 1,4,-1
EndSplineSet
EndChar

StartChar: semicolon
Encoding: 59 59 28
Width: 277
VWidth: 2048
Flags: W
HStem: 0 100<89 138> 418 100<89 190>
VStem: 89 101<0 100 418 518> 138 52<-77.0449 0>
LayerCount: 3
Fore
SplineSet
89 418 m 1xe0
 89 518 l 1
 190 518 l 1
 190 418 l 1
 89 418 l 1xe0
89 0 m 1
 89 100 l 1
 190 100 l 1
 190 0 l 2xe0
 190 -71 162 -118 107 -141 c 1
 83 -104 l 1
 118 -89 136 -54 138 0 c 1xd0
 89 0 l 1
EndSplineSet
Validated: 1
Layer: 2
SplineSet
89 418 m 1,0,-1
 89 518 l 1,1,-1
 190 518 l 1,2,-1
 190 418 l 1,3,-1
 89 418 l 1,0,-1
89 0 m 1,4,-1
 89 100 l 1,5,-1
 190 100 l 1,6,-1
 190 0 l 2,7,8
 190 -106 190 -106 107 -141 c 1,9,-1
 83 -104 l 1,10,11
 135 -82 135 -82 138 0 c 1,12,-1
 89 0 l 1,4,-1
EndSplineSet
EndChar

StartChar: less
Encoding: 60 60 29
Width: 583
VWidth: 2048
Flags: W
HStem: 576 20G<481.836 529>
DStem2: 55 395 153 354 0.920645 0.3904<74.2168 480.891> 153 354 55 313 0.919245 -0.393685<0 407.051>
LayerCount: 3
Fore
SplineSet
55 313 m 1
 55 395 l 1
 529 596 l 1
 529 509 l 1
 153 354 l 1
 529 198 l 1
 529 110 l 1
 55 313 l 1
EndSplineSet
Validated: 1
Layer: 2
SplineSet
55 313 m 1,0,-1
 55 395 l 1,1,-1
 529 596 l 1,2,-1
 529 509 l 1,3,-1
 153 354 l 1,4,-1
 529 198 l 1,5,-1
 529 110 l 1,6,-1
 55 313 l 1,0,-1
EndSplineSet
EndChar

StartChar: equal
Encoding: 61 61 30
Width: 583
VWidth: 2048
Flags: W
HStem: 215 72<55 529> 431 72<55 529>
LayerCount: 3
Fore
SplineSet
529 431 m 1
 55 431 l 1
 55 503 l 1
 529 503 l 1
 529 431 l 1
529 215 m 1
 55 215 l 1
 55 287 l 1
 529 287 l 1
 529 215 l 1
EndSplineSet
Validated: 1
Layer: 2
SplineSet
529 431 m 1,0,-1
 55 431 l 1,1,-1
 55 503 l 1,2,-1
 529 503 l 1,3,-1
 529 431 l 1,0,-1
529 215 m 1,4,-1
 55 215 l 1,5,-1
 55 287 l 1,6,-1
 529 287 l 1,7,-1
 529 215 l 1,4,-1
EndSplineSet
EndChar

StartChar: greater
Encoding: 62 62 31
Width: 583
VWidth: 2048
Flags: W
HStem: 576 20G<55 102.164>
DStem2: 55 596 55 509 0.920645 -0.3904<33.9648 440.639> 55 198 55 110 0.919245 0.393685<0 407.051>
LayerCount: 3
Fore
SplineSet
529 313 m 1
 55 110 l 1
 55 198 l 1
 431 354 l 1
 55 509 l 1
 55 596 l 1
 529 395 l 1
 529 313 l 1
EndSplineSet
Validated: 1
Layer: 2
SplineSet
529 313 m 1,0,-1
 55 110 l 1,1,-1
 55 198 l 1,2,-1
 431 354 l 1,3,-1
 55 509 l 1,4,-1
 55 596 l 1,5,-1
 529 395 l 1,6,-1
 529 313 l 1,0,-1
EndSplineSet
EndChar

StartChar: question
Encoding: 63 63 32
Width: 556
VWidth: 2048
Flags: W
HStem: 0 100<225 325> 656 72<199.09 355.84>
VStem: 44 91<520.154 580.634> 225 100<0 100 176 295.443> 416 89<469.088 597.523>
LayerCount: 3
Fore
SplineSet
416 527 m 0
 416 605 353 656 277 656 c 0
 198 656 150 609 135 510 c 1
 44 521 l 1
 61 659 138 728 276 728 c 0
 402 728 505 660 505 533 c 0
 505 436 395 369 353 308 c 0
 332 277 320 236 319 176 c 1
 230 176 l 1
 230 217 l 2
 230 276 260 329 279 349 c 0
 312 385 416 458 416 527 c 0
225 0 m 1
 225 100 l 1
 325 100 l 1
 325 0 l 1
 225 0 l 1
EndSplineSet
Validated: 1
Layer: 2
SplineSet
416 527 m 0,0,1
 416 584 416 584 375.5 620 c 128,-1,2
 335 656 335 656 277 656 c 0,3,4
 157 656 157 656 135 510 c 1,5,-1
 44 521 l 1,6,7
 70 728 70 728 276 728 c 0,8,9
 375 728 375 728 440 676.5 c 128,-1,10
 505 625 505 625 505 533 c 0,11,12
 505 499 505 499 486.5 465 c 128,-1,13
 468 431 468 431 445.5 407.5 c 128,-1,14
 423 384 423 384 394 355 c 128,-1,15
 365 326 365 326 353 308 c 0,16,17
 320 260 320 260 319 176 c 1,18,-1
 230 176 l 1,19,-1
 230 217 l 2,20,21
 230 257 230 257 245.5 293.5 c 128,-1,22
 261 330 261 330 279 349 c 0,23,24
 282 353 282 353 325 391.5 c 128,-1,25
 368 430 368 430 392 463 c 128,-1,26
 416 496 416 496 416 527 c 0,0,1
225 0 m 1,27,-1
 225 100 l 1,28,-1
 325 100 l 1,29,-1
 325 0 l 1,30,-1
 225 0 l 1,27,-1
EndSplineSet
EndChar

StartChar: at
Encoding: 64 64 33
Width: 1014
VWidth: 2048
Flags: W
HStem: -210 72<387.812 706.871> -2 72<377.822 495.227 631.5 753.003> 458 72<433.71 563.253> 498 20G<654.385 746> 658 72<401.332 670.331>
VStem: 54 73<101.744 374.818> 241 90<122.598 323.256> 613 48<112 317> 883 73<240.63 460.749>
LayerCount: 3
Fore
SplineSet
979 9 m 1xdf80
 917 -128 741 -210 549 -210 c 0
 170 -210 54 21 54 228 c 0
 54 473 202 730 538 730 c 0
 779 730 956 578 956 348 c 0
 956 187 830 -2 662 -2 c 0
 601 -2 569 25 567 80 c 1
 521 26 471 -2 417 -2 c 0
 310 -2 241 94 241 218 c 0
 241 381 367 530 494 530 c 0xef80
 556 530 605 500 641 440 c 1
 659 518 l 1
 746 518 l 1
 674 189 l 2
 664 144 661 118 661 112 c 0
 661 90 671 70 694 70 c 0
 777 70 883 210 883 349 c 0
 883 537 737 658 535 658 c 0
 287 658 127 471 127 238 c 0
 127 36 246 -138 547 -138 c 0
 708 -138 823 -89 892 9 c 1
 979 9 l 1xdf80
613 317 m 0
 613 402 568 458 500 458 c 0
 393 458 331 315 331 212 c 0
 331 132 373 70 435 70 c 0
 542 70 613 200 613 317 c 0
EndSplineSet
Validated: 1
Layer: 2
SplineSet
979 9 m 1,0,1
 933 -92 933 -92 814.5 -151 c 128,-1,2
 696 -210 696 -210 549 -210 c 0,3,4
 439 -210 439 -210 352 -184 c 128,-1,5
 265 -158 265 -158 210.5 -115.5 c 128,-1,6
 156 -73 156 -73 119.5 -15 c 128,-1,7
 83 43 83 43 68.5 103 c 128,-1,8
 54 163 54 163 54 228 c 0,9,10
 54 303 54 303 71.5 374.5 c 128,-1,11
 89 446 89 446 128 510.5 c 128,-1,12
 167 575 167 575 222.5 623.5 c 128,-1,13
 278 672 278 672 359 701 c 128,-1,14
 440 730 440 730 538 730 c 0,15,16
 721 730 721 730 838.5 624.5 c 128,-1,17
 956 519 956 519 956 348 c 0,18,19
 956 267 956 267 918.5 186.5 c 128,-1,20
 881 106 881 106 811.5 52 c 128,-1,21
 742 -2 742 -2 662 -2 c 0,22,23
 570 -2 570 -2 567 80 c 1,24,25
 497 -2 497 -2 417 -2 c 0,26,27
 338 -2 338 -2 289.5 60.5 c 128,-1,28
 241 123 241 123 241 218 c 0,29,30
 241 339 241 339 319.5 434.5 c 128,-1,31
 398 530 398 530 494 530 c 0,32,33
 587 530 587 530 641 440 c 1,34,-1
 659 518 l 1,35,-1
 746 518 l 1,36,-1
 674 189 l 2,37,38
 661 130 661 130 661 112 c 0,39,40
 661 70 661 70 694 70 c 0,41,42
 758 70 758 70 820.5 158.5 c 128,-1,43
 883 247 883 247 883 349 c 0,44,45
 883 488 883 488 785.5 573 c 128,-1,46
 688 658 688 658 535 658 c 0,47,48
 353 658 353 658 240 537.5 c 128,-1,49
 127 417 127 417 127 238 c 0,50,51
 127 160 127 160 151 93.5 c 128,-1,52
 175 27 175 27 223.5 -25.5 c 128,-1,53
 272 -78 272 -78 355 -108 c 128,-1,54
 438 -138 438 -138 547 -138 c 0,55,56
 788.5 -138 788.5 -138 892 9 c 1,57,-1
 979 9 l 1,0,1
613 317 m 0,58,59
 613 381 613 381 582 419.5 c 128,-1,60
 551 458 551 458 500 458 c 0,61,62
 450 458 450 458 409.5 417.5 c 128,-1,63
 369 377 369 377 350 321.5 c 128,-1,64
 331 266 331 266 331 212 c 0,65,66
 331 151 331 151 360 110.5 c 128,-1,67
 389 70 389 70 435 70 c 0,68,69
 512 70 512 70 562.5 147 c 128,-1,70
 613 224 613 224 613 317 c 0,58,59
EndSplineSet
EndChar

StartChar: A
Encoding: 65 65 34
Width: 666
VWidth: 2048
Flags: W
HStem: 0 21G<-2 107.664 558.336 668> 214 84<214 452> 696 20G<278.927 387.073>
DStem2: -2 0 100 0 0.374292 0.927311<38.1778 267.314 357.186 357.186 577.406 709.242> 379 716 374 504 0.374292 -0.927311<54.4302 414.939>
LayerCount: 3
Back
SplineSet
-2 0 m 1
 274 716 l 1
 376 716 l 1
 670 0 l 1
 561 0 l 1
 478 218 l 1
 178 218 l 1
 100 0 l 1
 -2 0 l 1
205 294 m 1
 448 294 l 1
 374 492 l 2
 349 558 333 607 322 641 c 1
 314 596 300 550 284 504 c 2
 205 294 l 1
EndSplineSet
Fore
SplineSet
287 716 m 1
 379 716 l 1
 668 0 l 1
 566 0 l 1
 484 214 l 1
 182 214 l 1
 100 0 l 1
 -2 0 l 1
 287 716 l 1
214 298 m 1
 452 298 l 1
 374 504 l 2
 357 550 341 596 333 641 c 1
 325 596 309 550 292 504 c 2
 214 298 l 1
EndSplineSet
Validated: 1
Layer: 2
SplineSet
287 716 m 1,0,-1
 379 716 l 1,1,-1
 668 0 l 1,2,-1
 566 0 l 1,3,-1
 484 214 l 1,4,-1
 182 214 l 1,5,-1
 100 0 l 1,6,-1
 -2 0 l 1,7,-1
 287 716 l 1,0,-1
214 298 m 1,8,-1
 452 298 l 1,9,-1
 374 504 l 2,10,11
 342 591 342 591 333 641 c 1,12,13
 324 591 324 591 292 504 c 2,14,-1
 214 298 l 1,8,-1
EndSplineSet
EndChar

StartChar: B
Encoding: 66 66 35
Width: 666
VWidth: 2048
Flags: W
HStem: 0 84<169 457.175> 331 84<169 437.095> 632 84<169 438.475>
VStem: 74 95<84 331 415 632> 485 95<455.488 591.725> 517 95<134.904 281.506>
LayerCount: 3
Fore
SplineSet
342 716 m 2xf4
 510 716 580 632 580 533 c 0xf8
 580 464 546 414 478 382 c 1
 569 354 612 297 612 207 c 0
 612 69 526 0 346 0 c 2
 74 0 l 1
 74 716 l 1
 342 716 l 2xf4
323 415 m 2
 449 415 485 457 485 521 c 0
 485 619 418 632 311 632 c 2
 169 632 l 1
 169 415 l 1
 323 415 l 2
517 207 m 0xf4
 517 281 480 331 334 331 c 2
 169 331 l 1
 169 84 l 1
 346 84 l 2
 475 84 517 133 517 207 c 0xf4
EndSplineSet
Layer: 2
SplineSet
342 716 m 2,0,1
 461 716 461 716 520.5 664.5 c 128,-1,2
 580 613 580 613 580 533 c 0,3,4
 580 430 580 430 478 382 c 1,5,6
 612 341 612 341 612 207 c 0,7,8
 612 0 612 0 346 0 c 2,9,-1
 74 0 l 1,10,-1
 74 716 l 1,11,-1
 342 716 l 2,0,1
323 415 m 2,12,13
 412 415 412 415 448.5 442 c 128,-1,14
 485 469 485 469 485 521 c 0,15,16
 485 589 485 589 443.5 610.5 c 128,-1,17
 402 632 402 632 311 632 c 2,18,-1
 169 632 l 1,19,-1
 169 415 l 1,20,-1
 323 415 l 2,12,13
517 207 m 0,21,22
 517 268 517 268 477 299.5 c 128,-1,23
 437 331 437 331 334 331 c 2,24,-1
 169 331 l 1,25,-1
 169 84 l 1,26,-1
 346 84 l 2,27,28
 438 84 438 84 477.5 116 c 128,-1,29
 517 148 517 148 517 207 c 0,21,22
EndSplineSet
EndChar

StartChar: C
Encoding: 67 67 36
Width: 721
VWidth: 2048
Flags: W
HStem: -12 84<275.109 480.618> 646 84<279.712 483.296>
VStem: 52 95<222.514 499.89>
LayerCount: 3
Fore
SplineSet
147 364 m 0
 147 192 219 72 379 72 c 0
 492 72 563 130 589 251 c 1
 684 227 l 1
 642 67 543 -12 386 -12 c 0
 170 -12 52 132 52 364 c 0
 52 591 176 730 388 730 c 0
 536 730 630 660 671 521 c 1
 578 499 l 1
 546 599 481 646 386 646 c 0
 226 646 147 537 147 364 c 0
EndSplineSet
Validated: 1
Layer: 2
SplineSet
147 364 m 0,0,1
 147 229 147 229 205 150.5 c 128,-1,2
 263 72 263 72 379 72 c 0,3,4
 551 72 551 72 589 251 c 1,5,-1
 684 227 l 1,6,7
 621 -12 621 -12 386 -12 c 0,8,9
 226 -12 226 -12 139 88 c 128,-1,10
 52 188 52 188 52 364 c 0,11,12
 52 535 52 535 141 632.5 c 128,-1,13
 230 730 230 730 388 730 c 0,14,15
 609 730 609 730 671 521 c 1,16,-1
 578 499 l 1,17,18
 531 646 531 646 386 646 c 0,19,20
 268 646 268 646 207.5 571.5 c 128,-1,21
 147 497 147 497 147 364 c 0,0,1
EndSplineSet
EndChar

StartChar: D
Encoding: 68 68 37
Width: 721
VWidth: 2048
Flags: W
HStem: 0 84<172 449.076> 632 84<172 446.559>
VStem: 77 95<84 632> 573 95<212.695 506.219>
LayerCount: 3
Fore
SplineSet
77 0 m 1
 77 716 l 1
 323 716 l 2
 570 716 668 594 668 362 c 0
 668 121 558 0 336 0 c 2
 77 0 l 1
172 84 m 1
 325 84 l 2
 515 84 573 184 573 363 c 0
 573 544 508 632 322 632 c 2
 172 632 l 1
 172 84 l 1
EndSplineSet
Validated: 1
Layer: 2
SplineSet
77 0 m 1,0,-1
 77 716 l 1,1,-1
 323 716 l 2,2,3
 504 716 504 716 586 628 c 128,-1,4
 668 540 668 540 668 362 c 0,5,6
 668 0 668 0 336 0 c 2,7,-1
 77 0 l 1,0,-1
172 84 m 1,8,-1
 325 84 l 2,9,10
 462 84 462 84 517.5 153 c 128,-1,11
 573 222 573 222 573 363 c 0,12,13
 573 502 573 502 515.5 567 c 128,-1,14
 458 632 458 632 322 632 c 2,15,-1
 172 632 l 1,16,-1
 172 84 l 1,8,-1
EndSplineSet
EndChar

StartChar: E
Encoding: 69 69 38
Width: 666
VWidth: 2048
Flags: W
HStem: 0 84<175 613> 328 84<175 570> 632 84<175 598>
VStem: 80 95<84 328 412 632>
LayerCount: 3
Fore
SplineSet
80 0 m 1
 80 716 l 1
 598 716 l 1
 598 632 l 1
 175 632 l 1
 175 412 l 1
 570 412 l 1
 570 328 l 1
 175 328 l 1
 175 84 l 1
 613 84 l 1
 613 0 l 1
 80 0 l 1
EndSplineSet
Validated: 1
Layer: 2
SplineSet
80 0 m 1,0,-1
 80 716 l 1,1,-1
 598 716 l 1,2,-1
 598 632 l 1,3,-1
 175 632 l 1,4,-1
 175 412 l 1,5,-1
 570 412 l 1,6,-1
 570 328 l 1,7,-1
 175 328 l 1,8,-1
 175 84 l 1,9,-1
 613 84 l 1,10,-1
 613 0 l 1,11,-1
 80 0 l 1,0,-1
EndSplineSet
EndChar

StartChar: F
Encoding: 70 70 39
Width: 610
VWidth: 2048
Flags: W
HStem: 0 21G<83 178> 327 84<178 512> 632 84<178 566>
VStem: 83 95<0 327 411 632>
LayerCount: 3
Fore
SplineSet
83 0 m 1
 83 716 l 1
 566 716 l 1
 566 632 l 1
 178 632 l 1
 178 411 l 1
 512 411 l 1
 512 327 l 1
 178 327 l 1
 178 0 l 1
 83 0 l 1
EndSplineSet
Validated: 1
Layer: 2
SplineSet
83 0 m 1,0,-1
 83 716 l 1,1,-1
 566 716 l 1,2,-1
 566 632 l 1,3,-1
 178 632 l 1,4,-1
 178 411 l 1,5,-1
 512 411 l 1,6,-1
 512 327 l 1,7,-1
 178 327 l 1,8,-1
 178 0 l 1,9,-1
 83 0 l 1,0,-1
EndSplineSet
EndChar

StartChar: G
Encoding: 71 71 40
Width: 777
VWidth: 2048
Flags: W
HStem: -12 84<299.119 534.037> 281 84<412 621> 646 84<297.057 516.279>
VStem: 56 95<229.331 495.868> 619 86<514.128 545.739> 621 95<129.709 281>
LayerCount: 3
Fore
SplineSet
151 361 m 0xf8
 151 181 243 72 414 72 c 0
 497 72 566 98 621 147 c 1
 621 281 l 1
 412 281 l 1
 412 365 l 1
 716 365 l 1
 716 100 l 1xf4
 622 25 523 -12 418 -12 c 0
 128 -12 56 199 56 355 c 0
 56 593 190 730 412 730 c 0
 573 730 671 659 705 516 c 1
 619 493 l 1
 590 597 521 646 412 646 c 0
 290 646 151 591 151 361 c 0xf8
EndSplineSet
Validated: 1
Layer: 2
SplineSet
151 361 m 0,0,1
 151 225 151 225 219 148.5 c 128,-1,2
 287 72 287 72 414 72 c 0,3,4
 537 72 537 72 621 147 c 1,5,-1
 621 281 l 1,6,-1
 412 281 l 1,7,-1
 412 365 l 1,8,-1
 716 365 l 1,9,-1
 716 100 l 1,10,11
 576 -12 576 -12 418 -12 c 0,12,13
 335 -12 335 -12 269.5 11.5 c 128,-1,14
 204 35 204 35 165 72 c 128,-1,15
 126 109 126 109 100.5 159 c 128,-1,16
 75 209 75 209 65.5 256.5 c 128,-1,17
 56 304 56 304 56 355 c 0,18,19
 56 533 56 533 150.5 631.5 c 128,-1,20
 245 730 245 730 412 730 c 0,21,22
 654 730 654 730 705 516 c 1,23,-1
 619 493 l 1,24,25
 576 646 576 646 412 646 c 0,26,27
 362 646 362 646 319 633 c 128,-1,28
 276 620 276 620 236.5 590.5 c 128,-1,29
 197 561 197 561 174 502 c 128,-1,30
 151 443 151 443 151 361 c 0,0,1
EndSplineSet
EndChar

StartChar: H
Encoding: 72 72 41
Width: 721
VWidth: 2048
Flags: W
HStem: 0 21G<80 175 547 642> 338 84<175 547> 696 20G<80 175 547 642>
VStem: 80 95<0 338 422 716> 547 95<0 338 422 716>
LayerCount: 3
Fore
SplineSet
80 0 m 1
 80 716 l 1
 175 716 l 1
 175 422 l 1
 547 422 l 1
 547 716 l 1
 642 716 l 1
 642 0 l 1
 547 0 l 1
 547 338 l 1
 175 338 l 1
 175 0 l 1
 80 0 l 1
EndSplineSet
Validated: 1
Layer: 2
SplineSet
80 0 m 1,0,-1
 80 716 l 1,1,-1
 175 716 l 1,2,-1
 175 422 l 1,3,-1
 547 422 l 1,4,-1
 547 716 l 1,5,-1
 642 716 l 1,6,-1
 642 0 l 1,7,-1
 547 0 l 1,8,-1
 547 338 l 1,9,-1
 175 338 l 1,10,-1
 175 0 l 1,11,-1
 80 0 l 1,0,-1
EndSplineSet
EndChar

StartChar: I
Encoding: 73 73 42
Width: 277
VWidth: 2048
Flags: W
HStem: 0 21G<94 189> 696 20G<94 189>
VStem: 94 95<0 716>
LayerCount: 3
Fore
SplineSet
94 0 m 1
 94 716 l 1
 189 716 l 1
 189 0 l 1
 94 0 l 1
EndSplineSet
Validated: 1
Layer: 2
SplineSet
94 0 m 1,0,-1
 94 716 l 1,1,-1
 189 716 l 1,2,-1
 189 0 l 1,3,-1
 94 0 l 1,0,-1
EndSplineSet
EndChar

StartChar: J
Encoding: 74 74 43
Width: 499
VWidth: 2048
Flags: W
HStem: -12 84<155.505 289.807> 696 20G<325 420>
VStem: 28 84<122.556 204> 325 95<106.369 716>
LayerCount: 3
Fore
SplineSet
219 72 m 0
 318 72 325 139 325 224 c 2
 325 716 l 1
 420 716 l 1
 420 228 l 2
 420 67 354 -12 219 -12 c 0
 84 -12 28 61 28 204 c 1
 112 215 l 1
 116 120 152 72 219 72 c 0
EndSplineSet
Validated: 1
Layer: 2
SplineSet
219 72 m 0,0,1
 255 72 255 72 277 83 c 128,-1,2
 299 94 299 94 309 117.5 c 128,-1,3
 319 141 319 141 322 163.5 c 128,-1,4
 325 186 325 186 325 224 c 2,5,-1
 325 716 l 1,6,-1
 420 716 l 1,7,-1
 420 228 l 2,8,9
 420 -12 420 -12 219 -12 c 0,10,11
 119 -12 119 -12 73.5 41.5 c 128,-1,12
 28 95 28 95 28 204 c 1,13,-1
 112 215 l 1,14,15
 118 72 118 72 219 72 c 0,0,1
EndSplineSet
EndChar

StartChar: K
Encoding: 75 75 44
Width: 666
VWidth: 2048
Flags: W
HStem: 0 21G<74 169 526.856 665> 696 20G<74 169 504.056 651>
VStem: 74 95<0 248 360 716>
DStem2: 169 360 169 248 0.717449 0.696611<0 84.6174 176.552 502.688>
LayerCount: 3
Fore
SplineSet
74 0 m 1
 74 716 l 1
 169 716 l 1
 169 360 l 1
 524 716 l 1
 651 716 l 1
 351 426 l 1
 665 0 l 1
 541 0 l 1
 285 362 l 1
 169 248 l 1
 169 0 l 1
 74 0 l 1
EndSplineSet
Validated: 1
Layer: 2
SplineSet
74 0 m 1,0,-1
 74 716 l 1,1,-1
 169 716 l 1,2,-1
 169 360 l 1,3,-1
 524 716 l 1,4,-1
 651 716 l 1,5,-1
 351 426 l 1,6,-1
 665 0 l 1,7,-1
 541 0 l 1,8,-1
 285 362 l 1,9,-1
 169 248 l 1,10,-1
 169 0 l 1,11,-1
 74 0 l 1,0,-1
EndSplineSet
EndChar

StartChar: L
Encoding: 76 76 45
Width: 556
VWidth: 2048
Flags: W
HStem: 0 84<169 521> 696 20G<74 169>
VStem: 74 95<84 716>
LayerCount: 3
Fore
SplineSet
74 0 m 1
 74 716 l 1
 169 716 l 1
 169 84 l 1
 521 84 l 1
 521 0 l 1
 74 0 l 1
EndSplineSet
Validated: 1
Layer: 2
SplineSet
74 0 m 1,0,-1
 74 716 l 1,1,-1
 169 716 l 1,2,-1
 169 84 l 1,3,-1
 521 84 l 1,4,-1
 521 0 l 1,5,-1
 74 0 l 1,0,-1
EndSplineSet
EndChar

StartChar: M
Encoding: 77 77 46
Width: 832
VWidth: 2048
Flags: W
HStem: 0 21G<75 170 366.289 465.711 662 757> 696 20G<75 228.521 603.479 757>
VStem: 75 95<0 605> 662 95<0 605>
DStem2: 222 716 170 605 0.318108 -0.948055<88.6925 625.805> 416 121 459 0 0.318108 0.948055<0 537.113>
LayerCount: 3
Back
SplineSet
74 0 m 1
 74 716 l 1
 218 716 l 5
 420 103 l 1
 630 716 l 1
 757 716 l 1
 757 0 l 1
 667 0 l 1
 667 599 l 1
 458 0 l 1
 372 0 l 1
 166 610 l 5
 166 0 l 5
 74 0 l 1
EndSplineSet
Fore
SplineSet
75 0 m 1
 75 716 l 1
 222 716 l 1
 416 121 l 1
 610 716 l 1
 757 716 l 1
 757 0 l 1
 662 0 l 1
 662 605 l 1
 459 0 l 1
 373 0 l 1
 170 605 l 1
 170 0 l 1
 75 0 l 1
EndSplineSet
Validated: 1
Layer: 2
SplineSet
75 0 m 1,0,-1
 75 716 l 1,1,-1
 222 716 l 1,2,-1
 416 121 l 1,3,-1
 610 716 l 1,4,-1
 757 716 l 1,5,-1
 757 0 l 1,6,-1
 662 0 l 1,7,-1
 662 605 l 1,8,-1
 459 0 l 1,9,-1
 373 0 l 1,10,-1
 170 605 l 1,11,-1
 170 0 l 1,12,-1
 75 0 l 1,0,-1
EndSplineSet
EndChar

StartChar: N
Encoding: 78 78 47
Width: 721
VWidth: 2048
Flags: W
HStem: 0 21G<77 172 526.927 641> 696 20G<77 191.119 546 641>
VStem: 77 95<0 563> 546 95<155 716>
DStem2: 178 716 172 563 0.547129 -0.837048<124.786 670.928>
LayerCount: 3
Fore
SplineSet
77 0 m 1
 77 716 l 1
 178 716 l 1
 546 155 l 1
 546 716 l 1
 641 716 l 1
 641 0 l 1
 540 0 l 1
 172 563 l 1
 172 0 l 1
 77 0 l 1
EndSplineSet
Validated: 1
Layer: 2
SplineSet
77 0 m 1,0,-1
 77 716 l 1,1,-1
 178 716 l 1,2,-1
 546 155 l 1,3,-1
 546 716 l 1,4,-1
 641 716 l 1,5,-1
 641 0 l 1,6,-1
 540 0 l 1,7,-1
 172 563 l 1,8,-1
 172 0 l 1,9,-1
 77 0 l 1,0,-1
EndSplineSet
EndChar

StartChar: O
Encoding: 79 79 48
Width: 777
VWidth: 2048
Flags: W
HStem: -12 84<287.755 492.245> 646 84<282.481 497.519>
VStem: 49 95<229.268 492.921> 636 95<229.268 492.921>
LayerCount: 3
Back
SplineSet
390 -12 m 0
 181 -12 49 146 49 349 c 0
 49 570 166 730 390 730 c 0
 565 730 731 609 731 357 c 0
 731 62 521 -12 390 -12 c 0
390 646 m 0
 193 646 144 490 144 349 c 0
 144 191 235 72 390 72 c 0
 547 72 636 193 636 357 c 0
 636 587 495 646 390 646 c 0
EndSplineSet
Fore
SplineSet
390 730 m 0
 614 730 731 570 731 349 c 0
 731 146 599 -12 390 -12 c 0
 181 -12 49 146 49 349 c 0
 49 570 166 730 390 730 c 0
390 72 m 0
 545 72 636 191 636 349 c 0
 636 490 587 646 390 646 c 0
 193 646 144 490 144 349 c 0
 144 191 235 72 390 72 c 0
EndSplineSet
Validated: 1
Layer: 2
SplineSet
390 730 m 128,-1,1
 553 730 553 730 642 625 c 128,-1,2
 731 520 731 520 731 349 c 0,3,4
 731 193 731 193 637.5 90.5 c 128,-1,5
 544 -12 544 -12 390 -12 c 128,-1,6
 236 -12 236 -12 142.5 90.5 c 128,-1,7
 49 193 49 193 49 349 c 0,8,9
 49 520 49 520 138 625 c 128,-1,0
 227 730 227 730 390 730 c 128,-1,1
390 72 m 128,-1,11
 504 72 504 72 570 149.5 c 128,-1,12
 636 227 636 227 636 349 c 0,13,14
 636 407 636 407 624.5 456 c 128,-1,15
 613 505 613 505 587 549.5 c 128,-1,16
 561 594 561 594 511 620 c 128,-1,17
 461 646 461 646 390 646 c 128,-1,18
 319 646 319 646 269 620 c 128,-1,19
 219 594 219 594 193 549.5 c 128,-1,20
 167 505 167 505 155.5 456 c 128,-1,21
 144 407 144 407 144 349 c 0,22,23
 144 227 144 227 210 149.5 c 128,-1,10
 276 72 276 72 390 72 c 128,-1,11
EndSplineSet
EndChar

StartChar: P
Encoding: 80 80 49
Width: 666
VWidth: 2048
Flags: W
HStem: 0 21G<77 172> 292 84<172 466.134> 632 84<172 476.302>
VStem: 77 95<0 292 376 632> 526 95<429.022 584.916>
LayerCount: 3
Fore
SplineSet
77 0 m 1
 77 716 l 1
 348 716 l 2
 522 716 621 661 621 509 c 0
 621 363 535 292 356 292 c 2
 172 292 l 1
 172 0 l 1
 77 0 l 1
526 506 m 0
 526 607 465 632 356 632 c 2
 172 632 l 1
 172 376 l 1
 357 376 l 2
 469 376 526 418 526 506 c 0
EndSplineSet
Validated: 1
Layer: 2
SplineSet
77 0 m 1,0,-1
 77 716 l 1,1,-1
 348 716 l 2,2,3
 484 716 484 716 552.5 667.5 c 128,-1,4
 621 619 621 619 621 509 c 0,5,6
 621 292 621 292 356 292 c 2,7,-1
 172 292 l 1,8,-1
 172 0 l 1,9,-1
 77 0 l 1,0,-1
526 506 m 0,10,11
 526 578 526 578 484.5 605 c 128,-1,12
 443 632 443 632 356 632 c 2,13,-1
 172 632 l 1,14,-1
 172 376 l 1,15,-1
 357 376 l 2,16,17
 526 376 526 376 526 506 c 0,10,11
EndSplineSet
EndChar

StartChar: Q
Encoding: 81 81 50
Width: 777
VWidth: 2048
Flags: W
HStem: -12 84<282.566 479.131> 646 84<280.369 489.669>
VStem: 43 95<230.243 493.722> 633 95<227.622 488.07>
LayerCount: 3
Fore
SplineSet
43 359 m 0
 43 583 174 730 386 730 c 0
 600 730 728 589 728 359 c 0
 728 241 691 146 619 77 c 1
 664 46 705 25 742 11 c 1
 714 -55 l 1
 662 -37 612 -8 559 32 c 1
 507 3 448 -12 383 -12 c 0
 180 -12 43 134 43 359 c 0
138 359 m 0
 138 186 228 72 386 72 c 0
 420 72 452 75 481 89 c 1
 452 107 422 121 388 129 c 1
 412 198 l 1
 466 182 510 159 546 129 c 1
 602 181 633 256 633 359 c 0
 633 529 543 646 386 646 c 0
 232 646 138 540 138 359 c 0
EndSplineSet
Validated: 1
Layer: 2
SplineSet
43 359 m 0,0,1
 43 528 43 528 135.5 629 c 128,-1,2
 228 730 228 730 386 730 c 0,3,4
 546 730 546 730 637 631 c 128,-1,5
 728 532 728 532 728 359 c 0,6,7
 728 181 728 181 619 77 c 1,8,9
 682 34 682 34 742 11 c 1,10,-1
 714 -55 l 1,11,12
 641 -30 641 -30 559 32 c 1,13,14
 480 -12 480 -12 383 -12 c 0,15,16
 230 -12 230 -12 136.5 89.5 c 128,-1,17
 43 191 43 191 43 359 c 0,0,1
138 359 m 0,18,19
 138 227 138 227 203.5 149.5 c 128,-1,20
 269 72 269 72 386 72 c 0,21,22
 446 72 446 72 481 89 c 1,23,24
 434 118 434 118 388 129 c 1,25,-1
 412 198 l 1,26,27
 491 174 491 174 546 129 c 1,28,29
 633 210 633 210 633 359 c 0,30,31
 633 489 633 489 567.5 567.5 c 128,-1,32
 502 646 502 646 386 646 c 256,33,34
 270 646 270 646 204 570 c 128,-1,35
 138 494 138 494 138 359 c 0,18,19
EndSplineSet
EndChar

StartChar: R
Encoding: 82 82 51
Width: 721
VWidth: 2048
Flags: W
HStem: 0 21G<78 173 577.517 710> 316 84<173 371.308> 632 84<173 502.311>
VStem: 78 95<0 316 400 632> 556 95<450.637 586.471>
DStem2: 586 195 497 149 0.536595 -0.84384<-137.176 166.695>
LayerCount: 3
Fore
SplineSet
78 0 m 1
 78 716 l 1
 395 716 l 2
 569 716 651 670 651 518 c 0
 651 406 584 343 449 325 c 1
 498 305 543 261 586 195 c 2
 710 0 l 1
 590 0 l 1
 497 149 l 2
 441 238 395 316 284 316 c 2
 173 316 l 1
 173 0 l 1
 78 0 l 1
173 400 m 1
 377 400 l 2
 495 400 556 437 556 518 c 0
 556 595 503 632 400 632 c 2
 173 632 l 1
 173 400 l 1
EndSplineSet
Validated: 1
Layer: 2
SplineSet
78 0 m 1,0,-1
 78 716 l 1,1,-1
 395 716 l 2,2,3
 530 716 530 716 590.5 672.5 c 128,-1,4
 651 629 651 629 651 518 c 0,5,6
 651 352 651 352 449 325 c 1,7,8
 520 296 520 296 586 195 c 2,9,-1
 710 0 l 1,10,-1
 590 0 l 1,11,-1
 497 149 l 2,12,13
 473 187 473 187 463 202 c 128,-1,14
 453 217 453 217 430.5 245 c 128,-1,15
 408 273 408 273 390 284.5 c 128,-1,16
 372 296 372 296 344 306 c 128,-1,17
 316 316 316 316 284 316 c 2,18,-1
 173 316 l 1,19,-1
 173 0 l 1,20,-1
 78 0 l 1,0,-1
173 400 m 1,21,-1
 377 400 l 2,22,23
 556 400 556 400 556 518 c 0,24,25
 556 632 556 632 400 632 c 2,26,-1
 173 632 l 1,27,-1
 173 400 l 1,21,-1
EndSplineSet
EndChar

StartChar: S
Encoding: 83 83 52
Width: 666
VWidth: 2048
Flags: W
HStem: -12 84<232.839 451.084> 644 84<214.463 430.938>
VStem: 44 91<166.515 230.615> 72 95<480.382 599.689> 503 90<513 575.161> 520 95<130.53 255.28>
LayerCount: 3
Fore
SplineSet
615 202 m 0xd4
 615 68 501 -12 351 -12 c 0
 169 -12 54 68 44 230 c 1
 135 238 l 1
 149 127 219 72 346 72 c 0
 416 72 520 97 520 195 c 0xe4
 520 277 456 294 305 331 c 0
 151 369 72 423 72 532 c 0
 72 663 185 728 323 728 c 0
 480 728 587 657 593 513 c 1
 503 507 l 1xd8
 494 599 435 644 328 644 c 0
 219 644 167 609 167 538 c 0
 167 469 223 450 334 423 c 0
 433 399 615 372 615 202 c 0xd4
EndSplineSet
Validated: 1
Layer: 2
SplineSet
615 202 m 0,0,1
 615 104 615 104 540.5 46 c 128,-1,2
 466 -12 466 -12 351 -12 c 0,3,4
 212 -12 212 -12 131.5 49.5 c 128,-1,5
 51 111 51 111 44 230 c 1,6,-1
 135 238 l 1,7,8
 156 72 156 72 346 72 c 0,9,10
 387 72 387 72 423 81.5 c 128,-1,11
 459 91 459 91 489.5 120 c 128,-1,12
 520 149 520 149 520 195 c 0,13,14
 520 252 520 252 476.5 276 c 128,-1,15
 433 300 433 300 305 331 c 0,16,17
 185 361 185 361 128.5 407 c 128,-1,18
 72 453 72 453 72 532 c 0,19,20
 72 626 72 626 143 677 c 128,-1,21
 214 728 214 728 323 728 c 0,22,23
 444 728 444 728 516.5 673 c 128,-1,24
 589 618 589 618 593 513 c 1,25,-1
 503 507 l 1,26,27
 490 644 490 644 328 644 c 0,28,29
 167 644 167 644 167 538 c 0,30,31
 167 490 167 490 204 468 c 128,-1,32
 241 446 241 446 334 423 c 0,33,34
 341 421 341 421 365.5 415.5 c 128,-1,35
 390 410 390 410 401.5 407 c 128,-1,36
 413 404 413 404 438 397 c 128,-1,37
 463 390 463 390 476.5 384 c 128,-1,38
 490 378 490 378 511.5 367.5 c 128,-1,39
 533 357 533 357 545 346.5 c 128,-1,40
 557 336 557 336 572.5 320.5 c 128,-1,41
 588 305 588 305 596 288 c 128,-1,42
 604 271 604 271 609.5 249 c 128,-1,43
 615 227 615 227 615 202 c 0,0,1
EndSplineSet
EndChar

StartChar: T
Encoding: 84 84 53
Width: 610
VWidth: 2048
Flags: W
HStem: 0 21G<259 354> 632 84<23 259 354 592>
VStem: 259 95<0 632>
LayerCount: 3
Fore
SplineSet
259 0 m 1
 259 632 l 1
 23 632 l 1
 23 716 l 1
 592 716 l 1
 592 632 l 1
 354 632 l 1
 354 0 l 1
 259 0 l 1
EndSplineSet
Validated: 1
Layer: 2
SplineSet
259 0 m 1,0,-1
 259 632 l 1,1,-1
 23 632 l 1,2,-1
 23 716 l 1,3,-1
 592 716 l 1,4,-1
 592 632 l 1,5,-1
 354 632 l 1,6,-1
 354 0 l 1,7,-1
 259 0 l 1,0,-1
EndSplineSet
EndChar

StartChar: U
Encoding: 85 85 54
Width: 721
VWidth: 2048
Flags: W
HStem: -12 84<256.853 461.509> 696 20G<78 173 547 642>
VStem: 78 95<164.432 716> 547 95<161.391 716>
LayerCount: 3
Fore
SplineSet
354 72 m 0
 528 72 547 176 547 303 c 2
 547 716 l 1
 642 716 l 1
 642 302 l 2
 642 85 558 -12 362 -12 c 0
 156 -12 78 85 78 302 c 2
 78 716 l 1
 173 716 l 1
 173 303 l 2
 173 154 215 72 354 72 c 0
EndSplineSet
Validated: 1
Layer: 2
SplineSet
354 72 m 0,0,1
 405 72 405 72 441 84.5 c 128,-1,2
 477 97 477 97 497.5 116 c 128,-1,3
 518 135 518 135 529.5 167 c 128,-1,4
 541 199 541 199 544 229.5 c 128,-1,5
 547 260 547 260 547 303 c 2,6,-1
 547 716 l 1,7,-1
 642 716 l 1,8,-1
 642 302 l 2,9,10
 642 139 642 139 575.5 63.5 c 128,-1,11
 509 -12 509 -12 362 -12 c 0,12,13
 209 -12 209 -12 143.5 62.5 c 128,-1,14
 78 137 78 137 78 302 c 2,15,-1
 78 716 l 1,16,-1
 173 716 l 1,17,-1
 173 303 l 2,18,19
 173 185 173 185 213.5 128.5 c 128,-1,20
 254 72 254 72 354 72 c 0,0,1
EndSplineSet
EndChar

StartChar: V
Encoding: 86 86 55
Width: 666
VWidth: 2048
Flags: W
HStem: 0 21G<274.263 387.793> 696 20G<5 114.226 555.516 659>
DStem2: 331 96 380 0 0.363074 0.93176<0 661.925>
LayerCount: 3
Fore
SplineSet
282 0 m 1
 5 716 l 1
 107 716 l 1
 331 96 l 1
 563 716 l 1
 659 716 l 1
 380 0 l 1
 282 0 l 1
EndSplineSet
Validated: 1
Layer: 2
SplineSet
282 0 m 1,0,-1
 5 716 l 1,1,-1
 107 716 l 1,2,-1
 331 96 l 1,3,-1
 563 716 l 1,4,-1
 659 716 l 1,5,-1
 380 0 l 1,6,-1
 282 0 l 1,0,-1
EndSplineSet
EndChar

StartChar: W
Encoding: 87 87 56
Width: 944
VWidth: 2048
Flags: W
HStem: 0 21G<196.693 304.492 639.508 741.503> 696 20G<12 113.829 411.281 537.411 832.932 933>
DStem2: 250 132 299 0 0.264801 0.964303<0 539.009> 532 716 472 630 0.264801 -0.964303<67.042 604.992> 690 132 736 0 0.265282 0.964171<0 602.338>
LayerCount: 3
Fore
SplineSet
202 0 m 1
 12 716 l 1
 109 716 l 1
 250 132 l 1
 417 716 l 1
 532 716 l 1
 690 132 l 1
 838 716 l 1
 933 716 l 1
 736 0 l 1
 645 0 l 1
 472 630 l 1
 299 0 l 1
 202 0 l 1
EndSplineSet
Validated: 1
Layer: 2
SplineSet
202 0 m 1,0,-1
 12 716 l 1,1,-1
 109 716 l 1,2,-1
 250 132 l 1,3,-1
 417 716 l 1,4,-1
 532 716 l 1,5,-1
 690 132 l 1,6,-1
 838 716 l 1,7,-1
 933 716 l 1,8,-1
 736 0 l 1,9,-1
 645 0 l 1,10,-1
 472 630 l 1,11,-1
 299 0 l 1,12,-1
 202 0 l 1,0,-1
EndSplineSet
EndChar

StartChar: X
Encoding: 88 88 57
Width: 666
VWidth: 2048
Flags: W
HStem: 0 21G<5 132.43 529.839 661> 696 20G<37 164.007 507 641>
DStem2: 5 0 118 0 0.597128 0.802146<67.4755 434.897 558.41 746.816 762.327 892.606> 150 716 37 716 0.580916 -0.813964<0 325.96 446.544 811.679>
LayerCount: 3
Fore
SplineSet
5 0 m 1
 282 374 l 1
 37 716 l 1
 150 716 l 1
 337 449 l 1
 337 449 476 632 538 716 c 1
 641 716 l 1
 389 379 l 1
 661 0 l 1
 544 0 l 1
 333 298 l 1
 118 0 l 1
 5 0 l 1
EndSplineSet
Validated: 1
Layer: 2
SplineSet
5 0 m 1,0,-1
 282 374 l 1,1,-1
 37 716 l 1,2,-1
 150 716 l 1,3,-1
 337 449 l 1,4,5
 476 632 476 632 538 716 c 1,6,-1
 641 716 l 1,7,-1
 389 379 l 1,8,-1
 661 0 l 1,9,-1
 544 0 l 1,10,-1
 333 298 l 1,11,-1
 118 0 l 1,12,-1
 5 0 l 1,0,-1
EndSplineSet
EndChar

StartChar: Y
Encoding: 89 89 58
Width: 666
VWidth: 2048
Flags: W
HStem: 0 21G<279 374> 696 20G<3 131.15 535.789 659>
VStem: 279 95<0 303>
DStem2: 118 716 3 716 0.555629 -0.83143<0 391.338> 333 389 374 303 0.567966 0.823052<0 391.819>
LayerCount: 3
Fore
SplineSet
279 0 m 1
 279 303 l 1
 3 716 l 1
 118 716 l 1
 333 389 l 1
 549 716 l 1
 659 716 l 1
 374 303 l 1
 374 0 l 1
 279 0 l 1
EndSplineSet
Validated: 1
Layer: 2
SplineSet
279 0 m 1,0,-1
 279 303 l 1,1,-1
 3 716 l 1,2,-1
 118 716 l 1,3,-1
 333 389 l 1,4,-1
 549 716 l 1,5,-1
 659 716 l 1,6,-1
 374 303 l 1,7,-1
 374 0 l 1,8,-1
 279 0 l 1,0,-1
EndSplineSet
EndChar

StartChar: Z
Encoding: 90 90 59
Width: 610
VWidth: 2048
Flags: W
HStem: 0 84<129 586> 632 84<61 455>
DStem2: 20 89 129 84 0.631232 0.775594<64.9263 695.734>
LayerCount: 3
Fore
SplineSet
20 0 m 1
 20 89 l 1
 455 632 l 1
 61 632 l 1
 61 716 l 1
 575 716 l 1
 575 632 l 1
 129 84 l 1
 586 84 l 1
 586 0 l 1
 20 0 l 1
EndSplineSet
Validated: 1
Layer: 2
SplineSet
20 0 m 1,0,-1
 20 89 l 1,1,-1
 455 632 l 1,2,-1
 61 632 l 1,3,-1
 61 716 l 1,4,-1
 575 716 l 1,5,-1
 575 632 l 1,6,-1
 129 84 l 1,7,-1
 586 84 l 1,8,-1
 586 0 l 1,9,-1
 20 0 l 1,0,-1
EndSplineSet
EndChar

StartChar: bracketleft
Encoding: 91 91 60
Width: 277
VWidth: 2048
Flags: W
HStem: -199 72<156 262> 644 72<156 262>
VStem: 67 195<-199 -127 644 716> 67 89<-127 644>
LayerCount: 3
Fore
SplineSet
67 -199 m 1xe0
 67 716 l 1
 262 716 l 1
 262 644 l 1xe0
 156 644 l 1
 156 -127 l 1xd0
 262 -127 l 1
 262 -199 l 1
 67 -199 l 1xe0
EndSplineSet
Validated: 1
Layer: 2
SplineSet
67 -199 m 1,0,-1
 67 716 l 1,1,-1
 262 716 l 1,2,-1
 262 644 l 1,3,-1
 156 644 l 1,4,-1
 156 -127 l 1,5,-1
 262 -127 l 1,6,-1
 262 -199 l 1,7,-1
 67 -199 l 1,0,-1
EndSplineSet
EndChar

StartChar: backslash
Encoding: 92 92 61
Width: 277
VWidth: 2048
Flags: W
HStem: -12 21G<201.405 277> 708 20G<0 76.5676>
VStem: 0 277
DStem2: 71 728 0 728 0.269389 -0.963032<0 749.28>
LayerCount: 3
Fore
SplineSet
207 -12 m 1
 0 728 l 1
 71 728 l 1
 277 -12 l 1
 207 -12 l 1
EndSplineSet
Validated: 1
Layer: 2
SplineSet
207 -12 m 1,0,-1
 0 728 l 1,1,-1
 71 728 l 1,2,-1
 277 -12 l 1,3,-1
 207 -12 l 1,0,-1
EndSplineSet
EndChar

StartChar: bracketright
Encoding: 93 93 62
Width: 277
VWidth: 2048
Flags: W
HStem: -199 72<18 126> 644 72<18 126>
VStem: 18 195<-199 -127 644 716> 126 87<-127 644>
LayerCount: 3
Fore
SplineSet
213 -199 m 1xe0
 18 -199 l 1
 18 -127 l 1xe0
 126 -127 l 1
 126 644 l 1xd0
 18 644 l 1
 18 716 l 1
 213 716 l 1
 213 -199 l 1xe0
EndSplineSet
Validated: 1
Layer: 2
SplineSet
213 -199 m 1,0,-1
 18 -199 l 1,1,-1
 18 -127 l 1,2,-1
 126 -127 l 1,3,-1
 126 644 l 1,4,-1
 18 644 l 1,5,-1
 18 716 l 1,6,-1
 213 716 l 1,7,-1
 213 -199 l 1,0,-1
EndSplineSet
EndChar

StartChar: asciicircum
Encoding: 94 94 63
Width: 469
VWidth: 2048
Flags: W
HStem: 708 20G<190.151 278.849>
DStem2: 26 337 116 337 0.404619 0.914485<36.4157 350.681>
LayerCount: 3
Fore
SplineSet
116 337 m 1
 26 337 l 1
 199 728 l 1
 270 728 l 1
 443 337 l 1
 354 337 l 1
 235 628 l 1
 116 337 l 1
EndSplineSet
Validated: 1
Layer: 2
SplineSet
116 337 m 1,0,-1
 26 337 l 1,1,-1
 199 728 l 1,2,-1
 270 728 l 1,3,-1
 443 337 l 1,4,-1
 354 337 l 1,5,-1
 235 628 l 1,6,-1
 116 337 l 1,0,-1
EndSplineSet
EndChar

StartChar: underscore
Encoding: 95 95 64
Width: 556
VWidth: 2048
Flags: W
HStem: -199 64<-15 569>
LayerCount: 3
Fore
SplineSet
-15 -199 m 1
 -15 -135 l 1
 569 -135 l 1
 569 -199 l 1
 -15 -199 l 1
EndSplineSet
Validated: 1
Layer: 2
SplineSet
-15 -199 m 1,0,-1
 -15 -135 l 1,1,-1
 569 -135 l 1,2,-1
 569 -199 l 1,3,-1
 -15 -199 l 1,0,-1
EndSplineSet
EndChar

StartChar: grave
Encoding: 96 96 65
Width: 332
VWidth: 2048
Flags: W
HStem: 582 138<156 161>
VStem: 43 184
LayerCount: 3
Fore
SplineSet
227 582 m 1
 156 582 l 1
 43 720 l 1
 161 720 l 1
 227 582 l 1
EndSplineSet
Validated: 1
Layer: 2
SplineSet
227 582 m 1,0,-1
 156 582 l 1,1,-1
 43 720 l 1,2,-1
 161 720 l 1,3,-1
 227 582 l 1,0,-1
EndSplineSet
EndChar

StartChar: a
Encoding: 97 97 66
Width: 556
VWidth: 2048
Flags: W
HStem: -12 72<150.63 316.572> 0 21G<418 513> 259 72<318.649 397> 458 72<184.225 360.174>
VStem: 35 89<86.2409 186.282> 52 84<370 408.266> 397 89<130.398 259 325.062 422.12>
LayerCount: 3
Fore
SplineSet
273 458 m 0xba
 184 458 156 427 136 359 c 1
 52 371 l 1
 74 477 152 530 285 530 c 0
 424 530 486 494 486 334 c 2
 486 106 l 2
 486 69 495 34 513 0 c 1
 422 0 l 1x76
 414 18 408 40 405 64 c 1
 345 14 281 -12 213 -12 c 0
 113 -12 35 41 35 136 c 0
 35 192 62 233 110 264 c 0
 169 302 299 297 397 331 c 1
 397 353 l 2
 397 423 356 458 273 458 c 0xba
235 60 m 0xba
 365 60 397 142 397 228 c 2
 397 259 l 1
 299 218 124 238 124 139 c 0
 124 84 166 60 235 60 c 0xba
EndSplineSet
Validated: 1
Layer: 2
SplineSet
273 458 m 0,0,1
 209 458 209 458 180.5 435.5 c 128,-1,2
 152 413 152 413 136 359 c 1,3,-1
 52 371 l 1,4,5
 85 530 85 530 285 530 c 0,6,7
 395 530 395 530 440.5 489.5 c 128,-1,8
 486 449 486 449 486 334 c 2,9,-1
 486 106 l 2,10,11
 486 51 486 51 513 0 c 1,12,-1
 422 0 l 1,13,14
 409 28 409 28 405 64 c 1,15,16
 314 -12 314 -12 213 -12 c 0,17,18
 135 -12 135 -12 85 27.5 c 128,-1,19
 35 67 35 67 35 136 c 0,20,21
 35 216 35 216 110 264 c 0,22,23
 142 285 142 285 248 300.5 c 128,-1,24
 354 316 354 316 397 331 c 1,25,-1
 397 353 l 2,26,27
 397 458 397 458 273 458 c 0,0,1
235 60 m 0,28,29
 397 60 397 60 397 228 c 2,30,-1
 397 259 l 1,31,32
 364 245 364 245 287.5 233.5 c 128,-1,33
 211 222 211 222 167.5 202.5 c 128,-1,34
 124 183 124 183 124 139 c 0,35,36
 124 60 124 60 235 60 c 0,28,29
EndSplineSet
EndChar

StartChar: b
Encoding: 98 98 67
Width: 556
VWidth: 2048
Flags: W
HStem: -12 72<215.936 353.849> 0 21G<64 153> 458 72<218.866 360.213> 696 20G<64 153>
VStem: 64 89<0 64 136.092 380.871 461 716> 426 89<148.907 377.267>
LayerCount: 3
Fore
SplineSet
515 267 m 0x7c
 515 108 434 -12 291 -12 c 0xbc
 230 -12 187 14 153 64 c 1
 153 0 l 1
 64 0 l 1
 64 716 l 1
 153 716 l 1
 153 461 l 1
 190 507 238 530 296 530 c 0
 431 530 515 427 515 267 c 0x7c
288 458 m 0
 196 458 153 373 153 264 c 0
 153 92 229 60 284 60 c 0
 398 60 426 186 426 259 c 0
 426 362 391 458 288 458 c 0
EndSplineSet
Validated: 1
Layer: 2
SplineSet
515 267 m 0,0,1
 515 144 515 144 455.5 66 c 128,-1,2
 396 -12 396 -12 291 -12 c 0,3,4
 205 -12 205 -12 153 64 c 1,5,-1
 153 0 l 1,6,-1
 64 0 l 1,7,-1
 64 716 l 1,8,-1
 153 716 l 1,9,-1
 153 461 l 1,10,11
 208 530 208 530 296 530 c 0,12,13
 397 530 397 530 456 458.5 c 128,-1,14
 515 387 515 387 515 267 c 0,0,1
288 458 m 0,15,16
 222 458 222 458 187.5 404 c 128,-1,17
 153 350 153 350 153 264 c 0,18,19
 153 149 153 149 192 104.5 c 128,-1,20
 231 60 231 60 284 60 c 0,21,22
 324 60 324 60 353.5 80 c 128,-1,23
 383 100 383 100 398 132.5 c 128,-1,24
 413 165 413 165 419.5 196.5 c 128,-1,25
 426 228 426 228 426 259 c 0,26,27
 426 345 426 345 393 401.5 c 128,-1,28
 360 458 360 458 288 458 c 0,15,16
EndSplineSet
EndChar

StartChar: c
Encoding: 99 99 68
Width: 499
VWidth: 2048
Flags: W
HStem: -12 72<195.548 349.192> 458 72<197.919 350.052>
VStem: 38 89<139.903 379.542> 397 86<364.942 408.371> 405 85<124.055 179.906>
LayerCount: 3
Fore
SplineSet
38 258 m 0xe8
 38 476 171 530 276 530 c 0
 392 530 461 477 483 366 c 1
 397 353 l 1xf0
 382 423 342 458 279 458 c 0
 179 458 127 392 127 259 c 0
 127 127 178 60 274 60 c 0
 349 60 392 104 405 190 c 1
 490 179 l 1
 472 66 397 -12 276 -12 c 0
 122 -12 38 97 38 258 c 0xe8
EndSplineSet
Validated: 1
Layer: 2
SplineSet
38 258 m 0,0,1
 38 336 38 336 60 392 c 128,-1,2
 82 448 82 448 118.5 476.5 c 128,-1,3
 155 505 155 505 194 517.5 c 128,-1,4
 233 530 233 530 276 530 c 0,5,6
 450 530 450 530 483 366 c 1,7,-1
 397 353 l 1,8,9
 375 458 375 458 279 458 c 0,10,11
 127 458 127 458 127 259 c 128,-1,12
 127 60 127 60 274 60 c 0,13,14
 385 60 385 60 405 190 c 1,15,-1
 490 179 l 1,16,17
 476 92 476 92 420.5 40 c 128,-1,18
 365 -12 365 -12 276 -12 c 0,19,20
 163 -12 163 -12 100.5 61.5 c 128,-1,21
 38 135 38 135 38 258 c 0,0,1
EndSplineSet
EndChar

StartChar: d
Encoding: 100 100 69
Width: 556
VWidth: 2048
Flags: W
HStem: -12 72<195.636 335.306> 0 21G<397 486> 458 72<187.776 331.908> 696 20G<397 486>
VStem: 34 89<144.438 384.044> 397 89<0 64 135.072 379.735 460 716>
LayerCount: 3
Fore
SplineSet
258 -12 m 0xbc
 117 -12 34 106 34 259 c 0
 34 412 104 530 254 530 c 0
 314 530 362 507 397 460 c 1
 397 716 l 1
 486 716 l 1
 486 0 l 1
 397 0 l 1x7c
 397 64 l 1
 363 14 322 -12 258 -12 c 0xbc
397 251 m 0
 397 339 376 458 262 458 c 0
 170 458 123 392 123 259 c 0
 123 101 208 60 265 60 c 0xbc
 377 60 397 177 397 251 c 0
EndSplineSet
Validated: 1
Layer: 2
SplineSet
258 -12 m 0,0,1
 155 -12 155 -12 94.5 64.5 c 128,-1,2
 34 141 34 141 34 259 c 0,3,4
 34 380 34 380 90 455 c 128,-1,5
 146 530 146 530 254 530 c 0,6,7
 345 530 345 530 397 460 c 1,8,-1
 397 716 l 1,9,-1
 486 716 l 1,10,-1
 486 0 l 1,11,-1
 397 0 l 1,12,-1
 397 64 l 1,13,14
 345 -12 345 -12 258 -12 c 0,0,1
397 251 m 0,15,16
 397 289 397 289 391.5 321.5 c 128,-1,17
 386 354 386 354 372.5 387 c 128,-1,18
 359 420 359 420 331 439 c 128,-1,19
 303 458 303 458 262 458 c 0,20,21
 123 458 123 458 123 259 c 0,22,23
 123 153 123 153 167 106.5 c 128,-1,24
 211 60 211 60 265 60 c 0,25,26
 305 60 305 60 332.5 78.5 c 128,-1,27
 360 97 360 97 373 128.5 c 128,-1,28
 386 160 386 160 391.5 189.5 c 128,-1,29
 397 219 397 219 397 251 c 0,15,16
EndSplineSet
EndChar

StartChar: e
Encoding: 101 101 70
Width: 556
VWidth: 2048
Flags: W
HStem: -12 72<204.486 358.379> 238 72<132 422> 458 72<203.501 358.994>
VStem: 37 90<147.844 238 310 374.208>
LayerCount: 3
Fore
SplineSet
127 238 m 1
 133 134 186 60 285 60 c 0
 351 60 395 97 422 167 c 1
 512 156 l 1
 481 44 406 -12 284 -12 c 0
 128 -12 37 84 37 256 c 0
 37 420 123 530 279 530 c 0
 419 530 502 439 513 296 c 1
 513 238 l 1
 127 238 l 1
132 310 m 1
 422 310 l 1
 414 408 366 458 281 458 c 0
 192 458 138 393 132 310 c 1
EndSplineSet
Validated: 1
Layer: 2
SplineSet
127 238 m 1,0,1
 132 157 132 157 172.5 108.5 c 128,-1,2
 213 60 213 60 285 60 c 0,3,4
 381 60 381 60 422 167 c 1,5,-1
 512 156 l 1,6,7
 466 -12 466 -12 284 -12 c 0,8,9
 167 -12 167 -12 102 57.5 c 128,-1,10
 37 127 37 127 37 256 c 0,11,12
 37 381 37 381 100.5 455.5 c 128,-1,13
 164 530 164 530 279 530 c 0,14,15
 383 530 383 530 444 467.5 c 128,-1,16
 505 405 505 405 513 296 c 1,17,-1
 513 238 l 1,18,-1
 127 238 l 1,0,1
132 310 m 1,19,-1
 422 310 l 1,20,21
 410 458 410 458 281 458 c 0,22,23
 216 458 216 458 176.5 416.5 c 128,-1,24
 137 375 137 375 132 310 c 1,19,-1
EndSplineSet
EndChar

StartChar: f
Encoding: 102 102 71
Width: 277
VWidth: 2048
Flags: W
HStem: 0 21G<87 176> 451 67<9 87 176 276> 656 72<191.202 300.862>
VStem: 87 89<0 451 518 639.469>
LayerCount: 3
Fore
SplineSet
248 656 m 0
 190 656 176 626 176 567 c 2
 176 518 l 1
 276 518 l 1
 276 451 l 1
 176 451 l 1
 176 0 l 1
 87 0 l 1
 87 451 l 1
 9 451 l 1
 9 518 l 1
 87 518 l 1
 87 575 l 2
 87 663 116 728 230 728 c 0
 256 728 284 725 313 720 c 1
 299 650 l 1
 282 655 264 656 248 656 c 0
EndSplineSet
Validated: 1
Layer: 2
SplineSet
248 656 m 0,0,1
 206 656 206 656 191 635 c 128,-1,2
 176 614 176 614 176 567 c 2,3,-1
 176 518 l 1,4,-1
 276 518 l 1,5,-1
 276 451 l 1,6,-1
 176 451 l 1,7,-1
 176 0 l 1,8,-1
 87 0 l 1,9,-1
 87 451 l 1,10,-1
 9 451 l 1,11,-1
 9 518 l 1,12,-1
 87 518 l 1,13,-1
 87 575 l 2,14,15
 87 648 87 648 118.5 688 c 128,-1,16
 150 728 150 728 230 728 c 0,17,18
 267 728 267 728 313 720 c 1,19,-1
 299 650 l 1,20,21
 279 656 279 656 248 656 c 0,0,1
EndSplineSet
EndChar

StartChar: g
Encoding: 103 103 72
Width: 556
VWidth: 2048
Flags: W
HStem: -210 72<170.656 345.268> 0 72<188.037 335.92> 458 72<192.713 334.34> 498 20G<400 489>
VStem: 32 89<149.948 376.871> 51 84<-101.487 -55> 400 89<-78.5604 67 146.094 381.08 457 518>
LayerCount: 3
Fore
SplineSet
489 71 m 2xda
 489 -106 442 -210 256 -210 c 0
 130 -210 51 -159 51 -43 c 1
 135 -55 l 1xd6
 143 -110 182 -138 254 -138 c 0
 388 -138 400 -59 400 67 c 1
 362 23 314 0 256 0 c 0
 118 0 32 110 32 262 c 0
 32 418 113 530 256 530 c 0xea
 319 530 360 506 400 457 c 1
 400 518 l 1
 489 518 l 1
 489 71 l 2xda
264 458 m 0xea
 169 458 121 373 121 268 c 0
 121 138 170 72 265 72 c 0
 362 72 400 159 400 265 c 0
 400 373 358 458 264 458 c 0xea
EndSplineSet
Validated: 1
Layer: 2
SplineSet
489 71 m 2,0,1
 489 -72 489 -72 438.5 -141 c 128,-1,2
 388 -210 388 -210 256 -210 c 0,3,4
 158 -210 158 -210 104.5 -169 c 128,-1,5
 51 -128 51 -128 51 -43 c 1,6,-1
 135 -55 l 1,7,8
 147 -138 147 -138 254 -138 c 0,9,10
 303 -138 303 -138 333 -125 c 128,-1,11
 363 -112 363 -112 377.5 -81.5 c 128,-1,12
 392 -51 392 -51 396 -19 c 128,-1,13
 400 13 400 13 400 67 c 1,14,15
 342 0 342 0 256 0 c 0,16,17
 154 0 154 0 93 73 c 128,-1,18
 32 146 32 146 32 262 c 0,19,20
 32 382 32 382 91.5 456 c 128,-1,21
 151 530 151 530 256 530 c 0,22,23
 340 530 340 530 400 457 c 1,24,-1
 400 518 l 1,25,-1
 489 518 l 1,26,-1
 489 71 l 2,0,1
264 458 m 0,27,28
 196 458 196 458 158.5 404.5 c 128,-1,29
 121 351 121 351 121 268 c 0,30,31
 121 72 121 72 265 72 c 0,32,33
 334 72 334 72 367 125.5 c 128,-1,34
 400 179 400 179 400 265 c 128,-1,35
 400 351 400 351 365.5 404.5 c 128,-1,36
 331 458 331 458 264 458 c 0,27,28
EndSplineSet
EndChar

StartChar: h
Encoding: 104 104 73
Width: 556
VWidth: 2048
Flags: W
HStem: 0 21G<66 155 400 489> 458 72<216.97 357.699> 696 20G<66 155>
VStem: 66 89<0 399.863 460 716> 400 89<0 415.76>
LayerCount: 3
Fore
SplineSet
291 458 m 0
 182 458 155 385 155 284 c 2
 155 0 l 1
 66 0 l 1
 66 716 l 1
 155 716 l 1
 155 460 l 1
 195 507 247 530 310 530 c 0
 444 530 489 463 489 328 c 2
 489 0 l 1
 400 0 l 1
 400 328 l 2
 400 412 363 458 291 458 c 0
EndSplineSet
Validated: 1
Layer: 2
SplineSet
291 458 m 0,0,1
 215 458 215 458 185 413 c 128,-1,2
 155 368 155 368 155 284 c 2,3,-1
 155 0 l 1,4,-1
 66 0 l 1,5,-1
 66 716 l 1,6,-1
 155 716 l 1,7,-1
 155 460 l 1,8,9
 215 530 215 530 310 530 c 0,10,11
 408 530 408 530 448.5 481 c 128,-1,12
 489 432 489 432 489 328 c 2,13,-1
 489 0 l 1,14,-1
 400 0 l 1,15,-1
 400 328 l 2,16,17
 400 458 400 458 291 458 c 0,0,1
EndSplineSet
EndChar

StartChar: i
Encoding: 105 105 74
Width: 222
VWidth: 2048
Flags: W
HStem: 0 21G<66 155> 498 20G<66 155> 615 101<66 155>
VStem: 66 89<0 518 615 716>
LayerCount: 3
Fore
SplineSet
66 615 m 1
 66 716 l 1
 155 716 l 1
 155 615 l 1
 66 615 l 1
66 0 m 1
 66 518 l 1
 155 518 l 1
 155 0 l 1
 66 0 l 1
EndSplineSet
Validated: 1
Layer: 2
SplineSet
66 615 m 1,0,-1
 66 716 l 1,1,-1
 155 716 l 1,2,-1
 155 615 l 1,3,-1
 66 615 l 1,0,-1
66 0 m 1,4,-1
 66 518 l 1,5,-1
 155 518 l 1,6,-1
 155 0 l 1,7,-1
 66 0 l 1,4,-1
EndSplineSet
EndChar

StartChar: j
Encoding: 106 106 75
Width: 222
VWidth: 2048
Flags: W
HStem: -210 72<-31.712 48.5351> 498 20G<64 153> 615 101<64 153>
VStem: 64 89<-124.132 518 615 716>
LayerCount: 3
Fore
SplineSet
64 615 m 1
 64 716 l 1
 153 716 l 1
 153 615 l 1
 64 615 l 1
153 -29 m 2
 153 -177 101 -210 23 -210 c 0
 0 -210 -23 -207 -46 -201 c 1
 -29 -132 l 1
 -12 -135 2 -138 12 -138 c 0
 62 -138 64 -72 64 -26 c 2
 64 518 l 1
 153 518 l 1
 153 -29 l 2
EndSplineSet
Validated: 1
Layer: 2
SplineSet
64 615 m 1,0,-1
 64 716 l 1,1,-1
 153 716 l 1,2,-1
 153 615 l 1,3,-1
 64 615 l 1,0,-1
153 -29 m 2,4,5
 153 -133 153 -133 120 -171.5 c 128,-1,6
 87 -210 87 -210 23 -210 c 0,7,8
 -11.5 -210 -11.5 -210 -46 -201 c 1,9,-1
 -29 -132 l 1,10,11
 5 -138 5 -138 12 -138 c 0,12,13
 30 -138 30 -138 41 -128 c 128,-1,14
 52 -118 52 -118 56.5 -98.5 c 128,-1,15
 61 -79 61 -79 62.5 -64 c 128,-1,16
 64 -49 64 -49 64 -26 c 2,17,-1
 64 518 l 1,18,-1
 153 518 l 1,19,-1
 153 -29 l 2,4,5
EndSplineSet
EndChar

StartChar: k
Encoding: 107 107 76
Width: 499
VWidth: 2048
Flags: W
HStem: 0 21G<66 155 375.019 497> 498 20G<342.286 477> 696 20G<66 155>
VStem: 66 89<0 205 308 716>
DStem2: 155 308 216 265 0.717057 0.697015<0 13.7688 100.027 294.804> 277 326 216 265 0.559386 -0.828908<16.4408 332.316>
LayerCount: 3
Fore
SplineSet
66 0 m 1
 66 716 l 1
 155 716 l 1
 155 308 l 1
 362 518 l 1
 477 518 l 1
 277 326 l 1
 497 0 l 1
 388 0 l 1
 216 265 l 1
 155 205 l 1
 155 0 l 1
 66 0 l 1
EndSplineSet
Validated: 1
Layer: 2
SplineSet
66 0 m 1,0,-1
 66 716 l 1,1,-1
 155 716 l 1,2,-1
 155 308 l 1,3,-1
 362 518 l 1,4,-1
 477 518 l 1,5,-1
 277 326 l 1,6,-1
 497 0 l 1,7,-1
 388 0 l 1,8,-1
 216 265 l 1,9,-1
 155 205 l 1,10,-1
 155 0 l 1,11,-1
 66 0 l 1,0,-1
EndSplineSet
EndChar

StartChar: l
Encoding: 108 108 77
Width: 222
VWidth: 2048
Flags: W
HStem: 0 21G<64 153> 696 20G<64 153>
VStem: 64 89<0 716>
LayerCount: 3
Fore
SplineSet
64 0 m 1
 64 716 l 1
 153 716 l 1
 153 0 l 1
 64 0 l 1
EndSplineSet
Validated: 1
Layer: 2
SplineSet
64 0 m 1,0,-1
 64 716 l 1,1,-1
 153 716 l 1,2,-1
 153 0 l 1,3,-1
 64 0 l 1,0,-1
EndSplineSet
EndChar

StartChar: m
Encoding: 109 109 78
Width: 832
VWidth: 2048
Flags: W
HStem: 0 21G<66 155 374 463 680 769> 458 72<210.466 341.802 521.883 646.692> 498 20G<66 155>
VStem: 66 89<0 398.616 446 518> 374 89<0 401.715> 680 89<0 422.133>
LayerCount: 3
Fore
SplineSet
282 458 m 0xdc
 175 458 155 371 155 270 c 2
 155 0 l 1
 66 0 l 1
 66 518 l 1
 155 518 l 1xbc
 155 446 l 1
 181 503 233 530 302 530 c 0
 379 530 426 500 448 440 c 1
 489 500 543 530 609 530 c 0
 716 530 769 472 769 356 c 2
 769 0 l 1
 680 0 l 1
 680 326 l 2
 680 412 651 458 589 458 c 0
 504 458 463 403 463 302 c 2
 463 0 l 1
 374 0 l 1
 374 337 l 2
 374 415 343 458 282 458 c 0xdc
EndSplineSet
Validated: 1
Layer: 2
SplineSet
282 458 m 0,0,1
 243 458 243 458 217 443.5 c 128,-1,2
 191 429 191 429 178 401.5 c 128,-1,3
 165 374 165 374 160 343 c 128,-1,4
 155 312 155 312 155 270 c 2,5,-1
 155 0 l 1,6,-1
 66 0 l 1,7,-1
 66 518 l 1,8,-1
 155 518 l 1,9,-1
 155 446 l 1,10,11
 193 530 193 530 302 530 c 0,12,13
 415 530 415 530 448 440 c 1,14,15
 510 530 510 530 609 530 c 0,16,17
 769 530 769 530 769 356 c 2,18,-1
 769 0 l 1,19,-1
 680 0 l 1,20,-1
 680 326 l 2,21,22
 680 458 680 458 589 458 c 0,23,24
 463 458 463 458 463 302 c 2,25,-1
 463 0 l 1,26,-1
 374 0 l 1,27,-1
 374 337 l 2,28,29
 374 458 374 458 282 458 c 0,0,1
EndSplineSet
EndChar

StartChar: n
Encoding: 110 110 79
Width: 556
VWidth: 2048
Flags: W
HStem: 0 21G<66 155 398 487> 458 72<214.558 356.706> 498 20G<66 154>
VStem: 66 89<0 392.082 446 518> 398 89<0 410.876>
LayerCount: 3
Fore
SplineSet
66 0 m 1xd8
 66 518 l 1
 154 518 l 1xb8
 154 446 l 1
 181 503 238 530 311 530 c 0
 428 530 487 468 487 342 c 2
 487 0 l 1
 398 0 l 1
 398 316 l 2
 398 408 363 458 291 458 c 0
 201 458 155 397 155 284 c 2
 155 0 l 1
 66 0 l 1xd8
EndSplineSet
Validated: 1
Layer: 2
SplineSet
66 0 m 1,0,-1
 66 518 l 1,1,-1
 154 518 l 1,2,-1
 154 446 l 1,3,4
 194 530 194 530 311 530 c 0,5,6
 487 530 487 530 487 342 c 2,7,-1
 487 0 l 1,8,-1
 398 0 l 1,9,-1
 398 316 l 2,10,11
 398 458 398 458 291 458 c 0,12,13
 155 458 155 458 155 284 c 2,14,-1
 155 0 l 1,15,-1
 66 0 l 1,0,-1
EndSplineSet
EndChar

StartChar: o
Encoding: 111 111 80
Width: 556
VWidth: 2048
Flags: W
HStem: -12 72<195.744 356.256> 458 72<199.954 352.046>
VStem: 32 89<145.972 368.9> 431 89<145.972 368.9>
LayerCount: 3
Fore
SplineSet
276 -12 m 0
 81 -12 32 148 32 259 c 0
 32 419 120 530 276 530 c 0
 432 530 520 419 520 259 c 0
 520 148 471 -12 276 -12 c 0
276 458 m 0
 174 458 121 375 121 259 c 0
 121 170 154 60 276 60 c 0
 398 60 431 170 431 259 c 0
 431 375 378 458 276 458 c 0
EndSplineSet
Validated: 1
Layer: 2
SplineSet
276 -12 m 256,0,1
 207 -12 207 -12 156.5 14 c 128,-1,2
 106 40 106 40 80.5 82.5 c 128,-1,3
 55 125 55 125 43.5 169 c 128,-1,4
 32 213 32 213 32 259 c 0,5,6
 32 381 32 381 96.5 455.5 c 128,-1,7
 161 530 161 530 276 530 c 256,8,9
 391 530 391 530 455.5 455.5 c 128,-1,10
 520 381 520 381 520 259 c 0,11,12
 520 213 520 213 508.5 169 c 128,-1,13
 497 125 497 125 471.5 82.5 c 128,-1,14
 446 40 446 40 395.5 14 c 128,-1,15
 345 -12 345 -12 276 -12 c 256,0,1
276 458 m 256,16,17
 202 458 202 458 161.5 403.5 c 128,-1,18
 121 349 121 349 121 259 c 0,19,20
 121 223 121 223 128.5 190 c 128,-1,21
 136 157 136 157 152.5 126.5 c 128,-1,22
 169 96 169 96 200.5 78 c 128,-1,23
 232 60 232 60 276 60 c 256,24,25
 320 60 320 60 351.5 78 c 128,-1,26
 383 96 383 96 399.5 126.5 c 128,-1,27
 416 157 416 157 423.5 190 c 128,-1,28
 431 223 431 223 431 259 c 0,29,30
 431 349 431 349 390.5 403.5 c 128,-1,31
 350 458 350 458 276 458 c 256,16,17
EndSplineSet
EndChar

StartChar: p
Encoding: 112 112 81
Width: 556
VWidth: 2048
Flags: W
HStem: -199 21G<66 155> -12 72<214.614 354.828> 458 72<221.361 358.152> 498 20G<66 155>
VStem: 66 89<-199 54 131.086 377.478 451 518> 426 89<143.84 377.464>
LayerCount: 3
Fore
SplineSet
515 264 m 0xec
 515 110 433 -12 290 -12 c 0
 235 -12 189 11 155 54 c 1
 155 -199 l 1
 66 -199 l 1
 66 518 l 1
 155 518 l 1xdc
 155 451 l 1
 184 504 235 530 296 530 c 0
 439 530 515 419 515 264 c 0xec
288 458 m 0xec
 203 458 155 378 155 256 c 0
 155 156 181 60 285 60 c 0
 381 60 426 147 426 264 c 0
 426 375 381 458 288 458 c 0xec
EndSplineSet
Validated: 1
Layer: 2
SplineSet
515 264 m 0,0,1
 515 145 515 145 454.5 66.5 c 128,-1,2
 394 -12 394 -12 290 -12 c 0,3,4
 207 -12 207 -12 155 54 c 1,5,-1
 155 -199 l 1,6,-1
 66 -199 l 1,7,-1
 66 518 l 1,8,-1
 155 518 l 1,9,-1
 155 451 l 1,10,11
 198 530 198 530 296 530 c 0,12,13
 401 530 401 530 458 457 c 128,-1,14
 515 384 515 384 515 264 c 0,0,1
288 458 m 0,15,16
 225 458 225 458 190 403.5 c 128,-1,17
 155 349 155 349 155 256 c 0,18,19
 155 60 155 60 285 60 c 0,20,21
 354 60 354 60 390 116 c 128,-1,22
 426 172 426 172 426 264 c 0,23,24
 426 351 426 351 390.5 404.5 c 128,-1,25
 355 458 355 458 288 458 c 0,15,16
EndSplineSet
EndChar

StartChar: q
Encoding: 113 113 82
Width: 556
VWidth: 2048
Flags: W
HStem: -199 21G<396 485> -12 72<198.636 336.85> 458 72<191.685 329.912> 498 20G<396 485>
VStem: 37 89<143.124 377.306> 396 89<-199 55 131.274 378.626 449 518>
LayerCount: 3
Fore
SplineSet
37 264 m 0xdc
 37 418 111 530 254 530 c 0xec
 319 530 368 504 396 449 c 1
 396 518 l 1
 485 518 l 1
 485 -199 l 1
 396 -199 l 1
 396 55 l 1
 364 11 319 -12 261 -12 c 0
 120 -12 37 111 37 264 c 0xdc
262 458 m 0
 167 458 126 368 126 261 c 0
 126 98 211 60 268 60 c 0
 378 60 396 176 396 253 c 0
 396 364 359 458 262 458 c 0
EndSplineSet
Validated: 1
Layer: 2
SplineSet
37 264 m 128,-1,1
 37 383 37 383 93.5 456.5 c 128,-1,2
 150 530 150 530 254 530 c 0,3,4
 355 530 355 530 396 449 c 1,5,-1
 396 518 l 1,6,-1
 485 518 l 1,7,-1
 485 -199 l 1,8,-1
 396 -199 l 1,9,-1
 396 55 l 1,10,11
 347 -12 347 -12 261 -12 c 0,12,13
 158 -12 158 -12 97.5 66.5 c 128,-1,0
 37 145 37 145 37 264 c 128,-1,1
262 458 m 0,14,15
 194 458 194 458 160 402.5 c 128,-1,16
 126 347 126 347 126 261 c 0,17,18
 126 152 126 152 169.5 106 c 128,-1,19
 213 60 213 60 268 60 c 0,20,21
 307 60 307 60 334 78.5 c 128,-1,22
 361 97 361 97 373.5 128.5 c 128,-1,23
 386 160 386 160 391 189.5 c 128,-1,24
 396 219 396 219 396 253 c 0,25,26
 396 344 396 344 363.5 401 c 128,-1,27
 331 458 331 458 262 458 c 0,14,15
EndSplineSet
EndChar

StartChar: r
Encoding: 114 114 83
Width: 332
VWidth: 2048
Flags: W
HStem: 0 21G<64 153> 458 72<200.697 325.403> 498 20G<64 153>
VStem: 64 89<0 398.178 440 518>
LayerCount: 3
Back
SplineSet
64 0 m 1xd0
 64 518 l 1
 153 518 l 1xb0
 153 440 l 1
 178 500 215 530 256 530 c 0
 287 530 316 521 346 503 c 1
 317 420 l 1
 296 434 274 440 253 440 c 0
 198 440 153 402 153 271 c 2
 153 0 l 1
 64 0 l 1xd0
EndSplineSet
Fore
SplineSet
64 0 m 1xd0
 64 518 l 1
 153 518 l 1xb0
 153 440 l 1
 178 500 215 530 256 530 c 0
 287 530 316 521 346 503 c 1
 317 438 l 1
 296 452 274 458 253 458 c 0
 198 458 153 402 153 271 c 2
 153 0 l 1
 64 0 l 1xd0
EndSplineSet
Validated: 1
Layer: 2
SplineSet
64 0 m 1,0,-1
 64 518 l 1,1,-1
 153 518 l 1,2,-1
 153 440 l 1,3,4
 190 530 190 530 256 530 c 0,5,6
 301 530 301 530 346 503 c 1,7,-1
 317 438 l 1,8,9
 287 458 287 458 253 458 c 0,10,11
 209 458 209 458 181 411 c 128,-1,12
 153 364 153 364 153 271 c 2,13,-1
 153 0 l 1,14,-1
 64 0 l 1,0,-1
EndSplineSet
EndChar

StartChar: s
Encoding: 115 115 84
Width: 499
VWidth: 2048
Flags: W
HStem: -12 72<167.239 343.371> 458 72<155.379 319.561>
VStem: 46 89<348.982 436.972> 356 87<384.115 422.899> 372 89<88.1077 185.159>
LayerCount: 3
Fore
SplineSet
244 222 m 0xe8
 134 249 46 276 46 382 c 0
 46 441 83 530 236 530 c 0
 393 530 430 460 443 385 c 1
 356 374 l 1xf0
 348 429 310 458 242 458 c 0
 167 458 135 435 135 391 c 0
 135 348 169 336 244 316 c 0
 357 286 461 270 461 153 c 0
 461 21 328 -12 253 -12 c 0
 124 -12 51 43 31 155 c 1
 118 169 l 1
 127 97 173 60 253 60 c 0
 331 60 372 87 372 143 c 0
 372 197 317 204 244 222 c 0xe8
EndSplineSet
Validated: 1
Layer: 2
SplineSet
244 222 m 0,0,1
 194 234 194 234 165 244 c 128,-1,2
 136 254 136 254 105 272 c 128,-1,3
 74 290 74 290 60 317 c 128,-1,4
 46 344 46 344 46 382 c 0,5,6
 46 407 46 407 54.5 430.5 c 128,-1,7
 63 454 63 454 83 477.5 c 128,-1,8
 103 501 103 501 142.5 515.5 c 128,-1,9
 182 530 182 530 236 530 c 0,10,11
 292 530 292 530 332 518.5 c 128,-1,12
 372 507 372 507 394 485 c 128,-1,13
 416 463 416 463 427 440 c 128,-1,14
 438 417 438 417 443 385 c 1,15,-1
 356 374 l 1,16,17
 344 458 344 458 242 458 c 0,18,19
 135 458 135 458 135 391 c 0,20,21
 135 361 135 361 158 347 c 128,-1,22
 181 333 181 333 244 316 c 0,23,24
 253 314 253 314 277.5 307.5 c 128,-1,25
 302 301 302 301 310.5 298.5 c 128,-1,26
 319 296 319 296 340 289.5 c 128,-1,27
 361 283 361 283 369.5 279 c 128,-1,28
 378 275 378 275 394.5 267 c 128,-1,29
 411 259 411 259 418 252 c 128,-1,30
 425 245 425 245 435 234 c 128,-1,31
 445 223 445 223 449.5 211.5 c 128,-1,32
 454 200 454 200 457.5 185 c 128,-1,33
 461 170 461 170 461 153 c 0,34,35
 461 106 461 106 439.5 72 c 128,-1,36
 418 38 418 38 384.5 20.5 c 128,-1,37
 351 3 351 3 318 -4.5 c 128,-1,38
 285 -12 285 -12 253 -12 c 0,39,40
 61 -12 61 -12 31 155 c 1,41,-1
 118 169 l 1,42,43
 132 60 132 60 253 60 c 0,44,45
 372 60 372 60 372 143 c 0,46,47
 372 152 372 152 370.5 159.5 c 128,-1,48
 369 167 369 167 364 173 c 128,-1,49
 359 179 359 179 355 183.5 c 128,-1,50
 351 188 351 188 342 192.5 c 128,-1,51
 333 197 333 197 327.5 199.5 c 128,-1,52
 322 202 322 202 309 205.5 c 128,-1,53
 296 209 296 209 289.5 211 c 128,-1,54
 283 213 283 213 267 216.5 c 128,-1,55
 251 220 251 220 244 222 c 0,0,1
EndSplineSet
EndChar

StartChar: t
Encoding: 116 116 85
Width: 277
VWidth: 2048
Flags: W
HStem: -6 72<182.046 258.788> 451 67<18 82 171 258>
VStem: 82 89<73.5805 451 518 647>
LayerCount: 3
Fore
SplineSet
171 147 m 2
 171 92 181 66 219 66 c 0
 230 66 242 68 258 69 c 1
 271 0 l 1
 245 -5 224 -6 204 -6 c 0
 91 -6 82 50 82 152 c 2
 82 451 l 1
 18 451 l 1
 18 518 l 1
 82 518 l 1
 82 647 l 1
 171 700 l 1
 171 518 l 1
 258 518 l 1
 258 451 l 1
 171 451 l 1
 171 147 l 2
EndSplineSet
Validated: 1
Layer: 2
SplineSet
171 147 m 2,0,1
 171 104 171 104 181.5 85 c 128,-1,2
 192 66 192 66 219 66 c 0,3,4
 225 66 225 66 238.5 67.5 c 128,-1,5
 252 69 252 69 258 69 c 1,6,-1
 271 0 l 1,7,8
 240 -6 240 -6 204 -6 c 0,9,10
 163 -6 163 -6 137.5 3.5 c 128,-1,11
 112 13 112 13 100.5 36 c 128,-1,12
 89 59 89 59 85.5 83.5 c 128,-1,13
 82 108 82 108 82 152 c 2,14,-1
 82 451 l 1,15,-1
 18 451 l 1,16,-1
 18 518 l 1,17,-1
 82 518 l 1,18,-1
 82 647 l 1,19,-1
 171 700 l 1,20,-1
 171 518 l 1,21,-1
 258 518 l 1,22,-1
 258 451 l 1,23,-1
 171 451 l 1,24,-1
 171 147 l 2,0,1
EndSplineSet
EndChar

StartChar: u
Encoding: 117 117 86
Width: 556
VWidth: 2048
Flags: W
HStem: -12 72<190.57 332.04> 0 21G<395 484> 498 20G<64 153 395 484>
VStem: 64 89<100.5 518> 395 89<0 77 119.282 518>
LayerCount: 3
Fore
SplineSet
259 60 m 0xb8
 369 60 395 133 395 241 c 2
 395 518 l 1
 484 518 l 1
 484 0 l 1
 395 0 l 1x78
 395 77 l 1
 366 17 311 -12 241 -12 c 0
 111 -12 64 54 64 198 c 2
 64 518 l 1
 153 518 l 1
 153 231 l 2
 153 111 174 60 259 60 c 0xb8
EndSplineSet
Validated: 1
Layer: 2
SplineSet
259 60 m 0,0,1
 336 60 336 60 365.5 106 c 128,-1,2
 395 152 395 152 395 241 c 2,3,-1
 395 518 l 1,4,-1
 484 518 l 1,5,-1
 484 0 l 1,6,-1
 395 0 l 1,7,-1
 395 77 l 1,8,9
 352 -12 352 -12 241 -12 c 0,10,11
 145 -12 145 -12 104.5 38 c 128,-1,12
 64 88 64 88 64 198 c 2,13,-1
 64 518 l 1,14,-1
 153 518 l 1,15,-1
 153 231 l 2,16,17
 153 137 153 137 175 98.5 c 128,-1,18
 197 60 197 60 259 60 c 0,0,1
EndSplineSet
EndChar

StartChar: v
Encoding: 118 118 87
Width: 499
VWidth: 2048
Flags: W
HStem: 0 21G<202.355 298.645> 498 20G<12 113.2 391.55 489>
DStem2: 106 518 12 518 0.357045 -0.934087<0 425.049> 250 118 291 0 0.357045 0.934087<0 426.835>
LayerCount: 3
Fore
SplineSet
210 0 m 1
 12 518 l 1
 106 518 l 1
 250 118 l 1
 399 518 l 1
 489 518 l 1
 291 0 l 1
 210 0 l 1
EndSplineSet
Validated: 1
Layer: 2
SplineSet
210 0 m 1,0,-1
 12 518 l 1,1,-1
 106 518 l 1,2,-1
 250 118 l 1,3,-1
 399 518 l 1,4,-1
 489 518 l 1,5,-1
 291 0 l 1,6,-1
 210 0 l 1,0,-1
EndSplineSet
EndChar

StartChar: w
Encoding: 119 119 88
Width: 721
VWidth: 2048
Flags: W
HStem: 0 21G<154.9 259.263 455.887 558.255> 498 20G<3 99.4988 311.647 413.126 623.97 714>
DStem2: 94 518 3 518 0.291749 -0.956495<0 426.087> 207 107 254 0 0.25854 0.966<0 321.37> 408 518 359 399 0.247674 -0.968843<103.156 410.862> 510 120 552 0 0.298485 0.954414<0 415.675>
LayerCount: 3
Fore
SplineSet
161 0 m 1
 3 518 l 1
 94 518 l 1
 207 107 l 1
 317 518 l 1
 408 518 l 1
 510 120 l 1
 630 518 l 1
 714 518 l 1
 552 0 l 1
 461 0 l 1
 359 399 l 1
 254 0 l 1
 161 0 l 1
EndSplineSet
Validated: 1
Layer: 2
SplineSet
161 0 m 1,0,-1
 3 518 l 1,1,-1
 94 518 l 1,2,-1
 207 107 l 1,3,-1
 317 518 l 1,4,-1
 408 518 l 1,5,-1
 510 120 l 1,6,-1
 630 518 l 1,7,-1
 714 518 l 1,8,-1
 552 0 l 1,9,-1
 461 0 l 1,10,-1
 359 399 l 1,11,-1
 254 0 l 1,12,-1
 161 0 l 1,0,-1
EndSplineSet
EndChar

StartChar: x
Encoding: 120 120 89
Width: 499
VWidth: 2048
Flags: W
HStem: 0 21G<8 127.093 370.907 494> 498 20G<21 145.953 359.814 478>
DStem2: 8 0 113 0 0.577055 0.816706<60.5907 296.694 423.381 634.255> 132 518 21 518 0.574946 -0.818192<0 209.722 333.181 569.285>
LayerCount: 3
Fore
SplineSet
8 0 m 1
 197 268 l 1
 21 518 l 1
 132 518 l 1
 252 346 l 1
 374 518 l 1
 478 518 l 1
 304 271 l 1
 494 0 l 1
 385 0 l 1
 249 193 l 1
 113 0 l 1
 8 0 l 1
EndSplineSet
Validated: 1
Layer: 2
SplineSet
8 0 m 1,0,-1
 197 268 l 1,1,-1
 21 518 l 1,2,-1
 132 518 l 1,3,-1
 252 346 l 1,4,-1
 374 518 l 1,5,-1
 478 518 l 1,6,-1
 304 271 l 1,7,-1
 494 0 l 1,8,-1
 385 0 l 1,9,-1
 249 193 l 1,10,-1
 113 0 l 1,11,-1
 8 0 l 1,0,-1
EndSplineSet
EndChar

StartChar: y
Encoding: 121 121 90
Width: 499
VWidth: 2048
Flags: W
HStem: -210 72<62.9187 159.312> 498 20G<17 117.291 395.715 492>
DStem2: 110 518 17 518 0.353892 -0.935286<0 442.714> 182 -83 294 -9 0.345126 0.938556<-54.6526 88.5991 197.354 640.345>
LayerCount: 3
Fore
SplineSet
63 -199 m 1
 52 -130 l 1
 72 -135 87 -138 103 -138 c 0
 143 -138 171 -112 182 -83 c 2
 182 -83 211 -7 213 0 c 1
 17 518 l 1
 110 518 l 1
 219 219 l 2
 235 175 247 135 256 98 c 1
 267 138 278 176 293 216 c 2
 403 518 l 1
 492 518 l 1
 294 -9 l 2
 257 -107 222 -210 120 -210 c 0
 103 -210 83 -207 63 -199 c 1
EndSplineSet
Validated: 1
Layer: 2
SplineSet
63 -199 m 1,0,-1
 52 -130 l 1,1,2
 84 -138 84 -138 103 -138 c 0,3,4
 131 -138 131 -138 152 -122 c 128,-1,5
 173 -106 173 -106 182 -83 c 0,6,7
 211 -7 211 -7 213 0 c 1,8,-1
 17 518 l 1,9,-1
 110 518 l 1,10,-1
 219 219 l 2,11,12
 242 156 242 156 256 98 c 1,13,14
 276 171 276 171 293 216 c 2,15,-1
 403 518 l 1,16,-1
 492 518 l 1,17,-1
 294 -9 l 2,18,19
 281 -44 281 -44 278 -52 c 128,-1,20
 275 -60 275 -60 262 -90.5 c 128,-1,21
 249 -121 249 -121 242 -130.5 c 128,-1,22
 235 -140 235 -140 220 -160.5 c 128,-1,23
 205 -181 205 -181 192 -188.5 c 128,-1,24
 179 -196 179 -196 160 -203 c 128,-1,25
 141 -210 141 -210 120 -210 c 0,26,27
 90 -210 90 -210 63 -199 c 1,0,-1
EndSplineSet
EndChar

StartChar: z
Encoding: 122 122 91
Width: 499
VWidth: 2048
Flags: W
HStem: 0 72<125.875 478> 446 72<38 347>
DStem2: 20 71 124 68 0.653168 0.757213<65.6579 499.812>
LayerCount: 3
Fore
SplineSet
20 0 m 1
 20 71 l 1
 347 449 l 1
 311 447 279 446 251 446 c 2
 38 446 l 1
 38 518 l 1
 463 518 l 1
 463 461 l 1
 124 68 l 1
 164 71 204 72 239 72 c 2
 478 72 l 1
 478 0 l 1
 20 0 l 1
EndSplineSet
Validated: 1
Layer: 2
SplineSet
20 0 m 1,0,-1
 20 71 l 1,1,-1
 347 449 l 1,2,3
 293 446 293 446 251 446 c 2,4,-1
 38 446 l 1,5,-1
 38 518 l 1,6,-1
 463 518 l 1,7,-1
 463 461 l 1,8,-1
 124 68 l 1,9,10
 177 72 177 72 239 72 c 2,11,-1
 478 72 l 1,12,-1
 478 0 l 1,13,-1
 20 0 l 1,0,-1
EndSplineSet
EndChar

StartChar: braceleft
Encoding: 123 123 92
Width: 334
VWidth: 2048
Flags: W
HStem: -210 77<228.72 311> 219 80<28 86.5096> 651 77<229.398 311>
VStem: 135 77<-116.225 153.717 364.283 634.217>
CounterMasks: 1 e0
LayerCount: 3
Fore
SplineSet
28 219 m 1
 28 299 l 1
 94 300 127 354 130 460 c 2
 135 621 l 2
 137.209364957 693.909043586 199.565291225 728 284 728 c 2
 311 728 l 1
 311 651 l 1
 296 651 l 2
 221 651 212 638 212 480 c 0
 212 359 178 287 109 259 c 1
 178 231 212 159 212 38 c 0
 212 -121 221 -133 296 -133 c 2
 311 -133 l 1
 311 -210 l 1
 284 -210 l 2
 199.465765235 -210 137.210958196 -175.961620455 135 -103 c 2
 130 58 l 2
 127 164 94 218 28 219 c 1
EndSplineSet
Layer: 2
SplineSet
28 219 m 1,0,-1
 28 299 l 1,1,2
 125 300 125 300 130 460 c 2,3,-1
 135 621 l 2,4,5
 137 674 137 674 177.5 701 c 128,-1,6
 218 728 218 728 284 728 c 2,7,-1
 311 728 l 1,8,-1
 311 651 l 1,9,-1
 296 651 l 2,10,11
 265 651 265 651 250.5 647 c 128,-1,12
 236 643 236 643 226 624 c 128,-1,13
 216 605 216 605 214 574 c 128,-1,14
 212 543 212 543 212 480 c 0,15,16
 212 301 212 301 109 259 c 1,17,18
 212 217 212 217 212 38 c 0,19,20
 212 -46 212 -46 218 -79 c 128,-1,21
 224 -112 224 -112 239.5 -122.5 c 128,-1,22
 255 -133 255 -133 296 -133 c 2,23,-1
 311 -133 l 1,24,-1
 311 -210 l 1,25,-1
 284 -210 l 2,26,27
 218 -210 218 -210 177.5 -183 c 128,-1,28
 137 -156 137 -156 135 -103 c 2,29,-1
 130 58 l 2,30,31
 125 218 125 218 28 219 c 1,0,-1
EndSplineSet
EndChar

StartChar: bar
Encoding: 124 124 93
Width: 259
VWidth: 2048
Flags: W
HStem: -210 21G<92 169> 708 20G<92 169>
VStem: 92 77<-210 728>
LayerCount: 3
Fore
SplineSet
92 -210 m 1
 92 728 l 1
 169 728 l 1
 169 -210 l 1
 92 -210 l 1
EndSplineSet
Validated: 1
Layer: 2
SplineSet
92 -210 m 1,0,-1
 92 728 l 1,1,-1
 169 728 l 1,2,-1
 169 -210 l 1,3,-1
 92 -210 l 1,0,-1
EndSplineSet
EndChar

StartChar: braceright
Encoding: 125 125 94
Width: 334
VWidth: 2048
Flags: W
HStem: -210 77<24 106.087> 219 80<248.49 307> 651 77<24 106.499>
VStem: 123 77<-119.398 153.717 364.283 636.889>
CounterMasks: 1 e0
LayerCount: 3
Fore
SplineSet
307 219 m 1
 241 218 208 164 205 58 c 2
 200 -103 l 2
 198 -176 135 -210 51 -210 c 2
 24 -210 l 1
 24 -133 l 1
 39 -133 l 2
 115 -133 123 -126 123 38 c 0
 123 159 157 231 226 259 c 1
 157 287 123 359 123 480 c 0
 123 642 115 651 39 651 c 2
 24 651 l 1
 24 728 l 1
 51 728 l 2
 136 728 198 694 200 621 c 2
 205 460 l 2
 208 354 241 300 307 299 c 1
 307 219 l 1
EndSplineSet
Layer: 2
SplineSet
307 219 m 1,0,1
 210 218 210 218 205 58 c 2,2,-1
 200 -103 l 2,3,4
 199 -156 199 -156 158 -183 c 128,-1,5
 117 -210 117 -210 51 -210 c 2,6,-1
 24 -210 l 1,7,-1
 24 -133 l 1,8,-1
 39 -133 l 2,9,10
 65 -133 65 -133 77.5 -130.5 c 128,-1,11
 90 -128 90 -128 101 -120.5 c 128,-1,12
 112 -113 112 -113 115.5 -92 c 128,-1,13
 119 -71 119 -71 121 -43 c 128,-1,14
 123 -15 123 -15 123 38 c 0,15,16
 123 217 123 217 226 259 c 1,17,18
 123 301 123 301 123 480 c 0,19,20
 123 533 123 533 121 561 c 128,-1,21
 119 589 119 589 115.5 610 c 128,-1,22
 112 631 112 631 101 638 c 128,-1,23
 90 645 90 645 77.5 648 c 128,-1,24
 65 651 65 651 39 651 c 2,25,-1
 24 651 l 1,26,-1
 24 728 l 1,27,-1
 51 728 l 2,28,29
 118 728 118 728 158.5 701 c 128,-1,30
 199 674 199 674 200 621 c 2,31,-1
 205 460 l 2,32,33
 210 300 210 300 307 299 c 1,34,-1
 307 219 l 1,0,1
EndSplineSet
EndChar

StartChar: asciitilde
Encoding: 126 126 95
Width: 583
VWidth: 2048
Flags: W
HStem: 281 84<335.157 487.83> 347 84<100.675 254.578>
LayerCount: 3
Fore
SplineSet
408 281 m 0x80
 325 281 240 347 170 347 c 0x40
 130 347 89 324 43 281 c 1x80
 43 372 l 1
 77 411 123 431 178 431 c 0x40
 264 431 355 365 415 365 c 0
 460 365 501 388 543 432 c 1
 543 336 l 1
 503 299 458 281 408 281 c 0x80
EndSplineSet
Validated: 1
Layer: 2
SplineSet
408 281 m 0,0,1
 365 281 365 281 284 314 c 128,-1,2
 203 347 203 347 170 347 c 0,3,4
 114 347 114 347 43 281 c 1,5,-1
 43 372 l 1,6,7
 94 431 94 431 178 431 c 0,8,9
 224 431 224 431 306 398 c 128,-1,10
 388 365 388 365 415 365 c 0,11,12
 479 365 479 365 543 432 c 1,13,-1
 543 336 l 1,14,15
 484 281 484 281 408 281 c 0,0,1
EndSplineSet
EndChar

StartChar: ellipsis
Encoding: 8230 8230 100
Width: 570
VWidth: 2048
Flags: W
HStem: 0 118<65.5285 162.165 252.529 349.165 441.671 537.232>
VStem: 55 117<10.5285 108.098> 242 117<10.5285 108.098> 431 116<10.5285 108.845>
LayerCount: 3
Fore
SplineSet
489 0 m 0
 455 0 431 20 431 58 c 0
 431 98 449 118 489 118 c 0
 527 118 547 98 547 58 c 0
 547 20 527 0 489 0 c 0
300 0 m 0
 267 0 242 20 242 58 c 0
 242 98 262 118 300 118 c 0
 339 118 359 98 359 58 c 0
 359 20 339 0 300 0 c 0
113 0 m 0
 80 0 55 20 55 58 c 0
 55 98 75 118 113 118 c 0
 152 118 172 98 172 58 c 0
 172 20 152 0 113 0 c 0
EndSplineSet
Layer: 2
SplineSet
489 0 m 0,0,1
 463 0 463 0 447 15 c 128,-1,2
 431 30 431 30 431 58 c 0,3,4
 431 118 431 118 489 118 c 128,-1,5
 547 118 547 118 547 58 c 0,6,7
 547 0 547 0 489 0 c 0,0,1
300 0 m 0,8,9
 274 0 274 0 258 15 c 128,-1,10
 242 30 242 30 242 58 c 0,11,12
 242 118 242 118 300 118 c 0,13,14
 359 118 359 118 359 58 c 0,15,16
 359 0 359 0 300 0 c 0,8,9
113 0 m 0,17,18
 87 0 87 0 71 15 c 128,-1,19
 55 30 55 30 55 58 c 0,20,21
 55 118 55 118 113 118 c 0,22,23
 172 118 172 118 172 58 c 0,24,25
 172 0 172 0 113 0 c 0,17,18
EndSplineSet
EndChar

StartChar: uni0E48.low_left
Encoding: 63237 63237 101
Width: 0
Flags: W
HStem: 665 222<-288 -219>
VStem: -288 69<665 887>
LayerCount: 3
Back
SplineSet
-247 665 m 5
 -316 665 l 5
 -316 887 l 5
 -247 887 l 5
 -247 665 l 5
EndSplineSet
Fore
Refer: 106 63242 N 1 0 0 1 -99 0 2
Validated: 1
Layer: 2
Refer: 106 63242 N 1 0 0 1 -99 0 2
EndChar

StartChar: uni0E49.low_left
Encoding: 63238 63238 102
Width: 0
Flags: W
HStem: 798 42<-529.313 -483.243> 932 43<-530.078 -451.375>
VStem: -585 48<847.199 924.713> -445 48<845.963 925.686>
LayerCount: 3
Back
SplineSet
-447 901 m 0
 -386 901 -364 852 -364 810 c 0
 -364 760 -395 717 -399 717 c 1
 -354 727 -326 740 -290 768 c 0
 -239 803 -215 832 -184 891 c 1
 -184 796 l 1
 -212 757 -241 727 -310 696 c 0
 -358 674 -401 667 -441 667 c 0
 -459 667 -477 669 -494 671 c 1
 -466 687 -440 732 -440 740 c 1
 -445 739 -450 739 -455 739 c 0
 -497 739 -534 767 -534 815 c 0
 -534 845 -517 901 -447 901 c 0
-451 777 m 0
 -423 777 -409 798 -409 819 c 0
 -409 840 -423 861 -451 861 c 0
 -479 861 -493 840 -493 819 c 0
 -493 798 -479 777 -451 777 c 0
EndSplineSet
Fore
Refer: 107 63243 N 1 0 0 1 -199 0 2
Validated: 1
Layer: 2
Refer: 107 63243 N 1 0 0 1 -199 0 2
EndChar

StartChar: uni0E4C.low_left
Encoding: 63241 63241 105
Width: 0
Flags: W
HStem: 667 43<-324.951 -248.27> 802 41<-326.119 -249.78>
VStem: -403 70<718.207 830.227> -242 46<715.564 794.712>
LayerCount: 3
Back
SplineSet
-139 972 m 1
 -139 972 l 0
 -143 960 -141 917 -192 889 c 0
 -253 855 -330 877 -382 851 c 0
 -409 837 -411 812 -412 809 c 1
 -399 820 -389 826 -362 826 c 0
 -320 826 -285 794 -285 750 c 0
 -285 699 -322 670 -366 668 c 0
 -441 665 -486 743 -468 812 c 0
 -446 891 -385 912 -284 912 c 0
 -204 912 -213 969 -208 972 c 1
 -139 972 l 1
-368 707 m 0
 -313 707 -314 789 -369 789 c 0
 -423 789 -422 707 -368 707 c 0
EndSplineSet
Fore
Refer: 110 63246 N 1 0 0 1 -99 0 2
Layer: 2
Refer: 110 63246 N 1 0 0 1 -99 0 2
EndChar

StartChar: uni0E48.low
Encoding: 63242 63242 106
Width: 0
Flags: W
HStem: 665 222<-189 -120>
VStem: -189 69<665 887>
AnchorPoint: "AboveMark" -154 988 basemark 0
AnchorPoint: "AboveBase" -113 659 mark 0
LayerCount: 3
Fore
SplineSet
-120 665 m 1
 -189 665 l 1
 -189 887 l 1
 -120 887 l 1
 -120 665 l 1
EndSplineSet
Validated: 1
Layer: 2
SplineSet
-120 665 m 1,0,-1
 -189 665 l 1,1,-1
 -189 887 l 1,2,-1
 -120 887 l 1,3,-1
 -120 665 l 1,0,-1
EndSplineSet
Substitution2: "Thai Phinthu Mai Ek Reordering" uni0E3A
EndChar

StartChar: uni0E49.low
Encoding: 63243 63243 107
Width: 0
Flags: W
HStem: 798 42<-330.313 -284.243> 932 43<-331.078 -252.375>
VStem: -386 48<847.199 924.713> -246 48<845.963 925.686>
AnchorPoint: "AboveMark" -191 988 basemark 0
AnchorPoint: "AboveBase" -13 659 mark 0
LayerCount: 3
Fore
SplineSet
3 820 m 1
 1 810 -80 686 -262 686 c 0
 -301 686 -337 692 -365 705 c 1
 -320 730 -284 788 -284 799 c 1
 -289 798 -294 798 -299 798 c 0
 -340 798 -386 829 -386 885 c 0
 -386 926 -360 975 -287 975 c 0
 -216 975 -198 912 -198 877 c 0
 -198 821 -234 767 -251 742 c 1
 -90 756 -20 872 3 926 c 1
 3 820 l 1
-291 840 m 0
 -261 840 -246 863 -246 886 c 0
 -246 909 -261 932 -291 932 c 0
 -322 932 -338 909 -338 886 c 0
 -338 863 -322 840 -291 840 c 0
EndSplineSet
Validated: 1
Layer: 2
SplineSet
3 820 m 1,0,1
 2 816 2 816 -7.5 802.5 c 128,-1,2
 -17 789 -17 789 -39 768.5 c 128,-1,3
 -61 748 -61 748 -90 730 c 128,-1,4
 -119 712 -119 712 -165 699 c 128,-1,5
 -211 686 -211 686 -262 686 c 0,6,7
 -324 686 -324 686 -365 705 c 1,8,9
 -335 722 -335 722 -309.5 755 c 128,-1,10
 -284 788 -284 788 -284 799 c 1,11,12
 -289 798 -289 798 -299 798 c 0,13,14
 -333 798 -333 798 -359.5 821.5 c 128,-1,15
 -386 845 -386 845 -386 885 c 0,16,17
 -386 921 -386 921 -361.5 948 c 128,-1,18
 -337 975 -337 975 -287 975 c 0,19,20
 -240 975 -240 975 -219 943.5 c 128,-1,21
 -198 912 -198 912 -198 877 c 0,22,23
 -198 820 -198 820 -251 742 c 1,24,25
 -194 747 -194 747 -147.5 768 c 128,-1,26
 -101 789 -101 789 -71.5 819.5 c 128,-1,27
 -42 850 -42 850 -25 875.5 c 128,-1,28
 -8 901 -8 901 3 926 c 1,29,-1
 3 820 l 1,0,1
-291 840 m 0,30,31
 -270 840 -270 840 -258 853.5 c 128,-1,32
 -246 867 -246 867 -246 886 c 256,33,34
 -246 905 -246 905 -258 918.5 c 128,-1,35
 -270 932 -270 932 -291 932 c 0,36,37
 -313 932 -313 932 -325.5 918.5 c 128,-1,38
 -338 905 -338 905 -338 886 c 256,39,40
 -338 867 -338 867 -325.5 853.5 c 128,-1,41
 -313 840 -313 840 -291 840 c 0,30,31
EndSplineSet
Substitution2: "Thai Phinthu Mai Tho Reordering" uni0E3A
EndChar

StartChar: uni0E4A.low
Encoding: 63244 63244 108
Width: 0
Flags: W
HStem: 661 32<-333.816 -281.2> 753 32<-333.414 -280.54> 835 46<-335.197 -254.796 -231.395 -153.643>
VStem: -396 48<771 821.843> -277 33<696.653 749.647> -142 52<710.121 826.082> -25 50<777.006 837.02>
AnchorPoint: "AboveMark" -243 988 basemark 0
AnchorPoint: "AboveBase" -13 659 mark 0
LayerCount: 3
Fore
SplineSet
-172 881 m 0
 -122 881 -90 834 -90 789 c 0
 -90 743 -112 710 -115 705 c 1
 -31 750 -25 842 -25 874 c 1
 25 831 l 1
 12 756 -53 665 -173 665 c 2
 -189 665 l 1
 -175 674 -142 714 -142 768 c 0
 -142 795 -152 835 -190 835 c 0
 -217 835 -238 816 -242 809 c 1
 -245 816 -272 832 -296 832 c 0
 -321 832 -348 815 -348 771 c 1
 -334 780 -323 785 -300 785 c 0
 -266 785 -244 756 -244 726 c 0
 -244 685 -274 661 -310 661 c 0
 -363 661 -396 711 -396 768 c 0
 -396 825 -367 881 -306 881 c 0
 -280 881 -257 867 -244 845 c 1
 -228 868 -202 881 -172 881 c 0
-307 753 m 0
 -327 753 -337 737 -337 722 c 0
 -337 707 -328 693 -308 693 c 0
 -288 693 -277 708 -277 724 c 0
 -277 738 -287 753 -307 753 c 0
EndSplineSet
Validated: 1
Layer: 2
SplineSet
-172 881 m 0,0,1
 -136 881 -136 881 -113 853 c 128,-1,2
 -90 825 -90 825 -90 789 c 0,3,4
 -90 747 -90 747 -115 705 c 1,5,6
 -25 753 -25 753 -25 874 c 1,7,-1
 25 831 l 1,8,9
 14 766 14 766 -38 715.5 c 128,-1,10
 -90 665 -90 665 -173 665 c 2,11,-1
 -189 665 l 1,12,13
 -174 674 -174 674 -158 703 c 128,-1,14
 -142 732 -142 732 -142 768 c 0,15,16
 -142 794 -142 794 -153 814.5 c 128,-1,17
 -164 835 -164 835 -190 835 c 0,18,19
 -208 835 -208 835 -223 826 c 128,-1,20
 -238 817 -238 817 -242 809 c 1,21,22
 -245 815 -245 815 -262.5 823.5 c 128,-1,23
 -280 832 -280 832 -296 832 c 0,24,25
 -317 832 -317 832 -332.5 817 c 128,-1,26
 -348 802 -348 802 -348 771 c 1,27,28
 -326 785 -326 785 -300 785 c 0,29,30
 -275 785 -275 785 -259.5 767.5 c 128,-1,31
 -244 750 -244 750 -244 726 c 0,32,33
 -244 696 -244 696 -263 678.5 c 128,-1,34
 -282 661 -282 661 -310 661 c 0,35,36
 -349 661 -349 661 -372.5 692.5 c 128,-1,37
 -396 724 -396 724 -396 768 c 0,38,39
 -396 814 -396 814 -372.5 847.5 c 128,-1,40
 -349 881 -349 881 -306 881 c 0,41,42
 -265 881 -265 881 -244 845 c 1,43,44
 -219 881 -219 881 -172 881 c 0,0,1
-307 753 m 256,45,46
 -321 753 -321 753 -329 743.5 c 128,-1,47
 -337 734 -337 734 -337 722 c 0,48,49
 -337 693 -337 693 -308 693 c 0,50,51
 -294 693 -294 693 -285.5 702 c 128,-1,52
 -277 711 -277 711 -277 724 c 0,53,54
 -277 736 -277 736 -285 744.5 c 128,-1,55
 -293 753 -293 753 -307 753 c 256,45,46
EndSplineSet
Substitution2: "Thai Phinthu Mai Tri Reordering" uni0E3A
EndChar

StartChar: uni0E4B.low
Encoding: 63245 63245 109
Width: 0
Flags: W
HStem: 752 66<-267 -185 -116 -34>
VStem: -185 69<668 752 818 902>
AnchorPoint: "AboveMark" -150 988 basemark 0
AnchorPoint: "AboveBase" -13 659 mark 0
LayerCount: 3
Fore
SplineSet
-34 818 m 1
 -34 752 l 1
 -116 752 l 1
 -116 668 l 1
 -185 668 l 1
 -185 752 l 1
 -267 752 l 1
 -267 818 l 1
 -185 818 l 1
 -185 902 l 1
 -116 902 l 1
 -116 818 l 1
 -34 818 l 1
EndSplineSet
Validated: 1
Layer: 2
SplineSet
-34 818 m 1,0,-1
 -34 752 l 1,1,-1
 -116 752 l 1,2,-1
 -116 668 l 1,3,-1
 -185 668 l 1,4,-1
 -185 752 l 1,5,-1
 -267 752 l 1,6,-1
 -267 818 l 1,7,-1
 -185 818 l 1,8,-1
 -185 902 l 1,9,-1
 -116 902 l 1,10,-1
 -116 818 l 1,11,-1
 -34 818 l 1,0,-1
EndSplineSet
Substitution2: "Thai Phinthu Mai Chattawa Reordering" uni0E3A
EndChar

StartChar: uni0E4C.low
Encoding: 63246 63246 110
Width: 0
Flags: W
HStem: 667 43<-225.951 -149.27> 802 41<-227.119 -150.78>
VStem: -304 70<718.207 830.227> -143 46<715.564 794.712>
AnchorPoint: "AboveMark" -187 988 basemark 0
AnchorPoint: "AboveBase" -113 659 mark 0
LayerCount: 3
Fore
SplineSet
-97 757 m 0
 -97 699 -145 667 -189 667 c 0
 -258 667 -304 727 -304 791 c 0
 -304 803 -303 816 -299 828 c 0
 -274 915 -207 938 -95 940 c 0
 -6 941 -15 1002 -11 1006 c 1
 64 1006 l 1
 61 992 63 946 8 914 c 0
 -58 875 -143 901 -204 871 c 0
 -234 856 -236 829 -238 825 c 1
 -221 837 -213 843 -181 843 c 0
 -136 843 -97 809 -97 757 c 0
-234 757 m 0
 -234 741 -224 710 -185 710 c 0
 -157 710 -143 732 -143 754 c 0
 -143 778 -159 802 -189 802 c 0
 -219 802 -234 780 -234 757 c 0
EndSplineSet
Layer: 2
SplineSet
-97 757 m 0,0,1
 -97 716 -97 716 -125 691.5 c 128,-1,2
 -153 667 -153 667 -189 667 c 0,3,4
 -239 667 -239 667 -271.5 704 c 128,-1,5
 -304 741 -304 741 -304 791 c 0,6,7
 -304 813 -304 813 -299 828 c 0,8,9
 -281 890 -281 890 -232.5 914 c 128,-1,10
 -184 938 -184 938 -95 940 c 0,11,12
 -70 940 -70 940 -52.5 946.5 c 128,-1,13
 -35 953 -35 953 -27.5 962.5 c 128,-1,14
 -20 972 -20 972 -16.5 981 c 128,-1,15
 -13 990 -13 990 -12.5 997.5 c 128,-1,16
 -12 1005 -12 1005 -11 1006 c 2,17,-1
 64 1006 l 2,18,19
 64 1005 64 1005 62.5 994.5 c 128,-1,20
 61 984 61 984 58.5 976.5 c 128,-1,21
 56 969 56 969 50.5 957 c 128,-1,22
 45 945 45 945 34.5 934 c 128,-1,23
 24 923 24 923 8 914 c 0,24,25
 -27 893 -27 893 -101.5 889 c 128,-1,26
 -176 885 -176 885 -204 871 c 0,27,28
 -214 866 -214 866 -221.5 858 c 128,-1,29
 -229 850 -229 850 -231.5 844 c 128,-1,30
 -234 838 -234 838 -236 831.5 c 2,31,-1
 -238 825 l 1,32,33
 -212 843 -212 843 -181 843 c 0,34,35
 -146 843 -146 843 -121.5 819 c 128,-1,36
 -97 795 -97 795 -97 757 c 0,0,1
-234 757 m 0,37,38
 -234 741 -234 741 -222.5 725.5 c 128,-1,39
 -211 710 -211 710 -185 710 c 0,40,41
 -165 710 -165 710 -154 723 c 128,-1,42
 -143 736 -143 736 -143 754 c 0,43,44
 -143 773 -143 773 -155.5 787.5 c 128,-1,45
 -168 802 -168 802 -189 802 c 256,46,47
 -210 802 -210 802 -222 789 c 128,-1,48
 -234 776 -234 776 -234 757 c 0,37,38
EndSplineSet
Substitution2: "Thai Phinthu Thanthakhat Reordering" uni0E3A
EndChar

StartChar: uni0E0D.descless
Encoding: 63247 63247 111
Width: 800
Flags: W
HStem: -3 50<148.802 226.767> 0 61<353 395 464 622.777> 138 50<152.08 227.628> 532 61<146.779 359.148>
VStem: 83 69<182 375.439> 83 58<55.2602 131.419> 234 50<53.9166 131.796> 395 69<61 499.486> 627 69<63.8039 590>
LayerCount: 3
Fore
SplineSet
590 61 m 2x7780
 610 61 627 72 627 102 c 2
 627 590 l 1
 696 590 l 1
 696 82 l 2
 696 12 640 0 615 0 c 2
 353 0 l 1
 353 61 l 1
 395 61 l 1
 395 445 l 2
 395 497 361 532 250 532 c 0
 171 532 129 501 129 501 c 1
 157 501 254 423 254 423 c 1
 241 423 152 400 152 308 c 2
 152 182 l 1x7b80
 152 182 167 188 189 188 c 0
 222 188 284 169 284 96 c 0
 284 35 241 -3 184 -3 c 0
 110 -3 83 48 83 100 c 2xb780
 83 322 l 2xbb80
 83 390 141 426 141 426 c 1
 105 460 33 483 6 487 c 1
 26 513 122 593 274 593 c 0
 404 593 464 524 464 448 c 2
 464 61 l 1
 590 61 l 2x7780
188 47 m 0xb780
 219 47 234 70 234 93 c 0
 234 115 219 138 188 138 c 0
 157 138 141 115 141 93 c 0
 141 70 157 47 188 47 c 0xb780
EndSplineSet
Validated: 1
Layer: 2
SplineSet
590 61 m 2,0,1
 627 61 627 61 627 102 c 2,2,-1
 627 590 l 1,3,-1
 696 590 l 1,4,-1
 696 82 l 2,5,6
 696 36 696 36 669.5 18 c 128,-1,7
 643 0 643 0 615 0 c 2,8,-1
 353 0 l 1,9,-1
 353 61 l 1,10,-1
 395 61 l 1,11,-1
 395 445 l 2,12,13
 395 532 395 532 250 532 c 0,14,15
 215 532 215 532 184.5 524 c 128,-1,16
 154 516 154 516 141.5 508.5 c 2,17,-1
 129 501 l 1,18,19
 141 501 141 501 172.5 481.5 c 128,-1,20
 204 462 204 462 229 442.5 c 2,21,-1
 254 423 l 1,22,23
 247 423 247 423 232.5 417.5 c 128,-1,24
 218 412 218 412 198.5 400.5 c 128,-1,25
 179 389 179 389 165.5 364.5 c 128,-1,26
 152 340 152 340 152 308 c 2,27,-1
 152 182 l 1,28,29
 167 188 167 188 189 188 c 0,30,31
 209 188 209 188 229 181 c 128,-1,32
 249 174 249 174 266.5 152 c 128,-1,33
 284 130 284 130 284 96 c 0,34,35
 284 51 284 51 256 24 c 128,-1,36
 228 -3 228 -3 184 -3 c 0,37,38
 132 -3 132 -3 107.5 26.5 c 128,-1,39
 83 56 83 56 83 100 c 2,40,-1
 83 322 l 2,41,42
 83 352 83 352 97.5 378 c 128,-1,43
 112 404 112 404 126.5 415 c 2,44,-1
 141 426 l 1,45,46
 117 449 117 449 74.5 466 c 128,-1,47
 32 483 32 483 6 487 c 1,48,49
 31 519 31 519 103 556 c 128,-1,50
 175 593 175 593 274 593 c 0,51,52
 366 593 366 593 415 551 c 128,-1,53
 464 509 464 509 464 448 c 2,54,-1
 464 61 l 1,55,-1
 590 61 l 2,0,1
188 47 m 256,56,57
 210 47 210 47 222 60.5 c 128,-1,58
 234 74 234 74 234 93 c 0,59,60
 234 111 234 111 222 124.5 c 128,-1,61
 210 138 210 138 188 138 c 256,62,63
 166 138 166 138 153.5 124.5 c 128,-1,64
 141 111 141 111 141 93 c 0,65,66
 141 74 141 74 153.5 60.5 c 128,-1,67
 166 47 166 47 188 47 c 256,56,57
EndSplineSet
EndChar

StartChar: quoteleft
Encoding: 8216 8216 112
Width: 268
Flags: W
HStem: 446 145<98.474 164.637> 679 40<134.072 169>
VStem: 31 66<589 630.344>
LayerCount: 3
Fore
SplineSet
108 446 m 0
 75 446 31 465 31 539 c 0
 31 607 68 698 169 719 c 1
 169 679 l 1
 134 671 97 627 97 589 c 1
 103 591 109 591 115 591 c 0
 149 591 184 567 184 521 c 0
 184 481 161 446 108 446 c 0
EndSplineSet
Validated: 1
Layer: 2
SplineSet
108 446 m 0,0,1
 77 446 77 446 54 467.5 c 128,-1,2
 31 489 31 489 31 539 c 0,3,4
 31 598 31 598 65.5 651.5 c 128,-1,5
 100 705 100 705 169 719 c 1,6,-1
 169 679 l 1,7,8
 142 673 142 673 119.5 645 c 128,-1,9
 97 617 97 617 97 589 c 1,10,11
 103 591 103 591 115 591 c 0,12,13
 143 591 143 591 163.5 572.5 c 128,-1,14
 184 554 184 554 184 521 c 0,15,16
 184 489 184 489 165 467.5 c 128,-1,17
 146 446 146 446 108 446 c 0,0,1
EndSplineSet
EndChar

StartChar: quoteright
Encoding: 8217 8217 113
Width: 278
Flags: W
HStem: 455 40<75 110.588> 583 145<79.2735 145.858>
VStem: 147 68<546.337 586>
LayerCount: 3
Fore
SplineSet
137 728 m 0
 167 728 215 713 215 638 c 0
 215 570 178 477 75 455 c 1
 75 495 l 1
 109 502 147 545 147 586 c 1
 141 584 134 583 128 583 c 0
 94 583 60 608 60 654 c 0
 60 714 108 728 137 728 c 0
EndSplineSet
Validated: 1
Layer: 2
SplineSet
137 728 m 0,0,1
 167 728 167 728 191 708 c 128,-1,2
 215 688 215 688 215 638 c 0,3,4
 215 578 215 578 180.5 524 c 128,-1,5
 146 470 146 470 75 455 c 1,6,-1
 75 495 l 1,7,8
 101 500 101 500 124 528 c 128,-1,9
 147 556 147 556 147 586 c 1,10,11
 138 583 138 583 128 583 c 0,12,13
 101 583 101 583 80.5 602 c 128,-1,14
 60 621 60 621 60 654 c 0,15,16
 60 694 60 694 84 711 c 128,-1,17
 108 728 108 728 137 728 c 0,0,1
EndSplineSet
EndChar

StartChar: quotedblleft
Encoding: 8220 8220 114
Width: 484
Flags: W
HStem: 444 144<114.37 180.776 343.936 412> 676 40<150.402 185 383.827 415>
VStem: 48 65<589 627.72> 276 67<586 622.972>
LayerCount: 3
Fore
SplineSet
353 444 m 0
 322 444 276 460 276 534 c 0
 276 598 313 695 415 716 c 1
 415 676 l 1
 381 668 343 622 343 586 c 1
 350 588 356 588 362 588 c 0
 387 588 432 574 432 519 c 0
 432 475 405 444 353 444 c 0
125 446 m 0
 94 446 48 463 48 538 c 0
 48 602 85 698 185 719 c 1
 185 679 l 1
 151 671 113 625 113 589 c 1
 119 591 126 591 132 591 c 0
 166 591 202 567 202 520 c 0
 202 490 187 446 125 446 c 0
EndSplineSet
Validated: 1
Layer: 2
SplineSet
353 444 m 0,0,1
 323 444 323 444 299.5 464 c 128,-1,2
 276 484 276 484 276 534 c 0,3,4
 276 569 276 569 288.5 605 c 128,-1,5
 301 641 301 641 334 673.5 c 128,-1,6
 367 706 367 706 415 716 c 1,7,-1
 415 676 l 1,8,9
 389 670 389 670 366 641.5 c 128,-1,10
 343 613 343 613 343 586 c 1,11,12
 350 588 350 588 362 588 c 0,13,14
 387 588 387 588 409.5 572 c 128,-1,15
 432 556 432 556 432 519 c 0,16,17
 432 485 432 485 411.5 464.5 c 128,-1,18
 391 444 391 444 353 444 c 0,0,1
125 446 m 0,19,20
 95 446 95 446 71.5 467 c 128,-1,21
 48 488 48 488 48 538 c 0,22,23
 48 595 48 595 82.5 650 c 128,-1,24
 117 705 117 705 185 719 c 1,25,-1
 185 679 l 1,26,27
 159 673 159 673 136 644.5 c 128,-1,28
 113 616 113 616 113 589 c 1,29,30
 119 591 119 591 132 591 c 0,31,32
 160 591 160 591 181 572 c 128,-1,33
 202 553 202 553 202 520 c 0,34,35
 202 491 202 491 184.5 468.5 c 128,-1,36
 167 446 167 446 125 446 c 0,19,20
EndSplineSet
EndChar

StartChar: quotedblright
Encoding: 8221 8221 115
Width: 531
Flags: W
HStem: 452 40<86 117.121 316 350.33> 580 145<90.7126 157.673 318.047 387.337>
VStem: 158 68<548.993 586> 388 65<540.408 582>
LayerCount: 3
Fore
SplineSet
377 725 m 0
 407 725 453 708 453 631 c 0
 453 563 416 473 316 452 c 1
 316 492 l 1
 349 499 388 544 388 582 c 1
 382 580 375 580 369 580 c 0
 335 580 299 604 299 651 c 0
 299 711 346 725 377 725 c 0
147 728 m 0
 178 728 226 713 226 639 c 0
 226 574 189 477 86 455 c 1
 86 495 l 1
 122 504 158 550 158 586 c 1
 151 584 145 583 139 583 c 0
 116 583 69 598 69 654 c 0
 69 714 116 728 147 728 c 0
EndSplineSet
Validated: 1
Layer: 2
SplineSet
377 725 m 0,0,1
 406 725 406 725 429.5 704 c 128,-1,2
 453 683 453 683 453 631 c 0,3,4
 453 572 453 572 419 519 c 128,-1,5
 385 466 385 466 316 452 c 1,6,-1
 316 492 l 1,7,8
 341 497 341 497 364.5 525.5 c 128,-1,9
 388 554 388 554 388 582 c 1,10,11
 382 580 382 580 369 580 c 0,12,13
 341 580 341 580 320 599 c 128,-1,14
 299 618 299 618 299 651 c 0,15,16
 299 691 299 691 323 708 c 128,-1,17
 347 725 347 725 377 725 c 0,0,1
147 728 m 0,18,19
 178 728 178 728 202 708 c 128,-1,20
 226 688 226 688 226 639 c 0,21,22
 226 581 226 581 191 525.5 c 128,-1,23
 156 470 156 470 86 455 c 1,24,-1
 86 495 l 1,25,26
 113 502 113 502 135.5 530.5 c 128,-1,27
 158 559 158 559 158 586 c 1,28,29
 147 583 147 583 139 583 c 0,30,31
 115 583 115 583 92 600 c 128,-1,32
 69 617 69 617 69 654 c 0,33,34
 69 694 69 694 93 711 c 128,-1,35
 117 728 117 728 147 728 c 0,18,19
EndSplineSet
EndChar

StartChar: bullet
Encoding: 8226 8226 116
Width: 528
Flags: W
HStem: 98 336<186.709 355.291>
VStem: 104 334<179.336 352.664>
LayerCount: 3
Fore
SplineSet
271 98 m 0
 160 98 104 182 104 266 c 0
 104 350 160 434 271 434 c 0
 382 434 438 350 438 266 c 0
 438 182 382 98 271 98 c 0
EndSplineSet
Validated: 1
Layer: 2
SplineSet
271 98 m 256,0,1
 192 98 192 98 148 148 c 128,-1,2
 104 198 104 198 104 266 c 256,3,4
 104 334 104 334 148 384 c 128,-1,5
 192 434 192 434 271 434 c 256,6,7
 350 434 350 434 394 384 c 128,-1,8
 438 334 438 334 438 266 c 256,9,10
 438 198 438 198 394 148 c 128,-1,11
 350 98 350 98 271 98 c 256,0,1
EndSplineSet
EndChar

StartChar: endash
Encoding: 8211 8211 117
Width: 548
Flags: W
HStem: 258 68<41 523>
LayerCount: 3
Fore
SplineSet
523 258 m 1
 41 258 l 1
 41 326 l 1
 523 326 l 1
 523 258 l 1
EndSplineSet
Validated: 1
Layer: 2
SplineSet
523 258 m 1,0,-1
 41 258 l 1,1,-1
 41 326 l 1,2,-1
 523 326 l 1,3,-1
 523 258 l 1,0,-1
EndSplineSet
EndChar

StartChar: emdash
Encoding: 8212 8212 118
Width: 709
Flags: W
HStem: 258 68<41 682>
LayerCount: 3
Fore
SplineSet
682 258 m 1
 41 258 l 1
 41 326 l 1
 682 326 l 1
 682 258 l 1
EndSplineSet
Validated: 1
Layer: 2
SplineSet
682 258 m 1,0,-1
 41 258 l 1,1,-1
 41 326 l 1,2,-1
 682 326 l 1,3,-1
 682 258 l 1,0,-1
EndSplineSet
EndChar

StartChar: uni0E4C.left
Encoding: 63255 63255 126
Width: 0
Flags: W
HStem: 891 39<-281.311 -211.719> 1012 36<-281.9 -213.38>
VStem: -351 63<935.308 1038.32> -206 41<934.724 1005.75> -87 66<1152.26 1196>
LayerCount: 3
Back
SplineSet
-101 1194 m 1
 -101 1194 l 0
 -103 1185 -103 1143 -147 1119 c 0
 -201 1090 -271 1108 -319 1085 c 0
 -340 1074 -345 1052 -346 1048 c 1
 -333 1058 -326 1064 -300 1064 c 0
 -262 1064 -231 1035 -231 993 c 0
 -231 949 -264 921 -303 920 c 0
 -371 920 -411 990 -395 1052 c 0
 -377 1119 -322 1142 -230 1142 c 0
 -158 1142 -166 1193 -162 1194 c 2
 -101 1194 l 1
-305 955 m 0
 -256 955 -258 1030 -307 1030 c 0
 -356 1030 -354 955 -305 955 c 0
EndSplineSet
Fore
Refer: 200 3660 N 1 0 0 1 -56 0 2
Layer: 2
Refer: 200 3660 N 1 0 0 1 -56 0 2
EndChar

StartChar: uni0E01
Encoding: 3585 3585 128
Width: 626
Flags: W
HStem: 0 21G<100 169 451 520> 532 61<183.801 400.142>
VStem: 100 69<0 375.439> 451 69<0 485.569>
LayerCount: 3
Fore
SplineSet
158 426 m 1
 121 461 47 484 23 487 c 1
 43 512 155 593 291 593 c 0
 429 593 520 530 520 422 c 2
 520 0 l 1
 451 0 l 1
 451 418 l 2
 451 500 387 532 298 532 c 0
 215 532 158 498 158 498 c 1
 176 493 254 441 271 423 c 1
 258 423 169 400 169 308 c 2
 169 0 l 1
 100 0 l 1
 100 322 l 2
 100 390 158 426 158 426 c 1
EndSplineSet
Validated: 1
Layer: 2
SplineSet
158 426 m 1,0,1
 133 449 133 449 90 466.5 c 128,-1,2
 47 484 47 484 23 487 c 1,3,4
 47 516 47 516 124.5 554.5 c 128,-1,5
 202 593 202 593 291 593 c 0,6,7
 396 593 396 593 458 547.5 c 128,-1,8
 520 502 520 502 520 422 c 2,9,-1
 520 0 l 1,10,-1
 451 0 l 1,11,-1
 451 418 l 2,12,13
 451 532 451 532 298 532 c 0,14,15
 261 532 261 532 226 523.5 c 128,-1,16
 191 515 191 515 174.5 506.5 c 2,17,-1
 158 498 l 1,18,19
 171 494 171 494 214.5 465.5 c 128,-1,20
 258 437 258 437 271 423 c 1,21,22
 264 423 264 423 249.5 417.5 c 128,-1,23
 235 412 235 412 215.5 400.5 c 128,-1,24
 196 389 196 389 182.5 364.5 c 128,-1,25
 169 340 169 340 169 308 c 2,26,-1
 169 0 l 1,27,-1
 100 0 l 1,28,-1
 100 322 l 2,29,30
 100 352 100 352 114.5 378 c 128,-1,31
 129 404 129 404 143.5 415 c 2,32,-1
 158 426 l 1,0,1
EndSplineSet
EndChar

StartChar: uni0E02
Encoding: 3586 3586 129
Width: 648
Flags: W
HStem: 0 61<182 256 325 451.981> 352 50<91.4496 171.746> 532 61<180.681 274.436>
VStem: 34 50<409.386 488.673> 179 50<409.018 489.424> 256 69<61 364.016> 301 69<376.233 505.906> 461 69<70.8936 590>
LayerCount: 3
Fore
SplineSet
193 593 m 0xfb
 332 593 370 504 370 448 c 0xfb
 370 387 325 344 325 293 c 2
 325 61 l 1
 409 61 l 2
 435 61 461 72 461 115 c 2
 461 590 l 1
 530 590 l 1
 530 113 l 2
 530 19 478 0 425 0 c 2
 182 0 l 1
 182 61 l 1
 256 61 l 1
 256 280 l 2xfd
 256 376 301 380 301 447 c 0
 301 515 247 532 206 532 c 0
 196 532 187 531 179 529 c 1
 211 517 229 489 229 446 c 0
 229 403 199 352 129 352 c 0
 71 352 34 398 34 453 c 0
 34 507 73 593 193 593 c 0xfb
132 496 m 0
 101 496 84 472 84 448 c 0
 84 425 101 402 132 402 c 0
 163 402 179 426 179 450 c 0
 179 473 163 496 132 496 c 0
EndSplineSet
Validated: 1
Layer: 2
SplineSet
193 593 m 0,0,1
 286 593 286 593 328 547.5 c 128,-1,2
 370 502 370 502 370 448 c 0,3,4
 370 416 370 416 347.5 366.5 c 128,-1,5
 325 317 325 317 325 293 c 2,6,-1
 325 61 l 1,7,-1
 409 61 l 2,8,9
 461 61 461 61 461 115 c 2,10,-1
 461 590 l 1,11,-1
 530 590 l 1,12,-1
 530 113 l 2,13,14
 530 0 530 0 425 0 c 2,15,-1
 182 0 l 1,16,-1
 182 61 l 1,17,-1
 256 61 l 1,18,-1
 256 280 l 2,19,20
 256 332 256 332 278.5 374.5 c 128,-1,21
 301 417 301 417 301 447 c 0,22,23
 301 493 301 493 272.5 512.5 c 128,-1,24
 244 532 244 532 206 532 c 0,25,26
 191 532 191 532 179 529 c 1,27,28
 229 510 229 510 229 446 c 0,29,30
 229 409 229 409 203.5 380.5 c 128,-1,31
 178 352 178 352 129 352 c 0,32,33
 87 352 87 352 60.5 381.5 c 128,-1,34
 34 411 34 411 34 453 c 0,35,36
 34 504 34 504 73 548.5 c 128,-1,37
 112 593 112 593 193 593 c 0,0,1
132 496 m 256,38,39
 110 496 110 496 97 481.5 c 128,-1,40
 84 467 84 467 84 448 c 0,41,42
 84 430 84 430 97 416 c 128,-1,43
 110 402 110 402 132 402 c 256,44,45
 154 402 154 402 166.5 416.5 c 128,-1,46
 179 431 179 431 179 450 c 128,-1,47
 179 469 179 469 166.5 482.5 c 128,-1,48
 154 496 154 496 132 496 c 256,38,39
EndSplineSet
EndChar

StartChar: uni0E03
Encoding: 3587 3587 130
Width: 677
Flags: W
HStem: 0 61<239 310 379 489.42> 260 50<112.354 192.059> 407 50<111.946 191.62> 570 20G<104.5 189.783 280.783 348 497 566>
VStem: 40 65<316.576 495.525> 199 50<316.398 400.133> 310 69<61 436.222> 350 69<443.09 512.606> 497 69<69.4792 590>
LayerCount: 3
Fore
SplineSet
446 61 m 2xfe80
 487 61 497 88 497 114 c 2
 497 590 l 1
 566 590 l 1
 566 113 l 2
 566 15 501 0 460 0 c 2
 239 0 l 1
 239 61 l 1
 310 61 l 1
 310 424 l 2xfe80
 310 428 350 457 350 477 c 0
 350 500 311 529 308 529 c 1
 235 492 l 1
 167 529 l 1
 116 505 106 453 106 443 c 1
 120 450 134 457 148 457 c 0
 225 457 249 396 249 357 c 0
 249 302 206 260 152 260 c 0
 106 260 40 293 40 399 c 0
 40 436 54 546 155 593 c 1
 235 547 l 1
 316 593 l 1
 380 556 419 495 419 493 c 2
 419 460 l 2xfd80
 419 458 397 429 379 417 c 1
 379 61 l 1
 446 61 l 2xfe80
152 310 m 0
 184 310 199 334 199 359 c 0
 199 383 184 407 152 407 c 0
 120 407 105 383 105 359 c 0
 105 334 120 310 152 310 c 0
EndSplineSet
Validated: 1
Layer: 2
SplineSet
446 61 m 2,0,1
 497 61 497 61 497 114 c 2,2,-1
 497 590 l 1,3,-1
 566 590 l 1,4,-1
 566 113 l 2,5,6
 566 48 566 48 534 24 c 128,-1,7
 502 0 502 0 460 0 c 2,8,-1
 239 0 l 1,9,-1
 239 61 l 1,10,-1
 310 61 l 1,11,-1
 310 424 l 1,12,-1
 330 444.5 l 2,13,14
 350 465 350 465 350 477 c 0,15,16
 350 487 350 487 340 500 c 128,-1,17
 330 513 330 513 320 521 c 128,-1,18
 310 529 310 529 308 529 c 2,19,-1
 235 492 l 1,20,-1
 167 529 l 1,21,22
 144 518 144 518 129 498 c 128,-1,23
 114 478 114 478 110 464.5 c 128,-1,24
 106 451 106 451 106 443 c 1,25,26
 134 457 134 457 148 457 c 0,27,28
 200 457 200 457 224.5 425.5 c 128,-1,29
 249 394 249 394 249 357 c 0,30,31
 249 316 249 316 221 288 c 128,-1,32
 193 260 193 260 152 260 c 0,33,34
 110 260 110 260 75 293.5 c 128,-1,35
 40 327 40 327 40 399 c 0,36,37
 40 417 40 417 44 439 c 128,-1,38
 48 461 48 461 59 491 c 128,-1,39
 70 521 70 521 95 549 c 128,-1,40
 120 577 120 577 155 593 c 1,41,-1
 235 547 l 1,42,-1
 316 593 l 1,43,44
 345 576 345 576 370.5 551.5 c 128,-1,45
 396 527 396 527 407.5 511 c 128,-1,46
 419 495 419 495 419 493 c 2,47,-1
 419 460 l 2,48,49
 419 459 419 459 413 451 c 128,-1,50
 407 443 407 443 397 432.5 c 128,-1,51
 387 422 387 422 379 417 c 1,52,-1
 379 61 l 1,53,-1
 446 61 l 2,0,1
152 310 m 256,54,55
 175 310 175 310 187 324.5 c 128,-1,56
 199 339 199 339 199 359 c 256,57,58
 199 379 199 379 187 393 c 128,-1,59
 175 407 175 407 152 407 c 256,60,61
 129 407 129 407 117 393 c 128,-1,62
 105 379 105 379 105 359 c 256,63,64
 105 339 105 339 117 324.5 c 128,-1,65
 129 310 129 310 152 310 c 256,54,55
EndSplineSet
EndChar

StartChar: uni0E04
Encoding: 3588 3588 131
Width: 613
Flags: W
HStem: 0 21G<123 192 432 501> 227 50<192.342 268.169> 371 50<189.262 268.093> 532 61<172.383 365.198>
VStem: 26 69<276.166 455.887> 123 69<0 166.754> 126 56<283.067 363.57> 275 50<283.591 363.987> 432 69<0 470.827>
LayerCount: 3
Fore
SplineSet
26 377 m 0xfd80
 26 464 83 593 282 593 c 0
 419 593 501 510 501 397 c 2
 501 0 l 1
 432 0 l 1
 432 394 l 2
 432 477 375 532 267 532 c 0
 120 532 95 424 95 371 c 0
 95 305 123 256 126 253 c 1
 126 317 l 2xfb80
 126 353 150 421 224 421 c 0
 280 421 325 384 325 322 c 0
 325 266 280 227 230 227 c 0
 208 227 192 235 192 235 c 1
 192 0 l 1
 123 0 l 1
 123 98 l 2
 123 115 120 130 112 146 c 1
 90 197 26 284 26 377 c 0xfd80
228 277 m 0
 259 277 275 300 275 324 c 0
 275 348 259 371 228 371 c 0
 197 371 182 348 182 324 c 0
 182 300 197 277 228 277 c 0
EndSplineSet
Validated: 1
Layer: 2
SplineSet
26 377 m 0,0,1
 26 413 26 413 38.5 448 c 128,-1,2
 51 483 51 483 78.5 517 c 128,-1,3
 106 551 106 551 158.5 572 c 128,-1,4
 211 593 211 593 282 593 c 0,5,6
 383 593 383 593 442 538 c 128,-1,7
 501 483 501 483 501 397 c 2,8,-1
 501 0 l 1,9,-1
 432 0 l 1,10,-1
 432 394 l 2,11,12
 432 458 432 458 389 495 c 128,-1,13
 346 532 346 532 267 532 c 0,14,15
 215 532 215 532 178.5 515 c 128,-1,16
 142 498 142 498 125.5 470.5 c 128,-1,17
 109 443 109 443 102 419 c 128,-1,18
 95 395 95 395 95 371 c 0,19,20
 95 341 95 341 102.5 312 c 128,-1,21
 110 283 110 283 116.5 269.5 c 128,-1,22
 123 256 123 256 126 253 c 2,23,-1
 126 317 l 2,24,25
 126 353 126 353 150.5 387 c 128,-1,26
 175 421 175 421 224 421 c 0,27,28
 267 421 267 421 296 394 c 128,-1,29
 325 367 325 367 325 322 c 0,30,31
 325 281 325 281 297 254 c 128,-1,32
 269 227 269 227 230 227 c 0,33,34
 220 227 220 227 210.5 229 c 128,-1,35
 201 231 201 231 196.5 233 c 2,36,-1
 192 235 l 1,37,-1
 192 0 l 1,38,-1
 123 0 l 1,39,-1
 123 98 l 2,40,41
 123 124 123 124 112 146 c 0,42,43
 108 155 108 155 82 202.5 c 128,-1,44
 56 250 56 250 41 292.5 c 128,-1,45
 26 335 26 335 26 377 c 0,0,1
228 277 m 256,46,47
 250 277 250 277 262.5 291 c 128,-1,48
 275 305 275 305 275 324 c 256,49,50
 275 343 275 343 262.5 357 c 128,-1,51
 250 371 250 371 228 371 c 256,52,53
 206 371 206 371 194 357 c 128,-1,54
 182 343 182 343 182 324 c 256,55,56
 182 305 182 305 194 291 c 128,-1,57
 206 277 206 277 228 277 c 256,46,47
EndSplineSet
EndChar

StartChar: uni0E05
Encoding: 3589 3589 132
Width: 591
Flags: W
HStem: 0 21G<99.5 173 406 475> 226 50<209.865 294.652> 377 50<211.183 294.541> 573 20G<118 220.769 308.154 367.5>
VStem: 10 69<256.212 455.398> 101 72<0 78.7827> 303 50<284.644 369.158> 406 69<0 495.986>
LayerCount: 3
Fore
SplineSet
337 593 m 1
 398 580 475 528 475 414 c 2
 475 0 l 1
 406 0 l 1
 406 409 l 2
 406 479 381 516 343 535 c 1
 264 472 l 1
 181 535 l 1
 130 509 79 454 79 366 c 0
 79 299 120 204 123 199 c 1
 123 200 121 212 121 230 c 0
 121 319 146 427 247 427 c 0
 303 427 353 393 353 324 c 0
 353 274 323 226 244 226 c 0
 207 226 184 248 184 248 c 1
 181 231 171 172 171 80 c 0
 171 54 172 30 173 0 c 1
 101 0 l 1
 98 20 100 46 81 107 c 0
 59 181 10 253 10 359 c 0
 10 449 41 536 195 593 c 1
 262 541 l 1
 337 593 l 1
253 276 m 0
 287 276 303 301 303 326 c 0
 303 352 287 377 253 377 c 0
 219 377 201 352 201 326 c 0
 201 301 219 276 253 276 c 0
EndSplineSet
Validated: 1
Layer: 2
SplineSet
337 593 m 1,0,1
 392 581 392 581 433.5 536.5 c 128,-1,2
 475 492 475 492 475 414 c 2,3,-1
 475 0 l 1,4,-1
 406 0 l 1,5,-1
 406 409 l 2,6,7
 406 504 406 504 343 535 c 1,8,-1
 264 472 l 1,9,-1
 181 535 l 1,10,11
 138 513 138 513 108.5 470 c 128,-1,12
 79 427 79 427 79 366 c 0,13,14
 79 336 79 336 90 294.5 c 128,-1,15
 101 253 101 253 110.5 228.5 c 128,-1,16
 120 204 120 204 123 199 c 2,17,-1
 123 200.5 l 2,18,19
 123 202 123 202 122.5 205 c 128,-1,20
 122 208 122 208 121.5 211.5 c 128,-1,21
 121 215 121 215 121 220 c 128,-1,22
 121 225 121 225 121 230 c 0,23,24
 121 281 121 281 130.5 322 c 128,-1,25
 140 363 140 363 170 395 c 128,-1,26
 200 427 200 427 247 427 c 0,27,28
 292 427 292 427 322.5 400 c 128,-1,29
 353 373 353 373 353 324 c 0,30,31
 353 282 353 282 326 254 c 128,-1,32
 299 226 299 226 244 226 c 0,33,34
 228 226 228 226 213 231.5 c 128,-1,35
 198 237 198 237 191 242.5 c 2,36,-1
 184 248 l 1,37,38
 171 174 171 174 171 80 c 0,39,40
 171 60 171 60 173 0 c 1,41,-1
 101 0 l 2,42,43
 101 2 101 2 99.5 20.5 c 128,-1,44
 98 39 98 39 94 59.5 c 128,-1,45
 90 80 90 80 81 107 c 0,46,47
 74 129 74 129 54 176.5 c 128,-1,48
 34 224 34 224 22 268 c 128,-1,49
 10 312 10 312 10 359 c 0,50,51
 10 437 10 437 49.5 495.5 c 128,-1,52
 89 554 89 554 195 593 c 1,53,-1
 262 541 l 1,54,-1
 337 593 l 1,0,1
253 276 m 256,55,56
 277 276 277 276 290 291 c 128,-1,57
 303 306 303 306 303 326 c 0,58,59
 303 347 303 347 290 362 c 128,-1,60
 277 377 277 377 253 377 c 256,61,62
 229 377 229 377 215 362 c 128,-1,63
 201 347 201 347 201 326 c 0,64,65
 201 306 201 306 215 291 c 128,-1,66
 229 276 229 276 253 276 c 256,55,56
EndSplineSet
EndChar

StartChar: uni0E06
Encoding: 3590 3590 133
Width: 770
Flags: W
HStem: -3 61<231.273 286.758 515.743 582.984> 190 61<235.433 288> 260 50<91.941 172.064> 406 50<91.9742 171.78> 570 20G<112.5 169.783 260.783 330.5 589 658>
VStem: 20 65<316.783 493.176> 162 61<62.7899 178.096> 180 50<316.884 398.467> 288 69<59.9856 144 251 436.435> 331 69<444.25 513.41> 589 69<60.3301 590>
DStem2: 357 234 357 144 0.715126 -0.698995<62.9096 267.961>
LayerCount: 3
Back
SplineSet
400 460 m 2xfd60
 400 457 378 436 357 415 c 1
 357 240 l 5
 490 110 l 6
 512 89 533 58 561 58 c 0
 586 58 589 98 589 122 c 2
 589 590 l 1
 658 590 l 1
 658 134 l 2
 658 87 658 39 619 15 c 0
 601 3 583 -3 564 -3 c 0
 537 -3 509 3 484 27 c 6
 357 150 l 5
 357 83 l 2
 357 37 319 -3 271 -3 c 0
 201 -3 162 54 162 117 c 0
 162 166 187 251 288 251 c 1
 288 425 l 2xfea0
 288 428 331 456 331 477 c 0xfc60
 331 503 290 529 288 529 c 2xfca0
 215 492 l 1
 147 529 l 1
 102 508 86 458 86 443 c 1
 100 449 115 456 130 456 c 0
 208 456 230 392 230 358 c 0
 230 302 185 260 131 260 c 0
 85 260 20 294 20 399 c 0
 20 512 90 570 135 593 c 1
 215 547 l 1
 296 593 l 1
 365 553 400 492 400 492 c 1
 400 460 l 2xfd60
132 310 m 0
 164 310 180 334 180 358 c 0xfd20
 180 382 164 406 132 406 c 0
 100 406 85 382 85 358 c 0
 85 334 100 310 132 310 c 0
258 58 m 0
 287 58 288 76 288 95 c 2
 288 190 l 1
 251 190 223 177 223 118 c 0xfea0
 223 86 235 58 258 58 c 0
EndSplineSet
Fore
SplineSet
400 460 m 2xfd60
 400 457 378 436 357 415 c 1
 357 234 l 1
 490 104 l 2
 512 83 533 58 561 58 c 0
 586 58 589 98 589 122 c 2
 589 590 l 1
 658 590 l 1
 658 134 l 2
 658 65 646 -3 564 -3 c 0
 537 -3 509 -3 484 21 c 2
 357 144 l 1
 357 83 l 2
 357 37 319 -3 271 -3 c 0
 201 -3 162 54 162 117 c 0
 162 166 187 251 288 251 c 1
 288 425 l 2xfea0
 288 428 331 456 331 477 c 0xfc60
 331 503 290 529 288 529 c 2xfca0
 215 492 l 1
 147 529 l 1
 102 508 86 458 86 443 c 1
 100 449 115 456 130 456 c 0
 208 456 230 392 230 358 c 0
 230 302 185 260 131 260 c 0
 85 260 20 294 20 399 c 0
 20 512 90 570 135 593 c 1
 215 547 l 1
 296 593 l 1
 365 553 400 492 400 492 c 1
 400 460 l 2xfd60
132 310 m 0
 164 310 180 334 180 358 c 0xfd20
 180 382 164 406 132 406 c 0
 100 406 85 382 85 358 c 0
 85 334 100 310 132 310 c 0
258 58 m 0
 287 58 288 76 288 95 c 2
 288 190 l 1
 251 190 223 177 223 118 c 0xfea0
 223 86 235 58 258 58 c 0
EndSplineSet
Validated: 1
Layer: 2
SplineSet
400 460 m 2,0,1
 400 458 400 458 357 415 c 1,2,-1
 357 234 l 1,3,-1
 490 104 l 2,4,5
 493 102 493 102 501 94 c 128,-1,6
 509 86 509 86 512.5 82.5 c 128,-1,7
 516 79 516 79 523 73 c 128,-1,8
 530 67 530 67 535 64.5 c 128,-1,9
 540 62 540 62 547 60 c 128,-1,10
 554 58 554 58 561 58 c 0,11,12
 589 58 589 58 589 122 c 2,13,-1
 589 590 l 1,14,-1
 658 590 l 1,15,-1
 658 134 l 2,16,17
 658 105 658 105 654.5 83 c 128,-1,18
 651 61 651 61 642 40 c 128,-1,19
 633 19 633 19 613 8 c 128,-1,20
 593 -3 593 -3 564 -3 c 0,21,22
 509 -3 509 -3 484 21 c 2,23,-1
 357 144 l 1,24,-1
 357 83 l 2,25,26
 357 48 357 48 332 22.5 c 128,-1,27
 307 -3 307 -3 271 -3 c 0,28,29
 221 -3 221 -3 191.5 32 c 128,-1,30
 162 67 162 67 162 117 c 0,31,32
 162 166 162 166 191.5 208.5 c 128,-1,33
 221 251 221 251 288 251 c 1,34,-1
 288 425 l 2,35,36
 288 426 288 426 299 434.5 c 128,-1,37
 310 443 310 443 320.5 455.5 c 128,-1,38
 331 468 331 468 331 477 c 0,39,40
 331 489 331 489 320.5 502 c 128,-1,41
 310 515 310 515 300 522 c 128,-1,42
 290 529 290 529 288 529 c 2,43,-1
 215 492 l 1,44,-1
 147 529 l 1,45,46
 117 515 117 515 101.5 487.5 c 128,-1,47
 86 460 86 460 86 443 c 1,48,49
 116 456 116 456 130 456 c 0,50,51
 182 456 182 456 206 424 c 128,-1,52
 230 392 230 392 230 358 c 0,53,54
 230 316 230 316 201 288 c 128,-1,55
 172 260 172 260 131 260 c 0,56,57
 89 260 89 260 54.5 294 c 128,-1,58
 20 328 20 328 20 399 c 0,59,60
 20 474 20 474 55 522 c 128,-1,61
 90 570 90 570 135 593 c 1,62,-1
 215 547 l 1,63,-1
 296 593 l 1,64,65
 327 575 327 575 353 550 c 128,-1,66
 379 525 379 525 389.5 508.5 c 2,67,-1
 400 492 l 1,68,-1
 400 460 l 2,0,1
132 310 m 256,69,70
 155 310 155 310 167.5 324 c 128,-1,71
 180 338 180 338 180 358 c 256,72,73
 180 378 180 378 167.5 392 c 128,-1,74
 155 406 155 406 132 406 c 256,75,76
 109 406 109 406 97 392 c 128,-1,77
 85 378 85 378 85 358 c 256,78,79
 85 338 85 338 97 324 c 128,-1,80
 109 310 109 310 132 310 c 256,69,70
258 58 m 0,81,82
 272 58 272 58 279 64 c 128,-1,83
 286 70 286 70 287 76.5 c 128,-1,84
 288 83 288 83 288 95 c 2,85,-1
 288 190 l 1,86,87
 257 190 257 190 240 174.5 c 128,-1,88
 223 159 223 159 223 118 c 0,89,90
 223 93 223 93 232 75.5 c 128,-1,91
 241 58 241 58 258 58 c 0,81,82
EndSplineSet
EndChar

StartChar: uni0E07
Encoding: 3591 3591 134
Width: 496
Flags: W
HStem: -6 61<249.661 311.712> 228 63<37 109.993> 401 50<242.062 316.807> 543 50<241.939 321.709>
VStem: 185 50<458.329 535.488> 317 69<57.2732 408> 328 58<457.036 535.18>
LayerCount: 3
Fore
SplineSet
185 495 m 0xfc
 185 558 231 593 285 593 c 0
 359 593 386 543 386 490 c 2xfa
 386 120 l 2
 386 50.390829668 359.043505543 -6 285 -6 c 0
 257 -6 229 7 207 32 c 0
 170 74 162 164 110 207 c 0
 86 227 66 227 37 228 c 1
 37 291 l 1
 62 291 105 291 143 264 c 0
 223 207 224 55 283 55 c 0
 314 55 317 87 317 107 c 2
 317 408 l 1
 317 408 301 401 279 401 c 0
 232 401 185 434 185 495 c 0xfc
282 451 m 0
 313 451 328 474 328 497 c 0
 328 520 313 543 282 543 c 0
 251 543 235 520 235 497 c 0
 235 474 251 451 282 451 c 0
EndSplineSet
Layer: 2
SplineSet
185 495 m 0,0,1
 185 541 185 541 214 567 c 128,-1,2
 243 593 243 593 285 593 c 0,3,4
 337 593 337 593 361.5 563.5 c 128,-1,5
 386 534 386 534 386 490 c 2,6,-1
 386 120 l 2,7,8
 386 63 386 63 361.5 28.5 c 128,-1,9
 337 -6 337 -6 285 -6 c 0,10,11
 240 -6 240 -6 207 32 c 0,12,13
 192 49 192 49 165.5 116 c 128,-1,14
 139 183 139 183 110 207 c 0,15,16
 99 216 99 216 86 221 c 128,-1,17
 73 226 73 226 64.5 226.5 c 128,-1,18
 56 227 56 227 37 228 c 1,19,-1
 37 291 l 1,20,21
 105 291 105 291 143 264 c 0,22,23
 169 245 169 245 190 207.5 c 128,-1,24
 211 170 211 170 221 137.5 c 128,-1,25
 231 105 231 105 247 80 c 128,-1,26
 263 55 263 55 283 55 c 0,27,28
 317 55 317 55 317 107 c 2,29,-1
 317 408 l 1,30,31
 301 401 301 401 279 401 c 0,32,33
 241 401 241 401 213 426.5 c 128,-1,34
 185 452 185 452 185 495 c 0,0,1
282 451 m 256,35,36
 304 451 304 451 316 464.5 c 128,-1,37
 328 478 328 478 328 497 c 256,38,39
 328 516 328 516 316 529.5 c 128,-1,40
 304 543 304 543 282 543 c 256,41,42
 260 543 260 543 247.5 529.5 c 128,-1,43
 235 516 235 516 235 497 c 256,44,45
 235 478 235 478 247.5 464.5 c 128,-1,46
 260 451 260 451 282 451 c 256,35,36
EndSplineSet
EndChar

StartChar: uni0E08
Encoding: 3592 3592 135
Width: 551
Flags: W
HStem: -3 61<300.614 371.471> 212 50<151.361 224.807> 356 50<151.324 229.169> 532 61<140.928 323.844>
VStem: 94 50<268.4 349.6> 225 69<64.9433 219> 236 58<268.268 347.833> 376 69<62.0687 483.729>
LayerCount: 3
Fore
SplineSet
237 532 m 0xfd
 183 532 105 517 71 432 c 1
 12 460 l 1
 54 550 129 593 236 593 c 0xfb
 363 593 445 529 445 426 c 2
 445 95 l 2
 445 37 397 -3 331 -3 c 0
 270 -3 225 35 225 89 c 2
 225 219 l 1xfd
 225 219 210 212 189 212 c 0
 136 212 94 250 94 308 c 0
 94 370 138 406 192 406 c 0
 267 406 294 356 294 302 c 2xfb
 294 107 l 2
 294 84 305 58 337 58 c 0
 371 58 376 86 376 109 c 2
 376 418 l 2
 376 491 320 532 237 532 c 0xfd
190 262 m 0
 221 262 236 286 236 309 c 0
 236 332 221 356 190 356 c 0
 159 356 144 332 144 309 c 0
 144 286 159 262 190 262 c 0
EndSplineSet
Validated: 1
Layer: 2
SplineSet
237 532 m 0,0,1
 111 532 111 532 71 432 c 1,2,-1
 12 460 l 1,3,4
 74 593 74 593 236 593 c 0,5,6
 332 593 332 593 388.5 548 c 128,-1,7
 445 503 445 503 445 426 c 2,8,-1
 445 95 l 2,9,10
 445 52 445 52 413 24.5 c 128,-1,11
 381 -3 381 -3 331 -3 c 0,12,13
 285 -3 285 -3 255 23 c 128,-1,14
 225 49 225 49 225 89 c 2,15,-1
 225 219 l 1,16,17
 210 212 210 212 189 212 c 0,18,19
 148 212 148 212 121 238.5 c 128,-1,20
 94 265 94 265 94 308 c 0,21,22
 94 353 94 353 122 379.5 c 128,-1,23
 150 406 150 406 192 406 c 0,24,25
 245 406 245 406 269.5 376.5 c 128,-1,26
 294 347 294 347 294 302 c 2,27,-1
 294 107 l 2,28,29
 294 87 294 87 304.5 72.5 c 128,-1,30
 315 58 315 58 337 58 c 0,31,32
 376 58 376 58 376 109 c 2,33,-1
 376 418 l 2,34,35
 376 472 376 472 338 502 c 128,-1,36
 300 532 300 532 237 532 c 0,0,1
190 262 m 256,37,38
 212 262 212 262 224 276 c 128,-1,39
 236 290 236 290 236 309 c 256,40,41
 236 328 236 328 224 342 c 128,-1,42
 212 356 212 356 190 356 c 256,43,44
 168 356 168 356 156 342 c 128,-1,45
 144 328 144 328 144 309 c 256,46,47
 144 290 144 290 156 276 c 128,-1,48
 168 262 168 262 190 262 c 256,37,38
EndSplineSet
EndChar

StartChar: uni0E09
Encoding: 3593 3593 136
Width: 596
Flags: W
HStem: -3 61<222.739 277.107 473.74 527.654> 179 61<472 519.793> 199 50<76.2692 151.977> 341 50<76.8075 156.392> 532 61<158.585 347.754>
VStem: 20 50<255.979 334.227> 152 69<59.2035 205> 163 58<255.616 334.384> 403 69<59.2035 152 240 480.684> 534 60<62.1276 169.442>
AnchorPoint: "AboveBase" 479 654 basechar 0
LayerCount: 3
Fore
SplineSet
594 112 m 0xdec0
 594 26 548 -3 497 -3 c 0
 440 -3 408 34 408 80 c 2
 408 152 l 1
 408 152 392 149 351 84 c 0
 317 30 283 -3 238 -3 c 0
 199 -3 152 16 152 90 c 2
 152 205 l 1xdec0
 152 205 136 199 115 199 c 0
 63 199 20 235 20 295 c 0
 20 356 66 391 120 391 c 0
 193 391 221 340 221 288 c 2xbdc0
 221 103 l 2
 221 83 222 58 242 58 c 0
 273 58 300 112 330 158 c 0
 365 213 400 227 403 228 c 1
 403 418 l 2
 403 489 340 532 259 532 c 0
 179 532 121 505 86 437 c 1
 34 466 l 1
 62 519 122 593 254 593 c 0
 382 593 472 531 472 428 c 2
 472 240 l 1
 516 240 594 215 594 112 c 0xdec0
534 110 m 0
 534 133 523 182 482 182 c 0
 476 182 473 179 472 179 c 1
 472 95 l 2
 472 66 480 58 500 58 c 0
 522 58 534 82 534 110 c 0
117 249 m 0xbdc0
 147 249 163 272 163 295 c 0
 163 318 147 341 117 341 c 0
 85 341 70 318 70 295 c 0
 70 272 85 249 117 249 c 0xbdc0
EndSplineSet
Validated: 1
Layer: 2
SplineSet
594 112 m 0,0,1
 594 52 594 52 567 24.5 c 128,-1,2
 540 -3 540 -3 497 -3 c 0,3,4
 456 -3 456 -3 432 20.5 c 128,-1,5
 408 44 408 44 408 80 c 2,6,-1
 408 152 l 1,7,8
 392 149 392 149 351 84 c 0,9,10
 296 -3 296 -3 238 -3 c 0,11,12
 203 -3 203 -3 177.5 18.5 c 128,-1,13
 152 40 152 40 152 90 c 2,14,-1
 152 205 l 1,15,16
 136 199 136 199 115 199 c 0,17,18
 75 199 75 199 47.5 225 c 128,-1,19
 20 251 20 251 20 295 c 256,20,21
 20 339 20 339 49 365 c 128,-1,22
 78 391 78 391 120 391 c 0,23,24
 171 391 171 391 196 361 c 128,-1,25
 221 331 221 331 221 288 c 2,26,-1
 221 103 l 2,27,28
 221 58 221 58 242 58 c 0,29,30
 251 58 251 58 259.5 63 c 128,-1,31
 268 68 268 68 278 80.5 c 128,-1,32
 288 93 288 93 294.5 102 c 128,-1,33
 301 111 301 111 313 130.5 c 128,-1,34
 325 150 325 150 330 158 c 0,35,36
 367 216 367 216 403 228 c 1,37,-1
 403 418 l 2,38,39
 403 470 403 470 362 501 c 128,-1,40
 321 532 321 532 259 532 c 0,41,42
 135 532 135 532 86 437 c 1,43,-1
 34 466 l 1,44,45
 101 593 101 593 254 593 c 0,46,47
 351 593 351 593 411.5 548.5 c 128,-1,48
 472 504 472 504 472 428 c 2,49,-1
 472 240 l 1,50,51
 498 240 498 240 523.5 230.5 c 128,-1,52
 549 221 549 221 571.5 190.5 c 128,-1,53
 594 160 594 160 594 112 c 0,0,1
534 110 m 0,54,55
 534 134 534 134 521.5 158 c 128,-1,56
 509 182 509 182 482 182 c 0,57,58
 479 182 479 182 477 181 c 128,-1,59
 475 180 475 180 473.5 179.5 c 2,60,-1
 472 179 l 1,61,-1
 472 95 l 2,62,63
 472 74 472 74 478.5 66 c 128,-1,64
 485 58 485 58 500 58 c 0,65,66
 516 58 516 58 525 73 c 128,-1,67
 534 88 534 88 534 110 c 0,54,55
117 249 m 0,68,69
 138 249 138 249 150.5 262.5 c 128,-1,70
 163 276 163 276 163 295 c 256,71,72
 163 314 163 314 150.5 327.5 c 128,-1,73
 138 341 138 341 117 341 c 0,74,75
 94 341 94 341 82 327.5 c 128,-1,76
 70 314 70 314 70 295 c 256,77,78
 70 276 70 276 82 262.5 c 128,-1,79
 94 249 94 249 117 249 c 0,68,69
EndSplineSet
EndChar

StartChar: uni0E0A
Encoding: 3594 3594 137
Width: 602
Flags: W
HStem: 0 61<147 221 290 415.912> 352 50<57.7426 136.2> 532 61<145.096 239.305>
VStem: 0 50<409.102 489.005> 143 50<408.641 489.494> 221 69<61 364.016> 266 69<377.575 456.23> 425 69<69.1514 418.992>
LayerCount: 3
Back
SplineSet
144 533 m 1
 170.09 521.819 196 501.145 196 451 c 0
 196 415 176 353 94 353 c 0
 29 353 -5 402 -5 457 c 0
 -5 511 35 593 157 593 c 0
 297 593 335 508 335 452 c 0
 335 386 290 352 290 297 c 2
 290 66 l 1
 374 66 l 2
 404 66 426 82 426 120 c 2
 426 353 l 2
 426 383 423 406 400 429 c 0
 372 455 334 463 334 463 c 1
 317.333 514.332 l 1
 323.333 514.332 392 536 441 564 c 0
 492 592 529 636 529 638 c 1
 555 569 l 1
 552 567 530 543 486 524 c 0
 451 509 402 490 397 490 c 1
 406 490 493 457 493 371 c 2
 493 118 l 2
 493 27.99 449 5.24537e-06 389 0 c 2
 147 0 l 1
 147 66 l 1
 221 66 l 1
 221 284 l 2
 221 380 266 384 266 451 c 0
 266 519 211 536 171 536 c 0
 161 536 152 535 144 533 c 1
97 500 m 0
 66 500 50 476 50 453 c 0
 50 429 66 406 97 406 c 0
 128 406 143 430 143 453 c 0
 143 477 128 500 97 500 c 0
EndSplineSet
Fore
SplineSet
97 496 m 0xf9
 66 496 50 472 50 449 c 0
 50 425 66 402 97 402 c 0
 128 402 143 426 143 449 c 0
 143 473 128 496 97 496 c 0xf9
144 529 m 1
 170 518 193 497 193 447 c 0
 193 411 176 352 94 352 c 0
 29 352 0 398 0 453 c 0
 0 507 35 593 157 593 c 0
 249 593 297 552 319 511 c 1
 332 513 395 538 441 564 c 0
 492 592 529 636 529 638 c 2
 555 569 l 1
 552 567 530 543 486 524 c 0
 451 509 402 486 397 486 c 1
 406 486 494 453 494 367 c 2
 494 113 l 2
 494 23 449 0 389 0 c 2
 147 0 l 1
 147 61 l 1
 221 61 l 1
 221 280 l 2xfd
 221 376 266 380 266 447 c 0xfb
 266 515 211 532 171 532 c 0
 161 532 152 531 144 529 c 1
335 459 m 1xfb
 335 448 l 2xfb
 335 382 290 348 290 293 c 2
 290 61 l 1xfd
 374 61 l 2
 404 61 425 77 425 115 c 2
 425 349 l 2
 425 428 376 449 335 459 c 1xfb
EndSplineSet
Layer: 2
SplineSet
97 496 m 256,0,1
 75 496 75 496 62.5 482 c 128,-1,2
 50 468 50 468 50 449 c 256,3,4
 50 430 50 430 62.5 416 c 128,-1,5
 75 402 75 402 97 402 c 256,6,7
 119 402 119 402 131 416 c 128,-1,8
 143 430 143 430 143 449 c 256,9,10
 143 468 143 468 131 482 c 128,-1,11
 119 496 119 496 97 496 c 256,0,1
144 529 m 1,12,13
 193 508 193 508 193 447 c 0,14,15
 193 411 193 411 171 381.5 c 128,-1,16
 149 352 149 352 94 352 c 0,17,18
 48 352 48 352 24 380.5 c 128,-1,19
 0 409 0 409 0 453 c 0,20,21
 0 475 0 475 8 498 c 128,-1,22
 16 521 16 521 32.5 543 c 128,-1,23
 49 565 49 565 81.5 579 c 128,-1,24
 114 593 114 593 157 593 c 0,25,26
 275 593 275 593 319 511 c 1,27,28
 330 513 330 513 369.5 529.5 c 128,-1,29
 409 546 409 546 441 564 c 0,30,31
 464 577 464 577 486 595 c 128,-1,32
 508 613 508 613 518.5 624.5 c 128,-1,33
 529 636 529 636 529 638 c 2,34,-1
 555 569 l 1,35,-1
 551.5 565.5 l 2,36,37
 548 562 548 562 542 557.5 c 128,-1,38
 536 553 536 553 528.5 547.5 c 128,-1,39
 521 542 521 542 509.5 535.5 c 128,-1,40
 498 529 498 529 486 524 c 2,41,-1
 397 486 l 2,42,43
 405 486 405 486 426 475.5 c 128,-1,44
 447 465 447 465 470.5 435.5 c 128,-1,45
 494 406 494 406 494 367 c 2,46,-1
 494 113 l 2,47,48
 494 50 494 50 466.5 25 c 128,-1,49
 439 0 439 0 389 0 c 2,50,-1
 147 0 l 1,51,-1
 147 61 l 1,52,-1
 221 61 l 1,53,-1
 221 280 l 2,54,55
 221 332 221 332 243.5 374.5 c 128,-1,56
 266 417 266 417 266 447 c 0,57,58
 266 493 266 493 237 512.5 c 128,-1,59
 208 532 208 532 171 532 c 0,60,61
 156 532 156 532 144 529 c 1,12,13
335 459 m 1,62,-1
 335 448 l 2,63,64
 335 414 335 414 312.5 366.5 c 128,-1,65
 290 319 290 319 290 293 c 2,66,-1
 290 61 l 1,67,-1
 374 61 l 2,68,69
 425 61 425 61 425 115 c 2,70,-1
 425 349 l 2,71,72
 425 402 425 402 400 425.5 c 128,-1,73
 375 449 375 449 335 459 c 1,62,-1
EndSplineSet
EndChar

StartChar: uni0E0B
Encoding: 3595 3595 138
Width: 648
Flags: W
HStem: 0 61<202 276 345 473.055> 276 50<74.704 153.882> 420 50<89.338 154.202> 581 20G<124.5 166.5 247 301>
VStem: 10 58<332.391 411.299> 161 50<333.2 413.941> 276 69<61 412> 481 69<68.7656 423.858>
LayerCount: 3
Back
SplineSet
431 66 m 2
 471 66 481 91.975 481 120 c 2
 481 353 l 2
 481 383 478 406 455 429 c 0
 429 455 391 463 391 463 c 1
 377 510 l 1
 380 510 448 536 497 564 c 0
 549 592 584 636 584 638 c 1
 610 569 l 1
 607 567 586 543 541 524 c 0
 506 509 457 490 452 490 c 1
 458.212 490 550 460.124 550 371 c 2
 550 118 l 2
 550 55 527 7.16867e-06 445 0 c 2
 202 0 l 1
 202 66 l 1
 276 66 l 1
 276 428 l 1
 322 475 l 1
 322 475 316 495 305 507 c 0
 287 529 274 532 274 532 c 1
 208 498 l 1
 143 532 l 1
 106.934 524.272 89 473.894 89 468 c 1
 89 468 100.481 470.816 116.493 470.816 c 0
 193.779 470.816 213.101 409.516 213.101 372.675 c 0
 213.101 329.928 188.253 273.849 116.139 273.849 c 0
 73.7948 273.849 10.2782 290.736 10.2782 402.738 c 0
 10.2782 543.439 123.196 595 126 595 c 1
 207 561 l 1
 287 593 l 1
 290 593 328 578 348 553 c 0
 359 538 374 523 379 507 c 2
 391 463 l 1
 345 412 l 1
 345 66 l 1
 431 66 l 2
115 420 m 0
 83.122 420 67.1182 395.933 67.1182 372.154 c 0
 67.1182 348.939 82.372 326 113 326 c 0
 144.378 326 160.132 350.077 160.132 373.86 c 0
 160.132 397.07 145.128 420 115 420 c 0
EndSplineSet
Fore
SplineSet
116 420 m 0
 84 420 68 396 68 372 c 0
 68 349 83 326 114 326 c 0
 145 326 161 350 161 374 c 0
 161 397 146 420 116 420 c 0
431 61 m 2
 471 61 481 87 481 115 c 2
 481 353 l 2
 481 426 438 450 391 463 c 1
 345 412 l 1
 345 61 l 1
 431 61 l 2
378 510 m 1
 386 513 449 538 497 564 c 0
 549 592 584 636 584 638 c 2
 610 569 l 1
 607 567 586 543 541 524 c 0
 506 509 457 490 452 490 c 1
 458 490 550 460 550 371 c 2
 550 113 l 2
 550 50 527 0 445 0 c 2
 202 0 l 1
 202 61 l 1
 276 61 l 1
 276 428 l 1
 322 475 l 1
 314 500 292 526 274 532 c 1
 208 500 l 1
 143 532 l 1
 107 524 89 473 89 467 c 1
 89 467 100 470 116 470 c 0
 194 470 211 410 211 373 c 0
 211 330 188 276 116 276 c 0
 74 276 10 291 10 403 c 0
 10 543 123 601 126 601 c 1
 207 561 l 1
 287 601 l 1
 315 591 352 562 378 510 c 1
EndSplineSet
Layer: 2
SplineSet
116 420 m 0,0,1
 93 420 93 420 80.5 406 c 128,-1,2
 68 392 68 392 68 372 c 0,3,4
 68 353 68 353 80 339.5 c 128,-1,5
 92 326 92 326 114 326 c 256,6,7
 136 326 136 326 148.5 340.5 c 128,-1,8
 161 355 161 355 161 374 c 256,9,10
 161 393 161 393 149 406.5 c 128,-1,11
 137 420 137 420 116 420 c 0,0,1
431 61 m 2,12,13
 481 61 481 61 481 115 c 2,14,-1
 481 353 l 2,15,16
 481 403 481 403 457 427 c 128,-1,17
 433 451 433 451 391 463 c 1,18,-1
 345 412 l 1,19,-1
 345 61 l 1,20,-1
 431 61 l 2,12,13
378 510 m 1,21,22
 441 534 441 534 497 564 c 0,23,24
 520 577 520 577 542 595 c 128,-1,25
 564 613 564 613 574 624.5 c 128,-1,26
 584 636 584 636 584 638 c 2,27,-1
 610 569 l 1,28,-1
 606.5 565.5 l 2,29,30
 603 562 603 562 597.5 557.5 c 128,-1,31
 592 553 592 553 584 547.5 c 128,-1,32
 576 542 576 542 565 535.5 c 128,-1,33
 554 529 554 529 541 524 c 0,34,35
 462 490 462 490 452 490 c 1,36,37
 455 490 455 490 464.5 486.5 c 128,-1,38
 474 483 474 483 489 473.5 c 128,-1,39
 504 464 504 464 517.5 451.5 c 128,-1,40
 531 439 531 439 540.5 417.5 c 128,-1,41
 550 396 550 396 550 371 c 2,42,-1
 550 113 l 2,43,44
 550 0 550 0 445 0 c 2,45,-1
 202 0 l 1,46,-1
 202 61 l 1,47,-1
 276 61 l 1,48,-1
 276 428 l 1,49,-1
 322 475 l 1,50,51
 316 494 316 494 302 510.5 c 128,-1,52
 288 527 288 527 274 532 c 1,53,-1
 208 500 l 1,54,-1
 143 532 l 1,55,56
 120 527 120 527 104.5 502 c 128,-1,57
 89 477 89 477 89 467 c 1,58,59
 100 470 100 470 116 470 c 0,60,61
 168 470 168 470 189.5 440 c 128,-1,62
 211 410 211 410 211 373 c 0,63,64
 211 335 211 335 188 305.5 c 128,-1,65
 165 276 165 276 116 276 c 0,66,67
 10 276 10 276 10 403 c 0,68,69
 10 442 10 442 22 477 c 128,-1,70
 34 512 34 512 50 533.5 c 128,-1,71
 66 555 66 555 83.5 571 c 128,-1,72
 101 587 101 587 112.5 594 c 128,-1,73
 124 601 124 601 126 601 c 2,74,-1
 207 561 l 1,75,-1
 287 601 l 1,76,77
 342 581 342 581 378 510 c 1,21,22
EndSplineSet
EndChar

StartChar: uni0E0C
Encoding: 3596 3596 139
Width: 792
Flags: W
HStem: -3 61<342.104 384.087 566.677 631.85> -3 50<135.744 215.378> 139 50<140.423 215.082> 178 61<345.756 385> 532 61<147.605 346.757>
VStem: 71 69<183 373.997> 71 58<53.0688 132.964> 222 50<53.0729 132.168> 283 54<59.8427 171.687> 385 69<58.0154 149 235.165 497.689> 605 69<58.2282 590>
LayerCount: 3
Fore
SplineSet
272 95 m 0x2de0
 272 32 226 -3 173 -3 c 0
 99 -3 71 48 71 100 c 2x6be0
 71 322 l 2x6de0
 71 390 129 426 129 426 c 1
 91 462 16 484 -6 487 c 1
 14 513 104 593 245 593 c 0
 382 593 454 535 454 449 c 2
 454 228 l 1
 454 228 487 224 521 167 c 0
 543 130 568 58 590 58 c 0
 604 58 605 87 605 101 c 2
 605 590 l 1
 674 590 l 1
 674 93 l 2
 674 51 660 -3 604 -3 c 0
 572 -3 547 14 524 52 c 0
 490 107 454 149 454 149 c 1
 454 69 l 2
 454 36 424 -3 379 -3 c 0
 318 -3 283 53 283 115 c 0
 283 217 345 233 385 239 c 1x9be0
 385 446 l 2
 385 503 335 532 243 532 c 0
 159 532 130 498 130 498 c 1
 148 498 243 423 243 423 c 1
 232 423 140 400 140 308 c 2
 140 183 l 1
 150 187 162 189 174 189 c 0
 219 189 272 163 272 95 c 0x2de0
337 112 m 0
 337 85 344 58 367 58 c 0
 376 58 385 69 385 78 c 2
 385 178 l 1x99e0
 364 178 337 176 337 112 c 0
175 47 m 0x6be0
 207 47 222 70 222 93 c 0
 222 116 207 139 175 139 c 0
 144 139 129 116 129 93 c 0
 129 70 144 47 175 47 c 0x6be0
EndSplineSet
Validated: 1
Layer: 2
SplineSet
272 95 m 0,0,1
 272 50 272 50 243.5 23.5 c 128,-1,2
 215 -3 215 -3 173 -3 c 0,3,4
 121 -3 121 -3 96 27 c 128,-1,5
 71 57 71 57 71 100 c 2,6,-1
 71 322 l 2,7,8
 71 352 71 352 85.5 378 c 128,-1,9
 100 404 100 404 114.5 415 c 2,10,-1
 129 426 l 1,11,12
 104 450 104 450 61 467 c 128,-1,13
 18 484 18 484 -6 487 c 1,14,15
 19 520 19 520 86 556.5 c 128,-1,16
 153 593 153 593 245 593 c 0,17,18
 346 593 346 593 400 554 c 128,-1,19
 454 515 454 515 454 449 c 2,20,-1
 454 228 l 1,21,22
 458 228 458 228 464.5 225.5 c 128,-1,23
 471 223 471 223 488.5 207.5 c 128,-1,24
 506 192 506 192 521 167 c 0,25,26
 528 156 528 156 542.5 124.5 c 128,-1,27
 557 93 557 93 568.5 75.5 c 128,-1,28
 580 58 580 58 590 58 c 0,29,30
 605 58 605 58 605 101 c 2,31,-1
 605 590 l 1,32,-1
 674 590 l 1,33,-1
 674 93 l 2,34,35
 674 54 674 54 658 25.5 c 128,-1,36
 642 -3 642 -3 604 -3 c 0,37,38
 557 -3 557 -3 524 52 c 0,39,40
 509 76 509 76 491.5 100.5 c 128,-1,41
 474 125 474 125 464 137 c 2,42,-1
 454 149 l 1,43,-1
 454 69 l 2,44,45
 454 42 454 42 432.5 19.5 c 128,-1,46
 411 -3 411 -3 379 -3 c 0,47,48
 335 -3 335 -3 309 31.5 c 128,-1,49
 283 66 283 66 283 115 c 0,50,51
 283 151 283 151 292.5 176 c 128,-1,52
 302 201 302 201 319.5 213.5 c 128,-1,53
 337 226 337 226 351.5 231 c 128,-1,54
 366 236 366 236 385 239 c 1,55,-1
 385 446 l 2,56,57
 385 532 385 532 243 532 c 0,58,59
 206 532 206 532 177.5 523.5 c 128,-1,60
 149 515 149 515 139.5 506.5 c 2,61,-1
 130 498 l 1,62,63
 138 498 138 498 166 479 c 128,-1,64
 194 460 194 460 218.5 441.5 c 2,65,-1
 243 423 l 2,66,67
 237 423 237 423 222 417.5 c 128,-1,68
 207 412 207 412 187.5 400.5 c 128,-1,69
 168 389 168 389 154 364.5 c 128,-1,70
 140 340 140 340 140 308 c 2,71,-1
 140 183 l 1,72,73
 155 189 155 189 174 189 c 0,74,75
 213 189 213 189 242.5 165.5 c 128,-1,76
 272 142 272 142 272 95 c 0,0,1
337 112 m 0,77,78
 337 58 337 58 367 58 c 0,79,80
 374 58 374 58 379.5 64.5 c 128,-1,81
 385 71 385 71 385 78 c 2,82,-1
 385 178 l 1,83,84
 371 178 371 178 362.5 175.5 c 128,-1,85
 354 173 354 173 345.5 157.5 c 128,-1,86
 337 142 337 142 337 112 c 0,77,78
175 47 m 0,87,88
 198 47 198 47 210 60.5 c 128,-1,89
 222 74 222 74 222 93 c 256,90,91
 222 112 222 112 210 125.5 c 128,-1,92
 198 139 198 139 175 139 c 0,93,94
 153 139 153 139 141 125.5 c 128,-1,95
 129 112 129 112 129 93 c 256,96,97
 129 74 129 74 141 60.5 c 128,-1,98
 153 47 153 47 175 47 c 0,87,88
EndSplineSet
EndChar

StartChar: uni0E0D
Encoding: 3597 3597 140
Width: 800
Flags: W
HStem: -278 61<465.494 558.205> -104 47<378.32 452.097> -3 50<148.802 226.767> 0 61<353 395 464 622.777> 138 50<152.08 227.628> 532 61<146.779 359.148>
VStem: 83 69<182 375.439> 83 58<55.2602 131.419> 234 50<53.9166 131.796> 323 50<-185.591 -108.933> 395 69<61 499.486> 457 50<-184.486 -109.193> 612 69<-160.053 -55> 627 69<63.8039 590>
LayerCount: 3
Back
SplineSet
717 110 m 1
 717 110 l 0
 717 86 719 64 707 43 c 0
 693 15 665 0 635 0 c 2
 388 0 l 5
 388 66 l 1
 431 66 l 1
 431 445 l 2
 431 503 383 532 296 532 c 0
 210 532 176 498 176 498 c 2
 179 498 208 483 233 466 c 0
 258 451 290 423 290 423 c 1
 285 423 244 415 218 386 c 0
 198 366 187 339 187 308 c 2
 187 184 l 1
 187 184 225 199 264 182 c 0
 302 167 325 129 317 77 c 0
 310 29 270 -2 219 -2 c 0
 146 -2 118 49 118 101 c 2
 118 322 l 2
 118 340 124 365 139 389 c 0
 152 412 176 426 176 426 c 1
 176 426 150 451 116 463 c 0
 86 475 69 483 41 487 c 1
 61 513 152 587 293 593 c 0
 434 599 500 527 500 448 c 2
 500 66 l 1
 612 66 l 2
 622 66 632 69 641 80 c 0
 650 90 648 101 648 113 c 2
 648 590 l 1
 717 590 l 1
 717 110 l 1
711 -61 m 1
 711 -61 l 0
 713 -78 710 -149 679 -198 c 0
 655 -239 604 -279 535 -284 c 0
 449 -288 365 -254 357 -170 c 0
 351 -123 374 -64 446 -63 c 0
 513 -63 549 -118 536 -175 c 0
 529 -212 500 -218 498 -218 c 0
 500 -218 524 -230 559 -218 c 0
 595 -207 616 -185 632 -152 c 0
 644 -121 645 -61 645 -61 c 1
 711 -61 l 1
219 49 m 0
 219 49 l 0
 282 49 282 141 219 141 c 0
 158 141 158 49 219 49 c 0
449 -110 m 0
 394 -110 392 -196 448 -196 c 0
 504 -196 506 -110 449 -110 c 0
EndSplineSet
Fore
SplineSet
590 61 m 2xdde0
 610 61 627 72 627 102 c 2
 627 590 l 1
 696 590 l 1
 696 82 l 2
 696 12 640 0 615 0 c 2
 353 0 l 1
 353 61 l 1
 395 61 l 1
 395 445 l 2
 395 497 361 532 250 532 c 0
 171 532 129 501 129 501 c 1
 157 501 254 423 254 423 c 1
 241 423 152 400 152 308 c 2
 152 182 l 1xdee4
 152 182 167 188 189 188 c 0
 222 188 284 169 284 96 c 0
 284 35 241 -3 184 -3 c 0
 110 -3 83 48 83 100 c 2xedc0
 83 322 l 2xeec0
 83 390 141 426 141 426 c 1
 105 460 33 483 6 487 c 1
 26 513 122 593 274 593 c 0
 404 593 464 524 464 448 c 2
 464 61 l 1
 590 61 l 2xdde0
188 47 m 0xedc0
 219 47 234 70 234 93 c 0
 234 115 219 138 188 138 c 0
 157 138 141 115 141 93 c 0
 141 70 157 47 188 47 c 0xedc0
507 -146 m 0xccd8
 507 -201 471 -212 465 -212 c 1
 466 -212 477 -217 495 -217 c 0
 570 -217 612 -156 612 -66 c 2
 612 -55 l 1
 681 -55 l 1
 681 -66 l 2
 681 -188 603 -278 489 -278 c 0
 405 -278 323 -241 323 -150 c 0
 323 -106 348 -58 413 -57 c 0
 471 -57 507 -98 507 -146 c 0xccd8
415 -104 m 0
 387 -104 373 -126 373 -148 c 0
 373 -169 386 -190 414 -190 c 0
 442 -190 457 -168 457 -146 c 0
 457 -125 443 -104 415 -104 c 0
EndSplineSet
Validated: 1
Layer: 2
SplineSet
590 61 m 2,0,1
 627 61 627 61 627 102 c 2,2,-1
 627 590 l 1,3,-1
 696 590 l 1,4,-1
 696 82 l 2,5,6
 696 36 696 36 669.5 18 c 128,-1,7
 643 0 643 0 615 0 c 2,8,-1
 353 0 l 1,9,-1
 353 61 l 1,10,-1
 395 61 l 1,11,-1
 395 445 l 2,12,13
 395 532 395 532 250 532 c 0,14,15
 215 532 215 532 184.5 524 c 128,-1,16
 154 516 154 516 142 508 c 2,17,-1
 129 501 l 1,18,19
 141 501 141 501 172.5 481.5 c 128,-1,20
 204 462 204 462 229 442 c 2,21,-1
 254 423 l 1,22,23
 247 423 247 423 232.5 417.5 c 128,-1,24
 218 412 218 412 198.5 400.5 c 128,-1,25
 179 389 179 389 165.5 364.5 c 128,-1,26
 152 340 152 340 152 308 c 2,27,-1
 152 182 l 1,28,29
 167 188 167 188 189 188 c 0,30,31
 209 188 209 188 229 181 c 128,-1,32
 249 174 249 174 266.5 152 c 128,-1,33
 284 130 284 130 284 96 c 0,34,35
 284 51 284 51 256 24 c 128,-1,36
 228 -3 228 -3 184 -3 c 0,37,38
 132 -3 132 -3 107.5 26.5 c 128,-1,39
 83 56 83 56 83 100 c 2,40,-1
 83 322 l 2,41,42
 83 352 83 352 97.5 378 c 128,-1,43
 112 404 112 404 126 415 c 2,44,-1
 141 426 l 1,45,46
 117 449 117 449 74.5 466 c 128,-1,47
 32 483 32 483 6 487 c 1,48,49
 31 519 31 519 103 556 c 128,-1,50
 175 593 175 593 274 593 c 0,51,52
 366 593 366 593 415 551 c 128,-1,53
 464 509 464 509 464 448 c 2,54,-1
 464 61 l 1,55,-1
 590 61 l 2,0,1
188 47 m 256,56,57
 210 47 210 47 222 60.5 c 128,-1,58
 234 74 234 74 234 93 c 0,59,60
 234 111 234 111 222 124.5 c 128,-1,61
 210 138 210 138 188 138 c 256,62,63
 166 138 166 138 153.5 124.5 c 128,-1,64
 141 111 141 111 141 93 c 0,65,66
 141 74 141 74 153.5 60.5 c 128,-1,67
 166 47 166 47 188 47 c 256,56,57
507 -146 m 0,68,69
 507 -171 507 -171 497 -187 c 128,-1,70
 487 -203 487 -203 478.5 -207.5 c 128,-1,71
 470 -212 470 -212 465 -212 c 2,72,-1
 466 -212 l 2,73,74
 468 -212 468 -212 470.5 -213 c 128,-1,75
 473 -214 473 -214 476.5 -215 c 128,-1,76
 480 -216 480 -216 485 -216.5 c 128,-1,77
 490 -217 490 -217 495 -217 c 0,78,79
 550 -217 550 -217 581 -176 c 128,-1,80
 612 -135 612 -135 612 -66 c 2,81,-1
 612 -55 l 1,82,-1
 681 -55 l 1,83,-1
 681 -66 l 2,84,85
 681 -158 681 -158 627.5 -218 c 128,-1,86
 574 -278 574 -278 489 -278 c 0,87,88
 419 -278 419 -278 371 -246 c 128,-1,89
 323 -214 323 -214 323 -150 c 0,90,91
 323 -113 323 -113 345.5 -85 c 128,-1,92
 368 -57 368 -57 413 -57 c 8,93,94
 455 -57 455 -57 481 -83 c 128,-1,95
 507 -109 507 -109 507 -146 c 0,68,69
415 -104 m 256,96,97
 395 -104 395 -104 384 -117 c 128,-1,98
 373 -130 373 -130 373 -148 c 0,99,100
 373 -165 373 -165 383.5 -177.5 c 128,-1,101
 394 -190 394 -190 414 -190 c 256,102,103
 434 -190 434 -190 445.5 -177 c 128,-1,104
 457 -164 457 -164 457 -146 c 0,105,106
 457 -129 457 -129 446 -116.5 c 128,-1,107
 435 -104 435 -104 415 -104 c 256,96,97
EndSplineSet
Substitution2: "'ccmp' Pali-Sanskrit Descender Removal" uni0E0D.descless
Substitution2: "Thai Descender Removal Single Substitution" uni0E0D.descless
EndChar

StartChar: uni0E0E
Encoding: 3598 3598 141
Width: 668
Flags: W
HStem: -303 61<129.446 220.713> -163 61<131.573 250.977> -28 20G<320 389> -3 50<90.7536 170.597> 139 50<91.2471 165.682> 532 61<245.748 444.178>
VStem: 34 50<54.4936 131.955> 57 69<-237.935 -170.646> 166 69<183 375.099> 178 57<55.2602 132.384> 320 69<-99.6904 -8> 487 69<-153 490.062>
AnchorPoint: "BelowBase" 554 -311 basechar 0
LayerCount: 3
Fore
SplineSet
222 426 m 1xfeb0
 187 463 108 484 89 487 c 1
 107 513 212 593 348 593 c 0
 486 593 556 524 556 418 c 2
 556 -162 l 1
 405 -317 l 1
 376 -280 336 -236 307 -218 c 1
 287 -242 236 -303 160 -303 c 0
 122 -303 57 -284 57 -213 c 0
 57 -150 110 -102 188 -102 c 0
 242 -102 283 -130 285 -132 c 1
 306 -98 320 -36 320 -8 c 1
 389 -8 l 1
 389 -76 336 -164 336 -164 c 1
 408 -225 l 1
 487 -153 l 1
 487 415 l 2
 487 497 442 532 355 532 c 0
 263 532 225 499 222 498 c 1
 243 498 336 423 336 423 c 1
 330 423 235 405 235 308 c 2xfdb0
 235 100 l 2xfc70
 235 48 207 -3 133 -3 c 0
 80 -3 34 33 34 94 c 0
 34 153 76 189 129 189 c 0
 150 189 166 183 166 183 c 1
 166 322 l 2
 166 394 221 425 222 426 c 1xfeb0
131 47 m 0
 162 47 178 70 178 93 c 0
 178 116 162 139 131 139 c 0
 100 139 84 116 84 93 c 0xfe70
 84 70 100 47 131 47 c 0
166 -242 m 0xfdb0
 214 -242 251 -192 251 -179 c 0
 251 -178 215 -163 180 -163 c 0
 138 -163 126 -187 126 -205 c 0
 126 -227 142 -242 166 -242 c 0xfdb0
EndSplineSet
Validated: 1
Layer: 2
SplineSet
222 426 m 1,0,1
 199 450 199 450 156.5 466.5 c 128,-1,2
 114 483 114 483 89 487 c 1,3,4
 110 517 110 517 184.5 555 c 128,-1,5
 259 593 259 593 348 593 c 0,6,7
 449 593 449 593 502.5 546 c 128,-1,8
 556 499 556 499 556 418 c 2,9,-1
 556 -162 l 1,10,-1
 405 -317 l 1,11,12
 347 -243 347 -243 307 -218 c 1,13,14
 236 -303 236 -303 160 -303 c 0,15,16
 123 -303 123 -303 90 -281.5 c 128,-1,17
 57 -260 57 -260 57 -213 c 0,18,19
 57 -165 57 -165 93.5 -133.5 c 128,-1,20
 130 -102 130 -102 188 -102 c 0,21,22
 212 -102 212 -102 236 -109.5 c 128,-1,23
 260 -117 260 -117 271 -123 c 128,-1,24
 282 -129 282 -129 285 -132 c 1,25,26
 300 -108 300 -108 310 -69.5 c 128,-1,27
 320 -31 320 -31 320 -8 c 1,28,-1
 389 -8 l 1,29,30
 389 -38 389 -38 375.5 -77 c 128,-1,31
 362 -116 362 -116 349 -140 c 2,32,-1
 336 -164 l 1,33,-1
 408 -225 l 1,34,-1
 487 -153 l 1,35,-1
 487 415 l 2,36,37
 487 532 487 532 355 532 c 0,38,39
 336 532 336 532 319 530 c 128,-1,40
 302 528 302 528 289 525 c 128,-1,41
 276 522 276 522 265 518.5 c 128,-1,42
 254 515 254 515 246.5 511.5 c 128,-1,43
 239 508 239 508 233.5 505 c 128,-1,44
 228 502 228 502 225 500 c 2,45,-1
 222 498 l 1,46,47
 231 498 231 498 259.5 479 c 128,-1,48
 288 460 288 460 312 441.5 c 2,49,-1
 336 423 l 2,50,51
 333 423 333 423 323.5 420.5 c 128,-1,52
 314 418 314 418 298 410 c 128,-1,53
 282 402 282 402 268.5 390.5 c 128,-1,54
 255 379 255 379 245 357 c 128,-1,55
 235 335 235 335 235 308 c 2,56,-1
 235 100 l 2,57,58
 235 57 235 57 210 27 c 128,-1,59
 185 -3 185 -3 133 -3 c 0,60,61
 92 -3 92 -3 63 23.5 c 128,-1,62
 34 50 34 50 34 94 c 0,63,64
 34 137 34 137 61 163 c 128,-1,65
 88 189 88 189 129 189 c 0,66,67
 138 189 138 189 147.5 187.5 c 128,-1,68
 157 186 157 186 161.5 184.5 c 2,69,-1
 166 183 l 1,70,-1
 166 322 l 2,71,72
 166.116828345 386.287625551 166.116828345 386.287625551 222 426 c 1,0,1
131 47 m 256,73,74
 153 47 153 47 165.5 60.5 c 128,-1,75
 178 74 178 74 178 93 c 256,76,77
 178 112 178 112 165.5 125.5 c 128,-1,78
 153 139 153 139 131 139 c 256,79,80
 109 139 109 139 96.5 125.5 c 128,-1,81
 84 112 84 112 84 93 c 256,82,83
 84 74 84 74 96.5 60.5 c 128,-1,84
 109 47 109 47 131 47 c 256,73,74
166 -242 m 0,85,86
 198 -242 198 -242 224.5 -217.5 c 128,-1,87
 251 -193 251 -193 251 -179 c 0,88,89
 251 -178 251 -178 241 -174.5 c 128,-1,90
 231 -171 231 -171 213.5 -167 c 128,-1,91
 196 -163 196 -163 180 -163 c 0,92,93
 152 -163 152 -163 139 -175.5 c 128,-1,94
 126 -188 126 -188 126 -205 c 256,95,96
 126 -222 126 -222 137 -232 c 128,-1,97
 148 -242 148 -242 166 -242 c 0,85,86
EndSplineSet
EndChar

StartChar: uni0E0F
Encoding: 3599 3599 142
Width: 663
Flags: W
HStem: -312 61<119.044 179.096> -159 61<123.685 202.678> -29 20G<264 325> -3 50<91.5034 171.524> 139 50<92.458 166.807> 532 61<246.841 449.309>
VStem: 35 50<53.9957 131.509> 61 56<-249.793 -163.258> 167 69<183 375.439> 178 58<53.0688 132.964> 264 61<-110.618 -9> 486 69<-204.015 498.643>
AnchorPoint: "BelowBase" 550 -311 basechar 0
LayerCount: 3
Fore
SplineSet
224 426 m 1xfeb0
 185 465 108 484 90 487 c 1
 109 513 213 593 349 593 c 0
 486 593 555 536 555 443 c 2
 555 -159 l 1
 540 -210 501 -274 437 -310 c 1
 369 -216 l 1
 299 -311 l 1
 247 -238 l 1
 225 -281 187 -312 148 -312 c 0
 78 -312 61 -250 61 -211 c 0
 61 -157 96 -98 150 -98 c 0
 193 -98 230 -133 233 -138 c 1
 238 -126 264 -48 264 -9 c 1
 325 -9 l 1
 325 -29 304 -137 276 -178 c 1
 296 -213 l 1
 369 -106 l 1
 445 -222 l 1
 467 -209 484 -176 486 -159 c 1
 486 440 l 2
 486 500 446 532 353 532 c 0
 267 532 224 498 224 498 c 1
 245 498 337 423 337 423 c 1
 325 423 236 400 236 308 c 2xfdb0
 236 100 l 2xfc70
 236 48 208 -3 135 -3 c 0
 79 -3 35 34 35 96 c 0
 35 154 78 189 130 189 c 0
 152 189 167 183 167 183 c 1
 167 322 l 2
 167 391 224 426 224 426 c 1xfeb0
132 47 m 0
 163 47 178 70 178 93 c 0
 178 116 163 139 132 139 c 0
 101 139 85 116 85 93 c 0xfe70
 85 70 101 47 132 47 c 0
117 -212 m 0xfd30
 117 -240 129 -251 147 -251 c 0
 178 -251 207 -184 207 -184 c 1
 207 -184 178 -159 155 -159 c 0
 132 -159 117 -180 117 -212 c 0xfd30
EndSplineSet
Validated: 1
Layer: 2
SplineSet
224 426 m 1,0,1
 199 451 199 451 157 467 c 128,-1,2
 115 483 115 483 90 487 c 1,3,4
 112 517 112 517 186 555 c 128,-1,5
 260 593 260 593 349 593 c 0,6,7
 450 593 450 593 502.5 553.5 c 128,-1,8
 555 514 555 514 555 443 c 2,9,-1
 555 -159 l 1,10,11
 542 -202 542 -202 512 -243.5 c 128,-1,12
 482 -285 482 -285 437 -310 c 1,13,-1
 369 -216 l 1,14,-1
 299 -311 l 1,15,-1
 247 -238 l 1,16,17
 230 -271 230 -271 203.5 -291.5 c 128,-1,18
 177 -312 177 -312 148 -312 c 0,19,20
 101 -312 101 -312 81 -280.5 c 128,-1,21
 61 -249 61 -249 61 -211 c 0,22,23
 61 -168 61 -168 86 -133 c 128,-1,24
 111 -98 111 -98 150 -98 c 0,25,26
 169 -98 169 -98 189.5 -107.5 c 128,-1,27
 210 -117 210 -117 220.5 -125.5 c 128,-1,28
 231 -134 231 -134 233 -138 c 1,29,30
 240 -121 240 -121 252 -77.5 c 128,-1,31
 264 -34 264 -34 264 -9 c 1,32,-1
 325 -9 l 1,33,34
 325 -30 325 -30 310 -90.5 c 128,-1,35
 295 -151 295 -151 276 -178 c 1,36,-1
 296 -213 l 1,37,-1
 369 -106 l 1,38,-1
 445 -222 l 1,39,40
 460 -213 460 -213 472 -193 c 128,-1,41
 484 -173 484 -173 486 -159 c 2,42,-1
 486 440 l 2,43,44
 486 532 486 532 353 532 c 0,45,46
 315 532 315 532 282.5 523.5 c 128,-1,47
 250 515 250 515 237 506.5 c 2,48,-1
 224 498 l 1,49,50
 233 498 233 498 261.5 479 c 128,-1,51
 290 460 290 460 313.5 441.5 c 2,52,-1
 337 423 l 1,53,54
 330 423 330 423 315.5 417.5 c 128,-1,55
 301 412 301 412 282 400.5 c 128,-1,56
 263 389 263 389 249.5 364.5 c 128,-1,57
 236 340 236 340 236 308 c 2,58,-1
 236 100 l 2,59,60
 236 57 236 57 211 27 c 128,-1,61
 186 -3 186 -3 135 -3 c 0,62,63
 92 -3 92 -3 63.5 24 c 128,-1,64
 35 51 35 51 35 96 c 0,65,66
 35 138 35 138 62.5 163.5 c 128,-1,67
 90 189 90 189 130 189 c 0,68,69
 140 189 140 189 149 187.5 c 128,-1,70
 158 186 158 186 162.5 184.5 c 2,71,-1
 167 183 l 1,72,-1
 167 322 l 2,73,74
 167 353 167 353 181.5 379 c 128,-1,75
 196 405 196 405 210 415.5 c 2,76,-1
 224 426 l 1,0,1
132 47 m 256,77,78
 154 47 154 47 166 60.5 c 128,-1,79
 178 74 178 74 178 93 c 256,80,81
 178 112 178 112 166 125.5 c 128,-1,82
 154 139 154 139 132 139 c 256,83,84
 110 139 110 139 97.5 125.5 c 128,-1,85
 85 112 85 112 85 93 c 256,86,87
 85 74 85 74 97.5 60.5 c 128,-1,88
 110 47 110 47 132 47 c 256,77,78
117 -212 m 0,89,90
 117 -251 117 -251 147 -251 c 0,91,92
 161 -251 161 -251 176 -234.5 c 128,-1,93
 191 -218 191 -218 199 -201 c 2,94,-1
 207 -184 l 1,95,96
 178 -159 178 -159 155 -159 c 0,97,98
 138 -159 138 -159 127.5 -173.5 c 128,-1,99
 117 -188 117 -188 117 -212 c 0,89,90
EndSplineSet
EndChar

StartChar: uni0E10
Encoding: 3600 3600 143
Width: 530
Flags: W
HStem: -290 52<52.904 103.316> -180 43<320.569 372.579> -174 52<52.2759 108.901> -76 42<320.879 376.911> -3 61<283.791 354.471> 157 50<135.326 207.786> 299 50<135.706 215.531> 504 61<305.578 473.113> 519 60<427.314 468> 532 61<163.18 364.724>
VStem: 0 51<-237.578 -174.482> 77 52<213.073 292.227> 160 58<-141.587 -38> 208 69<64.9433 164> 222 55<213.036 291.528> 273 46<-135.337 -77.6603> 359 69<62.0687 375.095> 373 54<-198 -176 -136.934 -77.875>
LayerCount: 3
Fore
SplineSet
245 593 m 0x9e7480
 304 593 363 565 414 565 c 0x9f3480
 442 565 466 579 468 579 c 1
 486 519 l 1x9eb480
 484 519 454 504 426 504 c 0x9f3480
 357 504 317 532 247 532 c 0
 177 532 150 501 150 501 c 1
 150 501 284 493 371 433 c 0
 405 409 428 372 428 324 c 2
 428 95 l 2
 428 37 380 -3 314 -3 c 0
 254 -3 208 35 208 89 c 2
 208 164 l 1x9e7480
 208 164 193 157 171 157 c 0
 121 157 77 194 77 253 c 0
 77 314 123 349 176 349 c 0
 250 349 277 299 277 247 c 2x9e72
 277 107 l 2
 277 84 288 58 320 58 c 0
 354 58 359 86 359 109 c 2
 359 317 l 2
 359 375 308 411 236 430 c 0
 150 453 80 459 40 459 c 1
 72 520 121 593 245 593 c 0x9e7480
176 207 m 0
 207 207 222 230 222 253 c 0x9e32
 222 276 207 299 176 299 c 0
 144 299 129 276 129 253 c 0
 129 230 144 207 176 207 c 0
347 -34 m 0
 375 -34 427 -45 427 -127 c 2
 427 -225 l 1
 321 -296 l 1
 253 -250 l 1
 174 -296 l 1
 164 -274 158 -264 145 -247 c 1
 137 -259 109 -290 82 -290 c 0
 31 -290 0 -249 0 -206 c 0
 0 -149 47 -122 78 -122 c 0xbe3940
 102 -122 127 -132 138 -143 c 1
 150 -113 157 -74 160 -38 c 1
 218 -38 l 1
 216 -84 200 -152 178 -190 c 1
 195 -221 l 1
 255 -189 l 1
 321 -230 l 1
 373 -198 l 1
 373 -176 l 1
 364 -179 356 -180 347 -180 c 0
 304 -180 273 -147 273 -106 c 0xde3940
 273 -63 306 -34 347 -34 c 0
349 -76 m 0
 334 -76 319 -86 319 -106 c 0
 319 -123 331 -137 349 -137 c 0xde31
 364 -137 379 -127 379 -108 c 0
 379 -82 361 -76 349 -76 c 0
109 -195 m 1
 109 -192 88 -174 71 -174 c 0xbe30
 59 -174 51 -188 51 -205 c 0
 51 -221 59 -238 75 -238 c 0
 105 -238 108 -197 109 -195 c 1
EndSplineSet
Validated: 1
Layer: 2
SplineSet
245 593 m 0,0,1
 276 593 276 593 333 579 c 128,-1,2
 390 565 390 565 414 565 c 0,3,4
 426 565 426 565 439 568.5 c 128,-1,5
 452 572 452 572 460 575.5 c 2,6,-1
 468 579 l 1,7,-1
 486 519 l 1,8,-1
 476.5 515.5 l 2,9,10
 467 512 467 512 452.5 508 c 128,-1,11
 438 504 438 504 426 504 c 0,12,13
 392 504 392 504 337 518 c 128,-1,14
 282 532 282 532 247 532 c 0,15,16
 216 532 216 532 191.5 524 c 128,-1,17
 167 516 167 516 158.5 508.5 c 2,18,-1
 150 501 l 1,19,20
 165 500 165 500 189.5 497 c 128,-1,21
 214 494 214 494 273 477 c 128,-1,22
 332 460 332 460 371 433 c 0,23,24
 428 393 428 393 428 324 c 2,25,-1
 428 95 l 2,26,27
 428 52 428 52 396 24.5 c 128,-1,28
 364 -3 364 -3 314 -3 c 0,29,30
 269 -3 269 -3 238.5 23 c 128,-1,31
 208 49 208 49 208 89 c 2,32,-1
 208 164 l 1,33,34
 193 157 193 157 171 157 c 0,35,36
 132 157 132 157 104.5 183.5 c 128,-1,37
 77 210 77 210 77 253 c 0,38,39
 77 297 77 297 105.5 323 c 128,-1,40
 134 349 134 349 176 349 c 0,41,42
 228 349 228 349 252.5 319.5 c 128,-1,43
 277 290 277 290 277 247 c 2,44,-1
 277 107 l 2,45,46
 277 87 277 87 287.5 72.5 c 128,-1,47
 298 58 298 58 320 58 c 0,48,49
 359 58 359 58 359 109 c 2,50,-1
 359 317 l 2,51,52
 359 398 359 398 236 430 c 0,53,54
 128 459 128 459 40 459 c 1,55,56
 55 487 55 487 69 506.5 c 128,-1,57
 83 526 83 526 107 548 c 128,-1,58
 131 570 131 570 166 581.5 c 128,-1,59
 201 593 201 593 245 593 c 0,0,1
176 207 m 0,60,61
 198 207 198 207 210 220.5 c 128,-1,62
 222 234 222 234 222 253 c 256,63,64
 222 272 222 272 210 285.5 c 128,-1,65
 198 299 198 299 176 299 c 0,66,67
 153 299 153 299 141 285.5 c 128,-1,68
 129 272 129 272 129 253 c 256,69,70
 129 234 129 234 141 220.5 c 128,-1,71
 153 207 153 207 176 207 c 0,60,61
347 -34 m 0,72,73
 365 -34 365 -34 381 -39.5 c 128,-1,74
 397 -45 397 -45 412 -67 c 128,-1,75
 427 -89 427 -89 427 -127 c 2,76,-1
 427 -225 l 1,77,-1
 321 -296 l 1,78,-1
 253 -250 l 1,79,-1
 174 -296 l 1,80,81
 162 -269 162 -269 145 -247 c 1,82,83
 136 -260 136 -260 118 -275 c 128,-1,84
 100 -290 100 -290 82 -290 c 0,85,86
 45 -290 45 -290 22.5 -265 c 128,-1,87
 0 -240 0 -240 0 -206 c 0,88,89
 0 -167 0 -167 25.5 -144.5 c 128,-1,90
 51 -122 51 -122 78 -122 c 0,91,92
 117 -122 117 -122 138 -143 c 1,93,94
 155 -101 155 -101 160 -38 c 1,95,-1
 218 -38 l 1,96,97
 216 -74 216 -74 205 -118.5 c 128,-1,98
 194 -163 194 -163 178 -190 c 1,99,-1
 195 -221 l 1,100,-1
 255 -189 l 1,101,-1
 321 -230 l 1,102,-1
 373 -198 l 1,103,-1
 373 -176 l 1,104,105
 361 -180 361 -180 347 -180 c 0,106,107
 315 -180 315 -180 294 -158.5 c 128,-1,108
 273 -137 273 -137 273 -106 c 0,109,110
 273 -74 273 -74 294.5 -54 c 128,-1,111
 316 -34 316 -34 347 -34 c 0,72,73
349 -76 m 0,112,113
 337 -76 337 -76 328 -84 c 128,-1,114
 319 -92 319 -92 319 -106 c 0,115,116
 319 -119 319 -119 327.5 -128 c 128,-1,117
 336 -137 336 -137 349 -137 c 0,118,119
 361 -137 361 -137 370 -129.5 c 128,-1,120
 379 -122 379 -122 379 -108 c 0,121,122
 379 -76 379 -76 349 -76 c 0,112,113
109 -195 m 2,123,124
 109 -193 109 -193 103 -188 c 128,-1,125
 97 -183 97 -183 88 -178.5 c 128,-1,126
 79 -174 79 -174 71 -174 c 0,127,128
 62 -174 62 -174 56.5 -183 c 128,-1,129
 51 -192 51 -192 51 -205 c 256,130,131
 51 -218 51 -218 57.5 -228 c 128,-1,132
 64 -238 64 -238 75 -238 c 0,133,134
 83 -238 83 -238 89.5 -234 c 128,-1,135
 96 -230 96 -230 99.5 -223.5 c 128,-1,136
 103 -217 103 -217 105 -211 c 128,-1,137
 107 -205 107 -205 108 -200 c 2,138,-1
 109 -195 l 2,123,124
EndSplineSet
Substitution2: "'ccmp' Pali-Sanskrit Descender Removal" uni0E10.descless
Substitution2: "Thai Descender Removal Single Substitution" uni0E10.descless
EndChar

StartChar: uni0E11
Encoding: 3601 3601 144
Width: 815
Flags: W
HStem: 0 21G<296 369 633 702> 264 46<98.0631 178.758> 406 46<97.8044 178.522> 532 61<576.438 629.739>
VStem: 26 65<317.584 493.479> 186 44<317.232 398.407> 296 69<0 126.879 235 436.435> 337 69<443.319 513.41> 633 69<0 529.128>
LayerCount: 3
Back
SplineSet
608 590 m 0xfe80
 648 590 702 542 702 487 c 2
 702 0 l 1
 633 0 l 1
 633 474 l 2
 633 496 621 514 602 514 c 0
 587 514 572 497 567 489 c 1
 555 481 386 174 374 84 c 0
 370 52 369 32 369 0 c 1
 296 0 l 1
 296 425 l 2xfe80
 296 428 337 456 337 477 c 0
 337 503 296 529 294 529 c 2
 221 492 l 1
 153 529 l 1
 136 521 123 512 113 495 c 1
 101 477 92 457 92 443 c 1
 107 449 122 452 136 452 c 0
 213 452 230 394 230 358 c 0
 230 302 191 265 138 265 c 0
 85 265 26 301 26 400 c 0
 26 433 34 468 49 498 c 0
 71 544 97 570 141 593 c 1
 221 547 l 1
 302 593 l 1
 371 553 406 492 406 492 c 1
 406 460 l 2xfd80
 406 458 381 429 365 415 c 1
 365 235 l 1
 379 282 417 359 454 426 c 0
 488 489 546 590 608 590 c 0xfe80
138 310 m 0
 170 310 186 334 186 358 c 0
 186 382 170 406 138 406 c 0
 106 406 91 382 91 358 c 0
 91 334 106 310 138 310 c 0
EndSplineSet
Fore
SplineSet
608 593 m 0xfe80
 648 593 702 560 702 505 c 2
 702 0 l 1
 633 0 l 1
 633 492 l 2
 633 514 621 532 602 532 c 0
 587 532 572 504 565 492 c 0
 557 480 386 174 374 84 c 0
 370 52 369 32 369 0 c 1
 296 0 l 1
 296 425 l 2xfe80
 296 428 337 456 337 477 c 0
 337 503 296 529 294 529 c 2
 221 492 l 1
 153 529 l 1
 136 521 92 486 92 443 c 1
 107 449 122 452 136 452 c 0
 213 452 230 394 230 358 c 0
 230 302 191 264 138 264 c 0
 85 264 26 301 26 400 c 0
 26 512 97 570 141 593 c 1
 221 547 l 1
 302 593 l 1
 371 553 406 492 406 492 c 1
 406 460 l 2xfd80
 406 458 381 429 365 415 c 1
 365 235 l 1
 379 282 417 359 454 426 c 0
 488 489 546 593 608 593 c 0xfe80
138 310 m 0
 170 310 186 334 186 358 c 0
 186 382 170 406 138 406 c 0
 106 406 91 382 91 358 c 0
 91 334 106 310 138 310 c 0
EndSplineSet
Validated: 1
Layer: 2
SplineSet
608 593 m 0,0,1
 641 593 641 593 671.5 568 c 128,-1,2
 702 543 702 543 702 505 c 2,3,-1
 702 0 l 1,4,-1
 633 0 l 1,5,-1
 633 492 l 2,6,7
 633 509 633 509 624.5 520.5 c 128,-1,8
 616 532 616 532 602 532 c 256,9,10
 588 532 588 532 565 492 c 0,11,12
 542 458 542 458 462 299.5 c 128,-1,13
 382 141 382 141 374 84 c 0,14,15
 369 44 369 44 369 0 c 1,16,-1
 296 0 l 1,17,-1
 296 425 l 2,18,19
 296 426 296 426 306 434.5 c 128,-1,20
 316 443 316 443 326.5 455.5 c 128,-1,21
 337 468 337 468 337 477 c 0,22,23
 337 489 337 489 326.5 502 c 128,-1,24
 316 515 316 515 306 522 c 128,-1,25
 296 529 296 529 294 529 c 2,26,-1
 221 492 l 1,27,-1
 153 529 l 1,28,29
 134 520 134 520 113 495.5 c 128,-1,30
 92 471 92 471 92 443 c 1,31,32
 115 452 115 452 136 452 c 0,33,34
 187 452 187 452 208.5 423 c 128,-1,35
 230 394 230 394 230 358 c 0,36,37
 230 316 230 316 204 290 c 128,-1,38
 178 264 178 264 138 264 c 0,39,40
 93 264 93 264 59.5 297.5 c 128,-1,41
 26 331 26 331 26 400 c 0,42,43
 26 475 26 475 61.5 522.5 c 128,-1,44
 97 570 97 570 141 593 c 1,45,-1
 221 547 l 1,46,-1
 302 593 l 1,47,48
 333 575 333 575 359 550 c 128,-1,49
 385 525 385 525 395.5 508.5 c 2,50,-1
 406 492 l 1,51,-1
 406 460 l 2,52,53
 406 459 406 459 399 451 c 128,-1,54
 392 443 392 443 382 432 c 128,-1,55
 372 421 372 421 365 415 c 1,56,-1
 365 235 l 1,57,58
 384 300 384 300 454 426 c 0,59,60
 471 458 471 458 484.5 480 c 128,-1,61
 498 502 498 502 519.5 531.5 c 128,-1,62
 541 561 541 561 563.5 577 c 128,-1,63
 586 593 586 593 608 593 c 0,0,1
138 310 m 256,64,65
 161 310 161 310 173.5 324 c 128,-1,66
 186 338 186 338 186 358 c 256,67,68
 186 378 186 378 173.5 392 c 128,-1,69
 161 406 161 406 138 406 c 256,70,71
 115 406 115 406 103 392 c 128,-1,72
 91 378 91 378 91 358 c 256,73,74
 91 338 91 338 103 324 c 128,-1,75
 115 310 115 310 138 310 c 256,64,65
EndSplineSet
EndChar

StartChar: uni0E12
Encoding: 3602 3602 145
Width: 820
Flags: W
HStem: -3 61<382.95 426.709 592.931 631.806> 236 45<191.907 230> 379 45<189.316 271.393> 575 15G<153 227 333 376.5 633 702>
VStem: 20 69<255.131 454.866> 134 48<290.346 371.855> 135 73<0 94.9706> 280 49<287.449 370.396> 319 55<62.7221 180.163> 428 69<58.4026 151 247.186 494.453> 633 69<58.7218 590>
DStem2: 201 595 192 530 0.814365 -0.580352<20.3424 98.3416> 279 535 279 468 0.804574 0.593852<0 75.4147>
LayerCount: 3
Fore
SplineSet
360 595 m 1xfb60
 393 582 497 528 497 428 c 2
 497 230 l 2
 497 228 520 216 540 182 c 0
 579 113 593 58 620 58 c 0
 631 58 633 66 633 92 c 2
 633 590 l 1
 702 590 l 1
 702 92 l 2
 702 38 690 -3 628 -3 c 0
 581 -3 554 48 532 89 c 0
 505 140 505 132 495 151 c 1
 495 72 l 2
 495 46 479 -3 417 -3 c 0
 358 -3 319 55 319 123 c 0
 319 225 396 249 428 251 c 1
 428 428 l 2
 428 493 384 524 363 530 c 1
 279 468 l 1
 192 530 l 1
 100 486 89 408 89 362 c 0
 89 309 106 259 132 205 c 0
 156 155 170 113 172 110 c 1
 175 125 216 209 230 236 c 1
 221 236 l 2
 175 236 134 270 134 327 c 0xfce0
 134 377 170 424 230 424 c 0
 292 424 329 377 329 329 c 0
 329 257 249 180 219 72 c 0
 210 38 210 32 208 0 c 1
 135 0 l 1
 135 3 130 46 112 100 c 0
 78 199 20 253 20 355 c 0
 20 503 105 556 201 595 c 1
 279 535 l 1
 360 595 l 1xfb60
280 328 m 0xfd60
 280 357 259 379 230 379 c 0
 201 379 182 360 182 331 c 0
 182 302 204 281 233 281 c 0
 262 281 280 299 280 328 c 0xfd60
428 199 m 1
 386 187 374 153 374 123 c 0xf8e0
 374 91 386 58 408 58 c 0
 425 58 428 68 428 79 c 2
 428 199 l 1
EndSplineSet
Validated: 1
Layer: 2
SplineSet
360 595 m 1,0,1
 377 588 377 588 396 576.5 c 128,-1,2
 415 565 415 565 440 545 c 128,-1,3
 465 525 465 525 481 494 c 128,-1,4
 497 463 497 463 497 428 c 2,5,-1
 497 230 l 1,6,-1
 503.5 225 l 2,7,8
 510 220 510 220 520.5 208.5 c 128,-1,9
 531 197 531 197 540 182 c 0,10,11
 550 165 550 165 560.5 143 c 128,-1,12
 571 121 571 121 577.5 108 c 128,-1,13
 584 95 584 95 591 82.5 c 128,-1,14
 598 70 598 70 605 64 c 128,-1,15
 612 58 612 58 620 58 c 256,16,17
 628 58 628 58 630.5 65 c 128,-1,18
 633 72 633 72 633 92 c 2,19,-1
 633 590 l 1,20,-1
 702 590 l 1,21,-1
 702 92 l 2,22,23
 702 46 702 46 686.5 21.5 c 128,-1,24
 671 -3 671 -3 628 -3 c 0,25,26
 606 -3 606 -3 586 13.5 c 128,-1,27
 566 30 566 30 556.5 45 c 128,-1,28
 547 60 547 60 532 89 c 0,29,30
 516 118 516 118 507 131.5 c 128,-1,31
 498 145 498 145 495 151 c 2,32,-1
 495 72 l 2,33,34
 495 46 495 46 476.5 21.5 c 128,-1,35
 458 -3 458 -3 417 -3 c 0,36,37
 374 -3 374 -3 346.5 34 c 128,-1,38
 319 71 319 71 319 123 c 0,39,40
 319 159 319 159 331 185.5 c 128,-1,41
 343 212 343 212 362 225 c 128,-1,42
 381 238 381 238 397 244 c 128,-1,43
 413 250 413 250 428 251 c 1,44,-1
 428 428 l 2,45,46
 428 471 428 471 406.5 497.5 c 128,-1,47
 385 524 385 524 363 530 c 1,48,-1
 279 468 l 1,49,-1
 192 530 l 1,50,51
 89 481 89 481 89 362 c 0,52,53
 89 294 89 294 132 205 c 0,54,55
 143 183 143 183 152.5 160 c 128,-1,56
 162 137 162 137 166.5 124 c 128,-1,57
 171 111 171 111 172 110 c 1,58,59
 177 133 177 133 230 236 c 1,60,-1
 221 236 l 2,61,62
 185 236 185 236 159.5 261 c 128,-1,63
 134 286 134 286 134 327 c 0,64,65
 134 366 134 366 160.5 395 c 128,-1,66
 187 424 187 424 230 424 c 0,67,68
 274 424 274 424 301.5 395.5 c 128,-1,69
 329 367 329 367 329 329 c 128,-1,70
 329 291 329 291 281 206.5 c 128,-1,71
 233 122 233 122 219 72 c 0,72,73
 210 40 210 40 208 0 c 1,74,-1
 135 0 l 1,75,76
 135 31 135 31 112 100 c 0,77,78
 100 136 100 136 74.5 183 c 128,-1,79
 49 230 49 230 34.5 270 c 128,-1,80
 20 310 20 310 20 355 c 0,81,82
 20 408 20 408 34 448.5 c 128,-1,83
 48 489 48 489 75.5 516.5 c 128,-1,84
 103 544 103 544 131.5 561 c 128,-1,85
 160 578 160 578 201 595 c 1,86,-1
 279 535 l 1,87,-1
 360 595 l 1,0,1
280 328 m 256,88,89
 280 350 280 350 266 364.5 c 128,-1,90
 252 379 252 379 230 379 c 256,91,92
 208 379 208 379 195 366 c 128,-1,93
 182 353 182 353 182 331 c 256,94,95
 182 309 182 309 196.5 295 c 128,-1,96
 211 281 211 281 233 281 c 256,97,98
 255 281 255 281 267.5 293.5 c 128,-1,99
 280 306 280 306 280 328 c 256,88,89
428 199 m 1,100,101
 374 184 374 184 374 123 c 0,102,103
 374 97 374 97 383 77.5 c 128,-1,104
 392 58 392 58 408 58 c 0,105,106
 428 58 428 58 428 79 c 2,107,-1
 428 199 l 1,100,101
EndSplineSet
EndChar

StartChar: uni0E13
Encoding: 3603 3603 146
Width: 818
Flags: W
HStem: -3 61<696.597 755.819> -3 50<150.291 229.609> 139 50<155.193 230.47> 195 61<694 748.023> 532 61<166.058 369.304>
VStem: 86 69<183 375.439> 86 58<53.0688 132.964> 237 50<54.2066 132.037> 405 69<115 498.333> 625 69<60.3218 182 256 590> 763 58<63.2779 180.597>
AnchorPoint: "AboveBase" 701 659 basechar 0
LayerCount: 3
Fore
SplineSet
694 256 m 1x7be0
 750 256 821 229 821 120 c 0
 821 39 775 -3 717 -3 c 0
 650 -2 628 44 628 86 c 2
 628 182 l 1
 516 111 479 0 472 0 c 2
 405 0 l 1
 405 443 l 2
 405 497 366 532 271 532 c 0
 185 532 144 498 144 498 c 1xbbe0
 163 498 258 423 258 423 c 1
 245 423 155 400 155 308 c 2
 155 183 l 1xbde0
 155 183 170 189 192 189 c 0
 225 189 287 169 287 96 c 0
 287 35 244 -3 187 -3 c 0
 113 -3 86 48 86 100 c 2x7be0
 86 322 l 2x7de0
 86 389 144 426 144 426 c 1
 108 460 36 483 9 487 c 1
 29 513 132 593 268 593 c 0
 409 593 474 532 474 446 c 2
 474 115 l 1
 475 118 507 169 547 202 c 0
 584 233 622 250 625 250 c 1
 625 590 l 1
 694 590 l 1
 694 256 l 1x7be0
763 116 m 0
 763 192 720 195 694 195 c 1
 694 95 l 2
 694 72 709 58 725 58 c 0
 743 58 763 73 763 116 c 0
190 47 m 0x7be0
 221 47 237 70 237 93 c 0
 237 116 221 139 190 139 c 0
 159 139 144 116 144 93 c 0
 144 70 159 47 190 47 c 0x7be0
EndSplineSet
Validated: 1
Layer: 2
SplineSet
694 256 m 1,0,1
 746 256 746 256 783.5 225 c 128,-1,2
 821 194 821 194 821 120 c 0,3,4
 821 61 821 61 791.5 29 c 128,-1,5
 762 -3 762 -3 717 -3 c 0,6,7
 671 -3 671 -3 649.495 23.5 c 128,-1,8
 628 50 628 50 628 86 c 2,9,-1
 628 182 l 1,10,11
 579 151 579 151 541.5 105 c 128,-1,12
 504 59 504 59 488.5 29.5 c 128,-1,13
 473 0 473 0 472 0 c 2,14,-1
 405 0 l 1,15,-1
 405 443 l 2,16,17
 405 532 405 532 271 532 c 0,18,19
 233 532 233 532 201 523.5 c 128,-1,20
 169 515 169 515 156.5 506.5 c 2,21,-1
 144 498 l 1,22,23
 152 498 152 498 180.5 479 c 128,-1,24
 209 460 209 460 233.5 441.5 c 2,25,-1
 258 423 l 1,26,27
 251 423 251 423 236 417.5 c 128,-1,28
 221 412 221 412 202 400.5 c 128,-1,29
 183 389 183 389 169 364.5 c 128,-1,30
 155 340 155 340 155 308 c 2,31,-1
 155 183 l 1,32,33
 170 189 170 189 192 189 c 0,34,35
 225 189 225 189 256 167 c 128,-1,36
 287 145 287 145 287 96 c 0,37,38
 287 51 287 51 259 24 c 128,-1,39
 231 -3 231 -3 187 -3 c 0,40,41
 135 -3 135 -3 110.5 26.5 c 128,-1,42
 86 56 86 56 86 100 c 2,43,-1
 86 322 l 2,44,45
 86 352 86 352 100.5 378 c 128,-1,46
 115 404 115 404 129.5 415 c 2,47,-1
 144 426 l 1,48,49
 120 449 120 449 77.5 466 c 128,-1,50
 35 483 35 483 9 487 c 1,51,52
 33 518 33 518 106 555.5 c 128,-1,53
 179 593 179 593 268 593 c 0,54,55
 370 593 370 593 422 553 c 128,-1,56
 474 513 474 513 474 446 c 2,57,-1
 474 115 l 2,58,59
 475 118 475 118 484 131.5 c 128,-1,60
 493 145 493 145 511 166 c 128,-1,61
 529 187 529 187 547 202 c 0,62,63
 564 216 564 216 582.5 228 c 128,-1,64
 601 240 601 240 612 245 c 128,-1,65
 623 250 623 250 625 250 c 2,66,-1
 625 590 l 1,67,-1
 694 590 l 1,68,-1
 694 256 l 1,0,1
763 116 m 0,69,70
 763 143 763 143 756.5 160 c 128,-1,71
 750 177 750 177 738 184 c 128,-1,72
 726 191 726 191 716.5 193 c 128,-1,73
 707 195 707 195 694 195 c 1,74,-1
 694 95 l 2,75,76
 694 78 694 78 703 68 c 128,-1,77
 712 58 712 58 725 58 c 0,78,79
 741 58 741 58 752 72 c 128,-1,80
 763 86 763 86 763 116 c 0,69,70
190 47 m 256,81,82
 212 47 212 47 224.5 60.5 c 128,-1,83
 237 74 237 74 237 93 c 256,84,85
 237 112 237 112 224.5 125.5 c 128,-1,86
 212 139 212 139 190 139 c 256,87,88
 168 139 168 139 156 125.5 c 128,-1,89
 144 112 144 112 144 93 c 256,90,91
 144 74 144 74 156 60.5 c 128,-1,92
 168 47 168 47 190 47 c 256,81,82
EndSplineSet
EndChar

StartChar: uni0E14
Encoding: 3604 3604 147
Width: 614
Flags: W
HStem: 0 21G<152 214 433 502> 230 50<216.619 253> 381 50<215.529 299.087> 532 61<186.123 364.882>
VStem: 37 69<258.547 450.842> 157 50<0 68.6763 288.405 373.082> 308 50<288.244 372.334> 433 69<0 472.971>
LayerCount: 3
Fore
SplineSet
37 367 m 0
 37 506 157 593 271 593 c 0
 418 593 502 510 502 411 c 2
 502 0 l 1
 433 0 l 1
 433 405 l 2
 433 480 369 532 274 532 c 0
 179 531 106 471 106 356 c 0
 106 304 121 265 148 216 c 0
 178 160 190 123 193 123 c 0
 196 123 224 185 253 230 c 1
 212 232 157 269 157 330 c 0
 157 384 196 431 257 431 c 0
 312 431 358 389 358 332 c 0
 358 295 339 257 320 225 c 2
 238 87 l 2
 222 61 216 34 212 0 c 1
 152 0 l 1
 152 18 154 29 154 42 c 0
 154 121 37 220 37 367 c 0
258 280 m 0
 292 280 308 305 308 331 c 0
 308 356 292 381 258 381 c 0
 224 381 207 356 207 331 c 0
 207 305 224 280 258 280 c 0
EndSplineSet
Validated: 1
Layer: 2
SplineSet
37 367 m 0,0,1
 37 466 37 466 108.5 529.5 c 128,-1,2
 180 593 180 593 271 593 c 0,3,4
 378 593 378 593 440 540.5 c 128,-1,5
 502 488 502 488 502 411 c 2,6,-1
 502 0 l 1,7,-1
 433 0 l 1,8,-1
 433 405 l 2,9,10
 433 461 433 461 389 496.5 c 128,-1,11
 345 532 345 532 274 532 c 0,12,13
 200 532 200 532 153 485.5 c 128,-1,14
 106 439 106 439 106 356 c 0,15,16
 106 292 106 292 148 216 c 0,17,18
 161 192 161 192 172 168 c 128,-1,19
 183 144 183 144 187.5 133.5 c 128,-1,20
 192 123 192 123 193 123 c 128,-1,21
 194 123 194 123 202.5 139.5 c 128,-1,22
 211 156 211 156 226 183.5 c 128,-1,23
 241 211 241 211 253 230 c 1,24,25
 218 232 218 232 187.5 259.5 c 128,-1,26
 157 287 157 287 157 330 c 0,27,28
 157 372 157 372 185 401.5 c 128,-1,29
 213 431 213 431 257 431 c 0,30,31
 299 431 299 431 328.5 402.5 c 128,-1,32
 358 374 358 374 358 332 c 0,33,34
 358 289 358 289 320 225 c 2,35,-1
 238 87 l 2,36,37
 219 55 219 55 212 0 c 1,38,-1
 152 0 l 1,39,40
 152 10 152 10 153 23 c 128,-1,41
 154 36 154 36 154 42 c 0,42,43
 154 73 154 73 125 124 c 128,-1,44
 96 175 96 175 66.5 239.5 c 128,-1,45
 37 304 37 304 37 367 c 0,0,1
258 280 m 256,46,47
 282 280 282 280 295 295 c 128,-1,48
 308 310 308 310 308 331 c 0,49,50
 308 351 308 351 295 366 c 128,-1,51
 282 381 282 381 258 381 c 256,52,53
 234 381 234 381 220.5 366 c 128,-1,54
 207 351 207 351 207 331 c 0,55,56
 207 310 207 310 220.5 295 c 128,-1,57
 234 280 234 280 258 280 c 256,46,47
EndSplineSet
EndChar

StartChar: uni0E15
Encoding: 3605 3605 148
Width: 645
Flags: W
HStem: 0 21G<174 250 464 533> 230 50<235.632 283.669> 381 50<235.879 321.534> 575 20G<179.5 278.769 366.154 420.5>
VStem: 54 69<270.694 455.364> 176 74<0 71.8026> 177 50<288.875 371.761> 330 50<287.96 372.047> 464 69<0 497.934>
LayerCount: 3
Back
SplineSet
280 428 m 0xfb80
 336 428 378 391 378 334 c 0
 378 261 314 176 277 84 c 1
 265 57 250 40 250 0 c 1
 176 0 l 1xfd80
 172 40 173 54 156 107 c 1
 133 185 54 260 54 371 c 0
 54 461 106 556 253 595 c 1
 320 543 l 1
 395 595 l 1
 431 587 463 570 492 536 c 5
 520 506 533 468 533 415 c 2
 533 0 l 1
 464 0 l 1
 464 409 l 2
 464 446 464 464 448 489 c 4
 432 513 423 523 402 532 c 1
 322 474 l 1
 239 532 l 1
 139 495 123 424 123 357 c 0
 123 304 137 263 166 216 c 0
 199 162 215 107 218 107 c 0
 219 107 265 203 284 230 c 1
 196 234 178 301 178 332 c 0
 178 388 220 428 280 428 c 0xfb80
279 280 m 0
 313 280 330 305 330 330 c 0
 330 356 313 381 279 381 c 0
 244 381 227 356 227 330 c 0xfb80
 227 305 244 280 279 280 c 0
EndSplineSet
Fore
SplineSet
280 431 m 0xfb80
 336 431 380 391 380 334 c 0
 380 261 314 176 277 84 c 0
 266 57 250 40 250 0 c 1
 176 0 l 1xfd80
 172 40 172 54 156 107 c 0
 133 185 54 260 54 371 c 0
 54 461 106 556 253 595 c 1
 320 543 l 1
 395 595 l 1
 446 584 533 539 533 415 c 2
 533 0 l 1
 464 0 l 1
 464 409 l 2
 464 485 438 517 402 532 c 1
 322 474 l 1
 239 532 l 1
 139 495 123 424 123 357 c 0
 123 304 137 263 166 216 c 0
 199 162 215 107 218 107 c 0
 219 107 265 203 284 230 c 1
 196 234 177 301 177 332 c 0
 177 388 220 431 280 431 c 0xfb80
279 280 m 0
 313 280 330 305 330 330 c 0
 330 356 313 381 279 381 c 0
 244 381 227 356 227 330 c 0xfb80
 227 305 244 280 279 280 c 0
EndSplineSet
Validated: 1
Layer: 2
SplineSet
280 431 m 0,0,1
 322 431 322 431 351 403.5 c 128,-1,2
 380 376 380 376 380 334 c 0,3,4
 380 302 380 302 363.5 262 c 128,-1,5
 347 222 347 222 318.5 169 c 128,-1,6
 290 116 290 116 277 84 c 0,7,8
 275 78 275 78 266 61.5 c 128,-1,9
 257 45 257 45 253.5 31.5 c 128,-1,10
 250 18 250 18 250 0 c 1,11,-1
 176 0 l 1,12,13
 170 61 170 61 156 107 c 0,14,15
 148 135 148 135 121 181 c 128,-1,16
 94 227 94 227 74 274.5 c 128,-1,17
 54 322 54 322 54 371 c 0,18,19
 54 446 54 446 102 507 c 128,-1,20
 150 568 150 568 253 595 c 1,21,-1
 320 543 l 1,22,-1
 395 595 l 1,23,24
 417 590 417 590 438.5 579 c 128,-1,25
 460 568 460 568 482.5 548 c 128,-1,26
 505 528 505 528 519 493.5 c 128,-1,27
 533 459 533 459 533 415 c 2,28,-1
 533 0 l 1,29,-1
 464 0 l 1,30,-1
 464 409 l 2,31,32
 464 506 464 506 402 532 c 1,33,-1
 322 474 l 1,34,-1
 239 532 l 1,35,36
 171 507 171 507 147 462.5 c 128,-1,37
 123 418 123 418 123 357 c 0,38,39
 123 286 123 286 166 216 c 0,40,41
 180 193 180 193 192.5 165 c 128,-1,42
 205 137 205 137 211 122 c 128,-1,43
 217 107 217 107 218 107 c 2,44,-1
 230.5 131.5 l 2,45,46
 243 156 243 156 259.5 187 c 128,-1,47
 276 218 276 218 284 230 c 1,48,49
 226 233 226 233 201.5 265.5 c 128,-1,50
 177 298 177 298 177 332 c 0,51,52
 177 374 177 374 206 402.5 c 128,-1,53
 235 431 235 431 280 431 c 0,0,1
279 280 m 0,54,55
 303 280 303 280 316.5 295 c 128,-1,56
 330 310 330 310 330 330 c 0,57,58
 330 351 330 351 316.5 366 c 128,-1,59
 303 381 303 381 279 381 c 0,60,61
 254 381 254 381 240.5 366 c 128,-1,62
 227 351 227 351 227 330 c 0,63,64
 227 310 227 310 240.5 295 c 128,-1,65
 254 280 254 280 279 280 c 0,54,55
EndSplineSet
EndChar

StartChar: uni0E16
Encoding: 3606 3606 149
Width: 628
Flags: W
HStem: -3 50<165.608 245.628> 139 50<170.023 245.731> 532 61<185.178 401.618>
VStem: 101 69<183 374.924> 101 58<53.6164 132.384> 252 50<53.7057 132.9> 452 69<0 485.569>
LayerCount: 3
Fore
SplineSet
159 426 m 1xee
 119 465 43 484 25 487 c 1
 44 512 156 593 293 593 c 0
 431 593 521 530 521 422 c 2
 521 0 l 1
 452 0 l 1
 452 418 l 2
 452 500 388 532 300 532 c 0
 217 532 159 498 159 498 c 1xee
 168 498 273 429 273 423 c 1
 261 423 170 400 170 308 c 2
 170 183 l 1xf6
 170 183 185 189 207 189 c 0
 259 189 302 154 302 96 c 0
 302 34 258 -3 202 -3 c 0
 129 -3 101 48 101 100 c 2xee
 101 322 l 2xf6
 101 387 159 426 159 426 c 1xee
205 47 m 0
 237 47 252 70 252 93 c 0
 252 116 237 139 205 139 c 0
 175 139 159 116 159 93 c 0
 159 70 175 47 205 47 c 0
EndSplineSet
Validated: 1
Layer: 2
SplineSet
159 426 m 1,0,1
 133 451 133 451 91.5 467 c 128,-1,2
 50 483 50 483 25 487 c 1,3,4
 47 516 47 516 125 554.5 c 128,-1,5
 203 593 203 593 293 593 c 0,6,7
 398 593 398 593 459.5 547.5 c 128,-1,8
 521 502 521 502 521 422 c 2,9,-1
 521 0 l 1,10,-1
 452 0 l 1,11,-1
 452 418 l 2,12,13
 452 477 452 477 411 504.5 c 128,-1,14
 370 532 370 532 300 532 c 0,15,16
 263 532 263 532 228 523.5 c 128,-1,17
 193 515 193 515 176 506.5 c 2,18,-1
 159 498 l 2,19,20
 166 498 166 498 219.5 462.5 c 128,-1,21
 273 427 273 427 273 423 c 1,22,23
 266 423 266 423 251.5 417.5 c 128,-1,24
 237 412 237 412 217.5 400.5 c 128,-1,25
 198 389 198 389 184 364.5 c 128,-1,26
 170 340 170 340 170 308 c 2,27,-1
 170 183 l 1,28,29
 185 189 185 189 207 189 c 0,30,31
 247 189 247 189 274.5 163.5 c 128,-1,32
 302 138 302 138 302 96 c 0,33,34
 302 51 302 51 273.5 24 c 128,-1,35
 245 -3 245 -3 202 -3 c 0,36,37
 151 -3 151 -3 126 27 c 128,-1,38
 101 57 101 57 101 100 c 2,39,-1
 101 322 l 2,40,41
 101 351 101 351 115.5 377 c 128,-1,42
 130 403 130 403 144.5 414.5 c 2,43,-1
 159 426 l 1,0,1
205 47 m 0,44,45
 228 47 228 47 240 60.5 c 128,-1,46
 252 74 252 74 252 93 c 256,47,48
 252 112 252 112 240 125.5 c 128,-1,49
 228 139 228 139 205 139 c 0,50,51
 184 139 184 139 171.5 125.5 c 128,-1,52
 159 112 159 112 159 93 c 256,53,54
 159 74 159 74 171.5 60.5 c 128,-1,55
 184 47 184 47 205 47 c 0,44,45
EndSplineSet
EndChar

StartChar: uni0E17
Encoding: 3607 3607 150
Width: 691
Flags: W
HStem: 0 21G<176 245 512 581> 401 50<100.399 175.977> 532 61<437.401 506.404> 543 50<101.259 179.224>
VStem: 44 50<457.673 536.782> 176 69<0 183.958 300 407> 187 58<457.616 536.384> 512 69<0 529.77>
LayerCount: 3
Back
SplineSet
245 300 m 1xdd
 339 495 395 593 475 593 c 0
 580 593 581 498 581 453 c 2
 581 0 l 1
 512 0 l 1
 512 462 l 2
 512 500 511 535 478 535 c 0
 463 535 445 527 432 508 c 0
 405 467 320 349 276 219 c 0
 247 136 245 89 245 0 c 1
 176 0 l 1
 176 407 l 1xed
 176 407 161 401 139 401 c 0
 106 401 44 421 44 494 c 0
 44 553 87 593 144 593 c 0
 218 593 245 542 245 490 c 2xdb
 245 300 l 1xdd
144 450 m 0
 174 450 190 473 190 496 c 0
 190 519 174 542 144 542 c 0xdb
 112 542 97 519 97 496 c 0
 97 473 112 450 144 450 c 0
EndSplineSet
Fore
SplineSet
245 300 m 1xdd
 339 495 395 593 475 593 c 0
 580 593 581 495 581 450 c 2
 581 0 l 1
 512 0 l 1
 512 459 l 2
 512 497 511 532 478 532 c 0
 463 532 445 524 432 505 c 0
 245 221 245 120 245 0 c 1
 176 0 l 1
 176 407 l 1xed
 176 407 161 401 139 401 c 0
 106 401 44 421 44 494 c 0
 44 553 87 593 144 593 c 0
 218 593 245 542 245 490 c 2xdb
 245 300 l 1xdd
141 451 m 0
 171 451 187 474 187 497 c 0
 187 520 171 543 141 543 c 0xdb
 109 543 94 520 94 497 c 0
 94 474 109 451 141 451 c 0
EndSplineSet
Validated: 1
Layer: 2
SplineSet
245 300 m 1,0,1
 323 462 323 462 371 527.5 c 128,-1,2
 419 593 419 593 475 593 c 0,3,4
 505 593 505 593 526.5 582 c 128,-1,5
 548 571 548 571 558 556.5 c 128,-1,6
 568 542 568 542 573.5 519 c 128,-1,7
 579 496 579 496 580 483 c 128,-1,8
 581 470 581 470 581 450 c 2,9,-1
 581 0 l 1,10,-1
 512 0 l 1,11,-1
 512 459 l 2,12,13
 512 477 512 477 511 487 c 128,-1,14
 510 497 510 497 507 509 c 128,-1,15
 504 521 504 521 497 526.5 c 128,-1,16
 490 532 490 532 478 532 c 0,17,18
 450 532 450 532 432 505 c 0,19,20
 365 403 365 403 324.5 326 c 128,-1,21
 284 249 284 249 268 187.5 c 128,-1,22
 252 126 252 126 248.5 92.5 c 128,-1,23
 245 59 245 59 245 0 c 1,24,-1
 176 0 l 1,25,-1
 176 407 l 1,26,27
 161 401 161 401 139 401 c 0,28,29
 106 401 106 401 75 423 c 128,-1,30
 44 445 44 445 44 494 c 0,31,32
 44 538 44 538 72.5 565.5 c 128,-1,33
 101 593 101 593 144 593 c 0,34,35
 196 593 196 593 220.5 563.5 c 128,-1,36
 245 534 245 534 245 490 c 2,37,-1
 245 300 l 1,0,1
141 451 m 0,38,39
 162 451 162 451 174.5 464.5 c 128,-1,40
 187 478 187 478 187 497 c 256,41,42
 187 516 187 516 174.5 529.5 c 128,-1,43
 162 543 162 543 141 543 c 0,44,45
 118 543 118 543 106 529.5 c 128,-1,46
 94 516 94 516 94 497 c 256,47,48
 94 478 94 478 106 464.5 c 128,-1,49
 118 451 118 451 141 451 c 0,38,39
EndSplineSet
EndChar

StartChar: uni0E18
Encoding: 3608 3608 151
Width: 548
Flags: W
HStem: 0 61<86 153 222 364.681> 501 61<288.851 491.106> 532 61<116.11 337.929>
VStem: 153 69<61 416> 368 69<63.4822 353.279>
LayerCount: 3
Fore
SplineSet
101 494 m 1xb8
 206 488 299 462 346 432 c 0
 399 398 418 377 437 335 c 1
 437 84 l 2
 437 39 398 0 349 0 c 2
 86 0 l 1
 86 61 l 1
 153 61 l 1
 153 433 l 1
 118 439 81 443 40 443 c 0
 30 443 26 449 26 458 c 0
 26 476 40 511 52 527 c 0
 89 574 132 593 211 593 c 0xb8
 294 593 329 563 418 562 c 0
 452 562 484 573 503 594 c 1
 533 537 l 1
 507 520 479 501 426 501 c 0xd8
 366 501 273 532 216 532 c 0
 150 532 126 527 101 494 c 1xb8
368 97 m 2
 368 317 l 1
 354 349 343 364 305 386 c 0
 279 400 250 412 222 416 c 1
 222 61 l 1
 332 61 l 2
 354 61 368 77 368 97 c 2
EndSplineSet
Validated: 1
Layer: 2
SplineSet
101 494 m 1,0,1
 178 490 178 490 244 472.5 c 128,-1,2
 310 455 310 455 346 432 c 0,3,4
 385 407 385 407 404 387 c 128,-1,5
 423 367 423 367 437 335 c 1,6,-1
 437 84 l 2,7,8
 437 50 437 50 411 25 c 128,-1,9
 385 0 385 0 349 0 c 2,10,-1
 86 0 l 1,11,-1
 86 61 l 1,12,-1
 153 61 l 1,13,-1
 153 433 l 1,14,15
 95 443 95 443 40 443 c 0,16,17
 26 443 26 443 26 458 c 0,18,19
 26 471 26 471 34.5 493 c 128,-1,20
 43 515 43 515 52 527 c 0,21,22
 80 563 80 563 116 578 c 128,-1,23
 152 593 152 593 211 593 c 0,24,25
 252 593 252 593 312.500792577 577.5 c 128,-1,26
 373.001585154 562 373.001585154 562 418 562 c 0,27,28
 474 562 474 562 503 594 c 1,29,-1
 533 537 l 1,30,31
 478 501 478 501 426 501 c 0,32,33
 396 501 396 501 320 516.5 c 128,-1,34
 244 532 244 532 216 532 c 0,35,36
 165 532 165 532 142 525 c 128,-1,37
 119 518 119 518 101 494 c 1,0,1
368 97 m 2,38,-1
 368 317 l 1,39,40
 357 342 357 342 344.5 356 c 128,-1,41
 332 370 332 370 305 386 c 0,42,43
 259 411 259 411 222 416 c 1,44,-1
 222 61 l 1,45,-1
 332 61 l 2,46,47
 348 61 348 61 358 71.5 c 128,-1,48
 368 82 368 82 368 97 c 2,38,-1
EndSplineSet
EndChar

StartChar: uni0E19
Encoding: 3609 3609 152
Width: 668
Flags: W
HStem: -3 61<523.551 573.668> 210 61<392.177 451 520 569.219> 399 50<72.9526 146.807> 543 50<72.005 150.083>
VStem: 15 50<456.583 535.667> 147 69<0 43.7637 119 405> 158 58<455.268 535.62> 451 69<59.207 210 271 590> 582 64<62.4812 197.923>
AnchorPoint: "AboveBase" 527 659 basechar 0
LayerCount: 3
Fore
SplineSet
646 131 m 0xfd80
 646 33 587 -3 539 -3 c 0
 460 -3 451 73 451 115 c 2
 451 210 l 1
 402 210 262 121 216 0 c 1
 147 0 l 1
 147 405 l 1xfd80
 147 405 132 399 110 399 c 0
 59 399 15 437 15 494 c 0
 15 555 60 593 115 593 c 0
 189 593 216 544 216 490 c 2xfb80
 216 119 l 1
 216 119 254 173 322 218 c 0
 377 254 446 271 451 271 c 1
 451 590 l 1
 520 590 l 1
 520 270 l 1
 590 270 646 221 646 131 c 0xfd80
582 126 m 0
 582 200 554 210 520 210 c 1
 520 116 l 2
 520 75 523 58 545 58 c 0
 575 58 582 98 582 126 c 0
112 449 m 0
 143 449 158 473 158 496 c 0xfb80
 158 519 143 543 112 543 c 0
 81 543 65 519 65 496 c 0
 65 473 81 449 112 449 c 0
EndSplineSet
Validated: 1
Layer: 2
SplineSet
646 131 m 0,0,1
 646 64 646 64 613.5 30.5 c 128,-1,2
 581 -3 581 -3 539 -3 c 0,3,4
 451 -3 451 -3 451 115 c 2,5,-1
 451 210 l 1,6,7
 425 210 425 210 379.5 184 c 128,-1,8
 334 158 334 158 285.5 107 c 128,-1,9
 237 56 237 56 216 0 c 1,10,-1
 147 0 l 1,11,-1
 147 405 l 1,12,13
 132 399 132 399 110 399 c 0,14,15
 71 399 71 399 43 425.5 c 128,-1,16
 15 452 15 452 15 494 c 0,17,18
 15 539 15 539 44 566 c 128,-1,19
 73 593 73 593 115 593 c 0,20,21
 167 593 167 593 191.5 564 c 128,-1,22
 216 535 216 535 216 490 c 2,23,-1
 216 119 l 1,24,25
 254 173 254 173 322 218 c 0,26,27
 347 234 347 234 378.5 247 c 128,-1,28
 410 260 410 260 428.5 265.5 c 128,-1,29
 447 271 447 271 451 271 c 1,30,-1
 451 590 l 1,31,-1
 520 590 l 1,32,-1
 520 270 l 1,33,34
 575 270 575 270 610.5 233 c 128,-1,35
 646 196 646 196 646 131 c 0,0,1
582 126 m 0,36,37
 582 177 582 177 566 193.5 c 128,-1,38
 550 210 550 210 520 210 c 1,39,-1
 520 116 l 2,40,41
 520 83 520 83 524.5 70.5 c 128,-1,42
 529 58 529 58 545 58 c 0,43,44
 582 58 582 58 582 126 c 0,36,37
112 449 m 256,45,46
 134 449 134 449 146 463 c 128,-1,47
 158 477 158 477 158 496 c 256,48,49
 158 515 158 515 146 529 c 128,-1,50
 134 543 134 543 112 543 c 256,51,52
 90 543 90 543 77.5 529 c 128,-1,53
 65 515 65 515 65 496 c 256,54,55
 65 477 65 477 77.5 463 c 128,-1,56
 90 449 90 449 112 449 c 256,45,46
EndSplineSet
EndChar

StartChar: uni0E1A
Encoding: 3610 3610 153
Width: 636
Flags: W
HStem: 0 61<74 147 216 458.117> 401 50<78.8232 146.876> 543 50<79.6461 154.677>
VStem: 23 50<456.391 537.012> 147 69<61 407> 161 55<457.036 536.931> 463 69<66.3227 590>
LayerCount: 3
Fore
SplineSet
418 61 m 2xfa
 433 61 463 69 463 99 c 2
 463 590 l 1
 532 590 l 1
 532 84 l 2
 532 26 487 0 441 0 c 2
 74 0 l 1
 74 61 l 1
 147 61 l 1
 147 407 l 1xfa
 147 407 133 401 113 401 c 0
 65 401 23 435 23 493 c 0
 23 571 79 593 117 593 c 0
 187 593 216 542 216 490 c 2xf6
 216 61 l 1
 418 61 l 2xfa
116 451 m 0
 146 451 161 474 161 497 c 0xf6
 161 520 146 543 116 543 c 0
 87 543 73 520 73 497 c 0
 73 474 87 451 116 451 c 0
EndSplineSet
Validated: 1
Layer: 2
SplineSet
418 61 m 2,0,1
 433 61 433 61 448 70 c 128,-1,2
 463 79 463 79 463 99 c 2,3,-1
 463 590 l 1,4,-1
 532 590 l 1,5,-1
 532 84 l 2,6,7
 532 43 532 43 505.5 21.5 c 128,-1,8
 479 0 479 0 441 0 c 2,9,-1
 74 0 l 1,10,-1
 74 61 l 1,11,-1
 147 61 l 1,12,-1
 147 407 l 1,13,14
 133 401 133 401 113 401 c 0,15,16
 75 401 75 401 49 426 c 128,-1,17
 23 451 23 451 23 493 c 0,18,19
 23 546 23 546 52 569.5 c 128,-1,20
 81 593 81 593 117 593 c 0,21,22
 166 593 166 593 191 563 c 128,-1,23
 216 533 216 533 216 490 c 2,24,-1
 216 61 l 1,25,-1
 418 61 l 2,0,1
116 451 m 0,26,27
 137 451 137 451 149 464.5 c 128,-1,28
 161 478 161 478 161 497 c 256,29,30
 161 516 161 516 149 529.5 c 128,-1,31
 137 543 137 543 116 543 c 0,32,33
 96 543 96 543 84.5 529.5 c 128,-1,34
 73 516 73 516 73 497 c 256,35,36
 73 478 73 478 84.5 464.5 c 128,-1,37
 96 451 96 451 116 451 c 0,26,27
EndSplineSet
EndChar

